<svg width="320" height="234" viewBox="0 0 320 234" fill="none" xmlns="http://www.w3.org/2000/svg">
<g clip-path="url(#clip0_854_10055)">
<path d="M230.506 80.8727H120.248C118.495 80.8707 116.815 80.1783 115.575 78.9474C114.336 77.7165 113.639 76.0476 113.637 74.3068V9.71528C113.638 8.41335 114.16 7.16516 115.087 6.24455C116.014 5.32393 117.27 4.80607 118.581 4.80457H232.094C233.426 4.80608 234.703 5.33221 235.645 6.26753C236.586 7.20284 237.116 8.47097 237.118 9.79369V74.3068C237.116 76.0476 236.418 77.7165 235.179 78.9474C233.939 80.1783 232.259 80.8707 230.506 80.8727V80.8727Z" fill="white"/>
<path d="M230.506 80.8727H120.248C118.495 80.8707 116.815 80.1783 115.575 78.9474C114.336 77.7165 113.639 76.0476 113.637 74.3068V9.71528C113.638 8.41335 114.16 7.16516 115.087 6.24455C116.014 5.32393 117.27 4.80607 118.581 4.80457H232.094C233.426 4.80608 234.703 5.33221 235.645 6.26753C236.586 7.20284 237.116 8.47097 237.118 9.79369V74.3068C237.116 76.0476 236.418 77.7165 235.179 78.9474C233.939 80.1783 232.259 80.8707 230.506 80.8727V80.8727ZM118.581 5.55496C117.471 5.55621 116.406 5.99494 115.621 6.77489C114.835 7.55483 114.394 8.6123 114.392 9.71528V74.3068C114.394 75.8486 115.012 77.3268 116.109 78.4171C117.207 79.5073 118.696 80.1206 120.248 80.1223H230.506C232.059 80.1206 233.547 79.5073 234.645 78.4171C235.743 77.3268 236.36 75.8486 236.362 74.3068V9.79369C236.361 8.66991 235.911 7.59251 235.111 6.79787C234.31 6.00323 233.225 5.55624 232.094 5.55496H118.581Z" fill="#3F3D56"/>
<path d="M126.294 74.3068H224.462C226.065 74.3068 227.603 73.6744 228.736 72.5486C229.87 71.4228 230.507 69.8958 230.507 68.3037V21.1986C230.507 19.6064 229.87 18.0795 228.736 16.9537C227.603 15.8279 226.065 15.1954 224.462 15.1954H126.294C124.691 15.1954 123.153 15.8279 122.02 16.9537C120.886 18.0795 120.249 19.6064 120.249 21.1986V68.3037C120.249 69.8958 120.886 71.4228 122.02 72.5486C123.153 73.6744 124.691 74.3068 126.294 74.3068Z" fill="#F2F2F2"/>
<path d="M237.283 9.36123H113.363V6.20943C113.375 4.55364 114.047 2.97001 115.233 1.80593C116.419 0.641854 118.021 -0.00761141 119.688 5.34954e-06H230.958C232.625 -0.00761935 234.227 0.641841 235.413 1.80592C236.599 2.97 237.271 4.55363 237.283 6.20943V9.36123Z" fill="#6C63FF"/>
<path d="M125.298 6.29707C126.192 6.29707 126.916 5.57754 126.916 4.68995C126.916 3.80236 126.192 3.08282 125.298 3.08282C124.404 3.08282 123.68 3.80236 123.68 4.68995C123.68 5.57754 124.404 6.29707 125.298 6.29707Z" fill="white"/>
<path d="M131.441 6.29707C132.334 6.29707 133.059 5.57754 133.059 4.68995C133.059 3.80236 132.334 3.08282 131.441 3.08282C130.547 3.08282 129.822 3.80236 129.822 4.68995C129.822 5.57754 130.547 6.29707 131.441 6.29707Z" fill="white"/>
<path d="M137.583 6.29707C138.477 6.29707 139.201 5.57754 139.201 4.68995C139.201 3.80236 138.477 3.08282 137.583 3.08282C136.689 3.08282 135.965 3.80236 135.965 4.68995C135.965 5.57754 136.689 6.29707 137.583 6.29707Z" fill="white"/>
<path d="M143.767 57.1327C141.301 57.1327 138.891 56.4065 136.841 55.046C134.79 53.6855 133.192 51.7518 132.249 49.4894C131.305 47.2269 131.058 44.7374 131.539 42.3357C132.02 39.9339 133.208 37.7277 134.951 35.9961C136.695 34.2646 138.917 33.0853 141.335 32.6076C143.753 32.1299 146.26 32.3751 148.538 33.3122C150.817 34.2493 152.764 35.8363 154.134 37.8724C155.504 39.9085 156.235 42.3023 156.235 44.7512C156.231 48.0338 154.916 51.1809 152.579 53.5021C150.242 55.8233 147.073 57.1289 143.767 57.1327V57.1327Z" fill="#6C63FF"/>
<path d="M216.433 54.8814H168.181C167.401 54.8916 166.647 54.6094 166.068 54.091C165.489 53.5726 165.129 52.8564 165.059 52.0854C165.031 51.675 165.088 51.2633 165.227 50.8757C165.366 50.4881 165.583 50.133 165.866 49.8324C166.149 49.5317 166.491 49.2919 166.87 49.1277C167.25 48.9636 167.66 48.8787 168.074 48.8783H216.313C217.097 48.8668 217.855 49.15 218.437 49.671C219.018 50.1919 219.38 50.9121 219.449 51.687C219.475 52.0964 219.417 52.5069 219.277 52.893C219.137 53.2791 218.919 53.6327 218.637 53.932C218.354 54.2313 218.013 54.4699 217.634 54.6332C217.255 54.7965 216.846 54.881 216.433 54.8814Z" fill="#3F3D56"/>
<path d="M191.12 42.1248H168.181C167.401 42.135 166.647 41.8527 166.068 41.3343C165.489 40.816 165.129 40.0997 165.059 39.3288C165.031 38.9184 165.088 38.5066 165.227 38.119C165.366 37.7315 165.583 37.3764 165.866 37.0757C166.149 36.775 166.491 36.5352 166.87 36.3711C167.25 36.207 167.66 36.1221 168.074 36.1216H191C191.784 36.1102 192.542 36.3934 193.124 36.9143C193.706 37.4353 194.067 38.1555 194.137 38.9303C194.163 39.3398 194.104 39.7502 193.964 40.1363C193.824 40.5224 193.607 40.876 193.324 41.1753C193.041 41.4746 192.7 41.7132 192.321 41.8765C191.942 42.0398 191.533 42.1243 191.12 42.1248Z" fill="#3F3D56"/>
<path d="M287.167 169.739C287.353 169.219 287.422 168.666 287.368 168.117C287.315 167.567 287.142 167.037 286.86 166.562C286.577 166.086 286.194 165.678 285.736 165.366C285.278 165.054 284.757 164.846 284.209 164.756L281.931 151.54L276.81 156.302L279.758 168.122C279.666 169.046 279.919 169.971 280.468 170.723C281.018 171.474 281.826 171.999 282.739 172.199C283.652 172.398 284.608 172.258 285.424 171.805C286.24 171.351 286.86 170.616 287.167 169.739V169.739Z" fill="#FFB8B8"/>
<path d="M283.764 163.417L278.736 164.727C278.497 164.788 278.243 164.754 278.029 164.633C277.814 164.511 277.656 164.311 277.588 164.075L268.553 132.284L265.823 124.174C265.56 123.393 265.5 122.558 265.649 121.748C265.799 120.937 266.152 120.177 266.676 119.539C267.201 118.9 267.879 118.404 268.649 118.096C269.418 117.787 270.254 117.678 271.077 117.776C272.031 117.89 272.93 118.279 273.663 118.894C274.396 119.51 274.932 120.325 275.204 121.24L282.424 145.475L284.462 162.398C284.484 162.586 284.449 162.777 284.36 162.945C284.272 163.112 284.134 163.25 283.966 163.339C283.902 163.372 283.834 163.399 283.764 163.417V163.417Z" fill="#CCCCCC"/>
<path d="M265.39 112.414C270.514 112.414 274.669 108.288 274.669 103.199C274.669 98.1092 270.514 93.9835 265.39 93.9835C260.265 93.9835 256.11 98.1092 256.11 103.199C256.11 108.288 260.265 112.414 265.39 112.414Z" fill="#FFB8B8"/>
<path d="M238.069 229.263L233.629 227.952L236.611 210.322L243.164 212.258L238.069 229.263Z" fill="#FFB8B8"/>
<path d="M237.92 233.872L223.605 229.642L223.659 229.462C223.877 228.736 224.237 228.059 224.718 227.47C225.199 226.881 225.792 226.393 226.463 226.032C227.135 225.671 227.871 225.445 228.63 225.366C229.39 225.288 230.157 225.359 230.889 225.575L230.889 225.575L239.632 228.159L237.92 233.872Z" fill="#2F2E41"/>
<path d="M286.706 229.038H282.074L279.871 211.295L284.44 211.296L286.706 229.038Z" fill="#FFB8B8"/>
<path d="M287.887 233.497L272.952 233.496V233.308C272.952 232.55 273.102 231.8 273.395 231.099C273.687 230.399 274.115 229.762 274.655 229.226C275.195 228.69 275.835 228.265 276.541 227.975C277.246 227.685 278.002 227.536 278.765 227.536H278.766L287.887 227.536L287.887 233.497Z" fill="#2F2E41"/>
<path d="M239.776 224.047H235.125C234.876 224.047 234.63 223.993 234.404 223.888C234.178 223.783 233.978 223.63 233.819 223.439C233.659 223.249 233.544 223.027 233.481 222.787C233.417 222.548 233.408 222.297 233.453 222.054C230.487 220.744 246.455 144.694 250.228 146.168L250.352 145.99L269.351 147.53C277.861 164.444 283.248 192.431 288.288 221.648C288.35 221.89 288.357 222.143 288.308 222.389C288.26 222.634 288.157 222.866 288.007 223.067C287.857 223.268 287.664 223.434 287.442 223.552C287.22 223.67 286.974 223.737 286.722 223.75L281.497 224.001C281.143 224.019 280.793 223.927 280.495 223.737C280.197 223.547 279.967 223.269 279.836 222.942L259.817 173.24C259.777 173.132 259.703 173.039 259.606 172.975C259.509 172.911 259.394 172.88 259.278 172.887C259.162 172.888 259.049 172.925 258.955 172.993C258.862 173.06 258.792 173.155 258.755 173.265L241.382 222.913C241.265 223.244 241.049 223.532 240.761 223.735C240.473 223.938 240.129 224.047 239.776 224.047V224.047Z" fill="#2F2E41"/>
<path d="M269.749 149.018L269.604 149.008L249.376 147.492L252.924 125.081C253.313 122.58 254.507 120.27 256.326 118.498C258.146 116.725 260.494 115.584 263.02 115.246C263.175 115.224 263.331 115.203 263.489 115.182C265.473 114.923 267.492 115.175 269.35 115.913C271.208 116.652 272.844 117.852 274.1 119.399C275.386 120.956 276.248 122.814 276.602 124.796C276.956 126.779 276.791 128.818 276.123 130.719L269.749 149.018Z" fill="#CCCCCC"/>
<path d="M283.409 113.74C277.028 116.638 268.371 116.12 258.474 113.74C259.843 110.014 260.911 106.416 259.7 103.774C259.211 102.777 258.935 101.69 258.889 100.582C258.844 99.4737 259.029 98.3681 259.434 97.3345C260.383 95.0809 261.982 93.1562 264.029 91.8026C266.077 90.449 268.481 89.7268 270.941 89.7271V89.7271C274.248 89.7271 277.419 91.0315 279.757 93.3535C282.095 95.6755 283.409 98.8248 283.409 102.109V113.74Z" fill="#2F2E41"/>
<path d="M261.873 90.5696H269.807V100.259H253.184V99.1991C253.184 96.9104 254.099 94.7154 255.729 93.0971C257.358 91.4788 259.568 90.5696 261.873 90.5696V90.5696Z" fill="#2F2E41"/>
<path d="M248.939 171.824C249.348 171.451 249.67 170.994 249.882 170.484C250.095 169.974 250.192 169.424 250.167 168.873C250.142 168.322 249.995 167.783 249.738 167.295C249.481 166.806 249.118 166.379 248.677 166.044L252.901 153.31L246.13 155.133L243.157 166.947C242.64 167.72 242.426 168.655 242.557 169.575C242.688 170.495 243.154 171.334 243.866 171.936C244.579 172.537 245.489 172.857 246.424 172.837C247.359 172.816 248.254 172.456 248.939 171.824V171.824Z" fill="#FFB8B8"/>
<path d="M248.916 164.655L243.856 163.472C243.616 163.415 243.408 163.267 243.276 163.06C243.144 162.852 243.098 162.602 243.149 162.362L250.169 130.073L251.585 121.639C251.721 120.826 252.063 120.061 252.577 119.414C253.091 118.767 253.762 118.26 254.526 117.94C255.291 117.62 256.124 117.498 256.95 117.584C257.775 117.669 258.565 117.961 259.246 118.432V118.432C260.034 118.976 260.645 119.738 261.002 120.623C261.36 121.508 261.449 122.477 261.257 123.412L256.199 148.181L250.014 164.08C249.944 164.256 249.823 164.408 249.666 164.515C249.508 164.622 249.322 164.679 249.131 164.68C249.059 164.68 248.987 164.671 248.916 164.655V164.655Z" fill="#CCCCCC"/>
<path d="M319.622 234H175.679C175.578 234 175.482 233.96 175.411 233.89C175.341 233.82 175.301 233.724 175.301 233.625C175.301 233.525 175.341 233.43 175.411 233.359C175.482 233.289 175.578 233.25 175.679 233.25H319.622C319.722 233.25 319.818 233.289 319.889 233.359C319.96 233.43 320 233.525 320 233.625C320 233.724 319.96 233.82 319.889 233.89C319.818 233.96 319.722 234 319.622 234Z" fill="#CCCCCC"/>
<path d="M51.0168 144.43C50.8143 144.481 50.6162 144.548 50.4244 144.631L34.6797 134.544L34.8969 130.029L28.0781 128.813L26.9114 136.769C26.8172 137.412 26.9354 138.067 27.2484 138.638C27.5614 139.208 28.0522 139.662 28.6472 139.932L48.0386 148.723C48.135 149.517 48.4727 150.263 49.0065 150.862C49.5403 151.461 50.2451 151.884 51.0271 152.075C51.809 152.267 52.6311 152.217 53.384 151.933C54.1369 151.649 54.7848 151.144 55.2417 150.486C55.6986 149.827 55.9427 149.046 55.9417 148.246C55.9406 147.446 55.6944 146.666 55.2357 146.008C54.7771 145.351 54.1278 144.848 53.3742 144.566C52.6205 144.284 51.7983 144.236 51.0169 144.43H51.0168Z" fill="#FFB8B8"/>
<path d="M34.0365 134.266L25.5926 132.718C25.3524 132.674 25.1245 132.579 24.9245 132.44C24.7246 132.3 24.5572 132.12 24.4338 131.91C24.3105 131.701 24.234 131.467 24.2096 131.226C24.1853 130.985 24.2136 130.741 24.2927 130.511L27.0637 122.467C27.2974 121.248 28.0086 120.17 29.0414 119.471C30.0741 118.771 31.3441 118.507 32.5728 118.736C33.8014 118.965 34.8885 119.668 35.5957 120.692C36.3028 121.716 36.5722 122.976 36.3448 124.197L36.0442 132.666C36.0355 132.908 35.9743 133.146 35.8647 133.363C35.7552 133.58 35.5999 133.771 35.4093 133.922C35.2188 134.074 34.9976 134.184 34.7607 134.243C34.5237 134.302 34.2768 134.31 34.0365 134.266V134.266Z" fill="#3F3D56"/>
<path d="M198.472 110.943H54.5289C53.289 110.942 52.0702 111.261 50.9925 111.87C50.7343 112.015 50.4858 112.177 50.2483 112.354C49.3491 113.016 48.6186 113.878 48.1154 114.871C47.6122 115.864 47.3502 116.96 47.3506 118.072V192.361C47.3523 194.251 48.1091 196.063 49.4549 197.4C50.8007 198.736 52.6256 199.488 54.5289 199.489H198.472C200.375 199.488 202.2 198.736 203.546 197.4C204.892 196.063 205.649 194.251 205.65 192.361V118.072C205.649 116.182 204.892 114.369 203.546 113.033C202.2 111.696 200.375 110.945 198.472 110.943Z" fill="white"/>
<path d="M198.472 110.943H54.5289C53.289 110.942 52.0702 111.261 50.9925 111.87C50.7343 112.015 50.4858 112.177 50.2483 112.354C49.3491 113.016 48.6186 113.878 48.1154 114.871C47.6122 115.864 47.3502 116.96 47.3506 118.072V192.361C47.3523 194.251 48.1091 196.063 49.4549 197.4C50.8007 198.736 52.6256 199.488 54.5289 199.489H198.472C200.375 199.488 202.2 198.736 203.546 197.4C204.892 196.063 205.649 194.251 205.65 192.361V118.072C205.649 116.182 204.892 114.369 203.546 113.033C202.2 111.696 200.375 110.945 198.472 110.943V110.943ZM204.895 192.361C204.892 194.052 204.215 195.673 203.011 196.868C201.807 198.064 200.175 198.737 198.472 198.739H54.5289C52.8262 198.737 51.194 198.064 49.99 196.868C48.7861 195.673 48.1086 194.052 48.1062 192.361V118.072C48.1116 116.724 48.5444 115.412 49.3433 114.322C50.1422 113.232 51.2666 112.42 52.5566 112.001C52.6096 111.986 52.6586 111.967 52.7116 111.952C53.3017 111.78 53.9137 111.693 54.5289 111.694H198.472C200.175 111.696 201.807 112.369 203.011 113.564C204.215 114.76 204.892 116.381 204.895 118.072V192.361Z" fill="#3F3D56"/>
<path d="M126.343 155.185C125.769 155.185 125.205 155.04 124.704 154.765L49.5042 113.661C49.4164 113.613 49.3514 113.533 49.3235 113.437C49.2956 113.341 49.3071 113.239 49.3554 113.152C49.4037 113.064 49.4849 113 49.5812 112.972C49.6774 112.944 49.7808 112.956 49.8685 113.004L125.068 154.108C125.451 154.318 125.882 154.43 126.32 154.434C126.758 154.438 127.19 154.333 127.577 154.13L204.014 114.085C204.058 114.062 204.106 114.048 204.155 114.043C204.205 114.038 204.255 114.044 204.302 114.058C204.35 114.073 204.394 114.096 204.432 114.128C204.47 114.159 204.502 114.198 204.525 114.241C204.548 114.285 204.563 114.333 204.567 114.382C204.572 114.431 204.567 114.481 204.552 114.528C204.537 114.575 204.513 114.619 204.481 114.657C204.45 114.694 204.411 114.726 204.367 114.749L127.93 154.793C127.441 155.05 126.896 155.184 126.343 155.185V155.185Z" fill="#3F3D56"/>
<path d="M71.3666 180.73H60.7881C59.9865 180.73 59.2177 180.413 58.6509 179.85C58.0841 179.288 57.7656 178.524 57.7656 177.728C57.7656 176.932 58.0841 176.168 58.6509 175.606C59.2177 175.043 59.9865 174.726 60.7881 174.726H71.3666C72.1682 174.726 72.9369 175.043 73.5038 175.606C74.0706 176.168 74.389 176.932 74.389 177.728C74.389 178.524 74.0706 179.288 73.5038 179.85C72.9369 180.413 72.1682 180.73 71.3666 180.73Z" fill="#3F3D56"/>
<path d="M83.8341 190.86H60.7881C59.9865 190.86 59.2177 190.544 58.6509 189.981C58.0841 189.418 57.7656 188.654 57.7656 187.858C57.7656 187.062 58.0841 186.299 58.6509 185.736C59.2177 185.173 59.9865 184.857 60.7881 184.857H83.8341C84.6357 184.857 85.4045 185.173 85.9713 185.736C86.5381 186.299 86.8565 187.062 86.8565 187.858C86.8565 188.654 86.5381 189.418 85.9713 189.981C85.4045 190.544 84.6357 190.86 83.8341 190.86Z" fill="#3F3D56"/>
<path d="M126.312 167.222C132.989 167.222 138.402 161.847 138.402 155.216C138.402 148.585 132.989 143.21 126.312 143.21C119.635 143.21 114.223 148.585 114.223 155.216C114.223 161.847 119.635 167.222 126.312 167.222Z" fill="#6C63FF"/>
<path d="M71.5096 118.006L124.789 140.082C124.973 140.158 125.179 140.159 125.363 140.085L180.293 118.009C180.456 117.944 180.59 117.825 180.674 117.672C180.757 117.519 180.785 117.341 180.751 117.17C180.718 117 180.625 116.846 180.49 116.735C180.355 116.624 180.185 116.563 180.01 116.563H71.8005C71.6259 116.563 71.4566 116.624 71.3216 116.733C71.1865 116.843 71.0939 116.996 71.0596 117.167C71.0253 117.337 71.0514 117.513 71.1335 117.666C71.2155 117.819 71.3484 117.94 71.5096 118.006Z" fill="#F2F2F2"/>
<path d="M63.3988 112.449C63.3525 112.651 63.3222 112.857 63.3084 113.064L47.0789 122.362L43.1341 120.107L38.9287 125.574L45.5215 130.241C46.0541 130.618 46.6955 130.813 47.3494 130.797C48.0032 130.781 48.6343 130.555 49.1478 130.153L65.8832 117.041C66.6384 117.319 67.4609 117.362 68.2412 117.164C69.0215 116.966 69.7227 116.537 70.2514 115.934C70.7801 115.33 71.1114 114.581 71.2011 113.787C71.2908 112.992 71.1347 112.189 70.7536 111.484C70.3725 110.78 69.7844 110.207 69.0676 109.842C68.3508 109.478 67.5392 109.339 66.7408 109.443C65.9423 109.548 65.1949 109.892 64.598 110.428C64.001 110.965 63.5827 111.67 63.3988 112.449V112.449Z" fill="#FFB8B8"/>
<path d="M46.5365 122.802L41.2912 129.554C41.1419 129.746 40.9527 129.904 40.7365 130.017C40.5203 130.13 40.2821 130.195 40.0381 130.208C39.7942 130.221 39.5502 130.182 39.3229 130.094C39.0955 130.005 38.8901 129.868 38.7206 129.694L32.7825 123.57C31.7974 122.806 31.1574 121.685 31.003 120.454C30.8486 119.222 31.1922 117.979 31.9587 116.999C32.7251 116.018 33.8518 115.38 35.0917 115.223C36.3315 115.066 37.5835 115.404 38.573 116.162L46.0206 120.298C46.2338 120.416 46.4188 120.579 46.563 120.775C46.7072 120.971 46.8071 121.195 46.8561 121.433C46.9051 121.67 46.9018 121.916 46.8467 122.152C46.7915 122.389 46.6857 122.61 46.5365 122.802H46.5365Z" fill="#3F3D56"/>
<path d="M25.0566 106.682C30.1814 106.682 34.3359 102.557 34.3359 97.4673C34.3359 92.3779 30.1814 88.2521 25.0566 88.2521C19.9318 88.2521 15.7773 92.3779 15.7773 97.4673C15.7773 102.557 19.9318 106.682 25.0566 106.682Z" fill="#FFB8B8"/>
<path d="M33.8152 229.413H38.4471L40.6504 211.67L33.8145 211.671L33.8152 229.413Z" fill="#FFB8B8"/>
<path d="M32.6338 227.911L41.7554 227.911H41.7558C42.5192 227.911 43.2751 228.06 43.9804 228.35C44.6856 228.64 45.3265 229.065 45.8663 229.602C46.4061 230.138 46.8342 230.774 47.1264 231.474C47.4185 232.175 47.5689 232.926 47.5689 233.684V233.871L32.6341 233.872L32.6338 227.911Z" fill="#2F2E41"/>
<path d="M17.948 229.413H22.5799L24.7833 211.67L17.9473 211.671L17.948 229.413Z" fill="#FFB8B8"/>
<path d="M16.7666 227.911L25.8882 227.911H25.8886C26.652 227.911 27.4079 228.06 28.1132 228.35C28.8185 228.64 29.4593 229.065 29.9991 229.602C30.5389 230.138 30.9671 230.774 31.2592 231.474C31.5513 232.175 31.7017 232.926 31.7017 233.684V233.871L16.7669 233.872L16.7666 227.911Z" fill="#2F2E41"/>
<path d="M32.4258 222.679L27.7012 186.378C27.6987 186.329 27.6773 186.284 27.6416 186.251C27.6058 186.219 27.5586 186.201 27.51 186.202C27.4857 186.202 27.4614 186.206 27.4387 186.214C27.4161 186.223 27.3954 186.236 27.378 186.253C27.3606 186.27 27.3468 186.29 27.3375 186.313C27.3282 186.335 27.3236 186.359 27.324 186.383L25.9662 222.158C25.951 222.595 25.7652 223.009 25.4481 223.312C25.131 223.615 24.7075 223.784 24.2672 223.783H18.657C18.2124 223.786 17.7848 223.614 17.4666 223.306C17.1485 222.997 16.9656 222.577 16.9574 222.135L15.501 162.53L40.6083 162.779L41.2351 222.576C41.2295 222.814 41.1735 223.047 41.0708 223.262C40.968 223.477 40.8208 223.668 40.6388 223.822C40.4607 223.974 40.2523 224.088 40.0271 224.155C39.802 224.222 39.5651 224.242 39.3319 224.212L33.8912 224.227C33.5056 224.174 33.1497 223.992 32.883 223.711C32.6163 223.429 32.4549 223.065 32.4258 222.679Z" fill="#2F2E41"/>
<path d="M15.1292 164.16C14.8484 164.053 14.601 163.874 14.4125 163.641C14.224 163.409 14.1011 163.13 14.0563 162.835L13.8057 130.077C12.6961 122.783 11.3837 115.636 17.805 111.941L18.3708 110.255C18.4325 110.073 18.5488 109.914 18.7042 109.799C18.8595 109.684 19.0464 109.62 19.2399 109.614L31.4213 109.268C31.6108 109.262 31.7979 109.312 31.9577 109.414C32.1176 109.515 32.2426 109.663 32.3164 109.836L33.2224 111.936L33.5441 112.118C36.6045 113.85 39.0826 116.441 40.6683 119.564C42.2541 122.688 42.8772 126.207 42.4597 129.681L41.7632 135.521L41.2684 162.812C41.262 163.111 41.1761 163.404 41.0194 163.66C40.8628 163.916 40.6408 164.126 40.3761 164.27C36.8373 166.194 32.9168 166.852 29.2071 166.852C22.9741 166.852 17.3389 164.993 15.1292 164.16Z" fill="#3F3D56"/>
<path d="M24.7539 107.024C23.3573 107.054 21.9701 106.79 20.6836 106.25C19.397 105.709 18.2402 104.905 17.2891 103.889C16.3379 102.873 15.6141 101.668 15.1651 100.355C14.7161 99.041 14.552 97.6479 14.6838 96.2668C14.8155 94.8857 15.2401 93.548 15.9295 92.3415C16.619 91.135 17.5577 90.087 18.6841 89.2665C19.8104 88.4459 21.0988 87.8714 22.4647 87.5806C23.8305 87.2898 25.2429 87.2893 26.6089 87.5792C28.6495 86.3488 31.022 85.5208 33.3999 85.7314C35.7777 85.942 38.1294 87.3439 39.0186 89.5442C39.9077 91.7444 38.9525 94.6446 36.7415 95.5388C35.324 96.112 33.7233 95.834 32.2107 95.6029C30.698 95.3717 29.0478 95.2209 27.7313 95.996C26.4148 96.7711 25.823 98.8495 27.002 99.8186C27.627 100.353 28.0734 101.063 28.2815 101.855C28.4897 102.648 28.4498 103.484 28.1673 104.254C27.5747 105.775 25.9573 106.998 24.7539 107.024Z" fill="#2F2E41"/>
<path d="M59.3152 234H0.377804C0.277604 234 0.181508 233.96 0.110656 233.89C0.039804 233.82 0 233.724 0 233.625C0 233.525 0.039804 233.43 0.110656 233.359C0.181508 233.289 0.277604 233.25 0.377804 233.25H59.3152C59.4154 233.25 59.5115 233.289 59.5824 233.359C59.6532 233.43 59.693 233.525 59.693 233.625C59.693 233.724 59.6532 233.82 59.5824 233.89C59.5115 233.96 59.4154 234 59.3152 234Z" fill="#CCCCCC"/>
</g>
<defs>
<clipPath id="clip0_854_10055">
<rect width="320" height="234" fill="white"/>
</clipPath>
</defs>
</svg>
