<svg width="280" height="180" viewBox="0 0 280 180" fill="none" xmlns="http://www.w3.org/2000/svg">
<g clip-path="url(#clip0_854_10230)">
<path d="M280 73.9278H279.527V60.6782C279.527 59.6712 279.333 58.674 278.956 57.7436C278.579 56.8133 278.027 55.9679 277.331 55.2558C276.635 54.5437 275.808 53.9789 274.899 53.5935C273.989 53.2081 273.014 53.0098 272.029 53.0098H244.584C243.599 53.0098 242.624 53.2081 241.714 53.5935C240.805 53.9789 239.978 54.5437 239.282 55.2558C238.586 55.9679 238.033 56.8133 237.657 57.7436C237.28 58.674 237.086 59.6712 237.086 60.6782V133.366C237.086 134.373 237.28 135.37 237.657 136.301C238.033 137.231 238.586 138.077 239.282 138.789C239.978 139.501 240.805 140.066 241.714 140.451C242.624 140.836 243.599 141.035 244.584 141.035H272.029C273.014 141.035 273.989 140.836 274.899 140.451C275.808 140.066 276.635 139.501 277.331 138.789C278.027 138.077 278.579 137.231 278.956 136.301C279.333 135.37 279.527 134.373 279.527 133.366V83.359H280V73.9278Z" fill="#3F3D56"/>
<path d="M277.931 61.1288V133.711C277.931 135.23 277.341 136.687 276.291 137.761C275.241 138.835 273.816 139.439 272.331 139.439H244.754C244.018 139.439 243.29 139.29 242.611 139.002C241.932 138.714 241.315 138.293 240.795 137.761C240.275 137.229 239.863 136.597 239.582 135.903C239.301 135.208 239.156 134.463 239.156 133.711V61.1288C239.156 59.6105 239.746 58.1543 240.796 57.0807C241.845 56.0071 243.269 55.4039 244.754 55.4039H248.099C247.935 55.8169 247.873 56.2649 247.918 56.7085C247.962 57.152 248.113 57.5775 248.356 57.9476C248.599 58.3177 248.928 58.621 249.312 58.8308C249.697 59.0407 250.126 59.1507 250.562 59.1511H266.286C266.722 59.152 267.152 59.0428 267.538 58.8333C267.923 58.6238 268.252 58.3204 268.496 57.95C268.739 57.5795 268.89 57.1534 268.934 56.7093C268.978 56.2652 268.914 55.8169 268.749 55.4039H272.331C273.816 55.4038 275.24 56.0068 276.29 57.0804C277.34 58.154 277.931 59.6102 277.931 61.1288Z" fill="#D0CDE1"/>
<path d="M272.71 92.5641H240.652V101.412H272.71V92.5641Z" fill="#6C63FF"/>
<path d="M273.982 99.8505H242.942C242.74 99.8502 242.546 99.7679 242.403 99.6216C242.259 99.4752 242.179 99.2768 242.179 99.0698V91.263C242.179 91.056 242.259 90.8576 242.403 90.7112C242.546 90.5649 242.74 90.4825 242.942 90.4823H273.982C274.185 90.4825 274.379 90.5649 274.522 90.7112C274.665 90.8576 274.746 91.056 274.746 91.263V99.0698C274.746 99.2768 274.665 99.4752 274.522 99.6216C274.379 99.7679 274.185 99.8502 273.982 99.8505ZM242.942 91.0028C242.875 91.0028 242.81 91.0303 242.762 91.0791C242.714 91.1279 242.688 91.194 242.688 91.263V99.0698C242.688 99.1388 242.714 99.2049 242.762 99.2537C242.81 99.3025 242.875 99.33 242.942 99.33H273.982C274.05 99.33 274.115 99.3025 274.162 99.2537C274.21 99.2049 274.237 99.1388 274.237 99.0698V91.263C274.237 91.194 274.21 91.1279 274.162 91.0791C274.115 91.0303 274.05 91.0028 273.982 91.0028H242.942Z" fill="#3F3D56"/>
<path d="M248.286 97.5084H244.215V98.0288H248.286V97.5084Z" fill="#3F3D56"/>
<path d="M253.883 97.5084H249.812V98.0288H253.883V97.5084Z" fill="#3F3D56"/>
<path d="M259.48 97.5084H255.409V98.0288H259.48V97.5084Z" fill="#3F3D56"/>
<path d="M265.078 97.5084H261.007V98.0288H265.078V97.5084Z" fill="#3F3D56"/>
<path d="M270.675 97.5084H266.604V98.0288H270.675V97.5084Z" fill="#3F3D56"/>
<path opacity="0.1" d="M277.931 126.331V133.711C277.931 135.23 277.341 136.687 276.291 137.761C275.241 138.835 273.816 139.439 272.331 139.439H244.754C244.018 139.439 243.29 139.29 242.611 139.002C241.932 138.714 241.315 138.293 240.795 137.761C240.275 137.229 239.863 136.597 239.582 135.903C239.301 135.208 239.156 134.463 239.156 133.711V99.762L277.931 126.331Z" fill="black"/>
<path d="M145.751 119.628H25.4053V180H145.751V119.628Z" fill="#D0CDE1"/>
<path opacity="0.1" d="M115.155 180H25.9141C25.7793 180 25.6501 179.945 25.5548 179.847C25.4594 179.75 25.4057 179.617 25.4053 179.48V120.148C25.4057 120.01 25.4594 119.878 25.5547 119.78C25.6501 119.683 25.7793 119.628 25.9141 119.628H27.0438L115.155 180Z" fill="black"/>
<path d="M267.622 127.695H81.125V128.215H267.622V127.695Z" fill="#3F3D56"/>
<path d="M140.088 1.12359H86.7871V0H62.6187V1.12359H9.09854C8.62507 1.12359 8.15624 1.21897 7.71882 1.40429C7.28139 1.5896 6.88394 1.86122 6.54915 2.20364C6.21436 2.54605 5.94879 2.95256 5.76761 3.39995C5.58642 3.84734 5.49316 4.32685 5.49316 4.8111V79.4584C5.49316 80.4364 5.87301 81.3743 6.54915 82.0659C7.22529 82.7574 8.14233 83.1459 9.09854 83.1459H140.088C141.044 83.1459 141.961 82.7574 142.637 82.0659C143.313 81.3743 143.693 80.4364 143.693 79.4584V4.8111C143.693 4.32685 143.6 3.84734 143.418 3.39995C143.237 2.95256 142.972 2.54605 142.637 2.20364C142.302 1.86122 141.905 1.5896 141.467 1.40429C141.03 1.21897 140.561 1.12359 140.088 1.12359Z" fill="#3F3D56"/>
<path d="M138.857 7.63939H10.3271V81.7986H138.857V7.63939Z" fill="#D0CDE1"/>
<path d="M74.4833 5.61797C75.2114 5.61797 75.8016 5.01431 75.8016 4.26965C75.8016 3.525 75.2114 2.92134 74.4833 2.92134C73.7553 2.92134 73.165 3.525 73.165 4.26965C73.165 5.01431 73.7553 5.61797 74.4833 5.61797Z" fill="#6C63FF"/>
<path d="M48.5586 35.3144H45.5055C45.3031 35.3142 45.1091 35.2319 44.966 35.0855C44.8229 34.9392 44.7424 34.7407 44.7422 34.5337V31.411C44.7424 31.204 44.8229 31.0056 44.966 30.8593C45.1091 30.7129 45.3031 30.6306 45.5055 30.6303H48.5586C48.761 30.6306 48.955 30.7129 49.0981 30.8593C49.2412 31.0056 49.3217 31.204 49.3219 31.411V34.5337C49.3217 34.7407 49.2412 34.9392 49.0981 35.0855C48.955 35.2319 48.761 35.3142 48.5586 35.3144ZM45.5055 31.1508C45.438 31.1509 45.3734 31.1783 45.3257 31.2271C45.278 31.2759 45.2511 31.342 45.251 31.411V34.5337C45.2511 34.6027 45.278 34.6689 45.3257 34.7177C45.3734 34.7664 45.438 34.7939 45.5055 34.794H48.5586C48.6261 34.7939 48.6908 34.7664 48.7385 34.7177C48.7862 34.6689 48.813 34.6027 48.8131 34.5337V31.411C48.813 31.342 48.7862 31.2759 48.7385 31.2271C48.6908 31.1783 48.6261 31.1509 48.5586 31.1508H45.5055Z" fill="#3F3D56"/>
<path d="M103.006 34.794H44.9961V35.3144H103.006V34.794Z" fill="#3F3D56"/>
<path d="M101.48 49.1064H87.9951V53.27H101.48V49.1064Z" fill="#6C63FF"/>
<path d="M102.497 52.2291H90.0299C89.8275 52.2289 89.6335 52.1466 89.4904 52.0002C89.3473 51.8538 89.2668 51.6554 89.2666 51.4484V48.3257C89.2668 48.1187 89.3473 47.9203 89.4904 47.7739C89.6335 47.6276 89.8275 47.5453 90.0299 47.545H102.497C102.699 47.5453 102.893 47.6276 103.036 47.7739C103.18 47.9203 103.26 48.1187 103.26 48.3257V51.4484C103.26 51.6554 103.18 51.8538 103.036 52.0002C102.893 52.1466 102.699 52.2289 102.497 52.2291ZM90.0299 48.0655C89.9624 48.0656 89.8978 48.093 89.8501 48.1418C89.8024 48.1906 89.7755 48.2567 89.7755 48.3257V51.4484C89.7755 51.5174 89.8024 51.5836 89.8501 51.6323C89.8978 51.6811 89.9624 51.7086 90.0299 51.7087H102.497C102.564 51.7086 102.629 51.6811 102.677 51.6323C102.724 51.5836 102.751 51.5174 102.751 51.4484V48.3257C102.751 48.2567 102.724 48.1906 102.677 48.1418C102.629 48.093 102.564 48.0656 102.497 48.0655H90.0299Z" fill="#3F3D56"/>
<path d="M204.524 53.7905H179.081V72.0063H204.524V53.7905Z" fill="#6C63FF"/>
<path d="M207.068 70.575H182.643C182.373 70.5747 182.114 70.465 181.923 70.2698C181.733 70.0747 181.625 69.8101 181.625 69.5341V52.3592C181.625 52.0832 181.733 51.8187 181.923 51.6235C182.114 51.4284 182.373 51.3186 182.643 51.3183H207.068C207.338 51.3186 207.596 51.4284 207.787 51.6235C207.978 51.8186 208.085 52.0832 208.086 52.3592V69.5341C208.085 69.8101 207.978 70.0747 207.787 70.2698C207.596 70.465 207.338 70.5747 207.068 70.575ZM182.643 52.3592V69.5341H207.069L207.068 52.3592H182.643Z" fill="#3F3D56"/>
<path d="M204.269 51.7086H203.251C203.251 49.4311 202.367 47.2469 200.792 45.6364C199.218 44.0259 197.082 43.1212 194.855 43.1212C192.628 43.1212 190.493 44.0259 188.918 45.6364C187.344 47.2469 186.459 49.4311 186.459 51.7086H185.441C185.441 49.1551 186.433 46.706 188.199 44.9004C189.964 43.0947 192.359 42.0803 194.855 42.0803C197.352 42.0803 199.746 43.0947 201.512 44.9004C203.277 46.706 204.269 49.1551 204.269 51.7086Z" fill="#3F3D56"/>
<path d="M197.399 58.8649C197.4 58.4117 197.285 57.9663 197.065 57.5727C196.846 57.179 196.529 56.8508 196.148 56.6206C195.766 56.3903 195.332 56.266 194.889 56.2598C194.446 56.2537 194.01 56.3659 193.622 56.5855C193.234 56.8051 192.91 57.1244 192.68 57.5118C192.45 57.8992 192.323 58.3413 192.311 58.7943C192.3 59.2473 192.404 59.6955 192.614 60.0946C192.824 60.4936 193.132 60.8298 193.508 61.0696V63.8627C193.508 64.0436 193.543 64.2228 193.611 64.3899C193.678 64.5571 193.777 64.709 193.902 64.8369C194.028 64.9648 194.176 65.0663 194.339 65.1355C194.503 65.2047 194.678 65.2404 194.855 65.2404C195.212 65.2404 195.555 65.0952 195.807 64.8369C196.06 64.5785 196.202 64.2281 196.202 63.8627V61.0696C196.568 60.8364 196.87 60.5116 197.08 60.1258C197.289 59.7401 197.399 59.3061 197.399 58.8649Z" fill="#3F3D56"/>
<path d="M76.4185 146.431H72.3477V146.951H76.4185V146.431Z" fill="#3F3D56"/>
<path d="M82.0162 146.431H77.9453V146.951H82.0162V146.431Z" fill="#3F3D56"/>
<path d="M87.6129 146.431H83.542V146.951H87.6129V146.431Z" fill="#3F3D56"/>
<path d="M93.2105 146.431H89.1396V146.951H93.2105V146.431Z" fill="#3F3D56"/>
<path d="M98.8082 146.431H94.7373V146.951H98.8082V146.431Z" fill="#3F3D56"/>
<path d="M151.093 175.576H31.7658C31.4959 175.576 31.2372 175.466 31.0464 175.271C30.8557 175.076 30.7483 174.811 30.748 174.535V115.204C30.7483 114.928 30.8557 114.663 31.0464 114.468C31.2372 114.273 31.4959 114.163 31.7658 114.163H151.093C151.363 114.163 151.622 114.273 151.812 114.468C152.003 114.663 152.111 114.928 152.111 115.204V174.535C152.111 174.811 152.003 175.076 151.812 175.271C151.622 175.466 151.363 175.576 151.093 175.576ZM31.7658 115.204V174.535H151.094L151.093 115.204H31.7658Z" fill="#3F3D56"/>
<path d="M37.1086 124.051C37.9517 124.051 38.6352 123.352 38.6352 122.49C38.6352 121.628 37.9517 120.929 37.1086 120.929C36.2655 120.929 35.582 121.628 35.582 122.49C35.582 123.352 36.2655 124.051 37.1086 124.051Z" fill="#3F3D56"/>
<path d="M42.4524 124.051C43.2955 124.051 43.9789 123.352 43.9789 122.49C43.9789 121.628 43.2955 120.929 42.4524 120.929C41.6093 120.929 40.9258 121.628 40.9258 122.49C40.9258 123.352 41.6093 124.051 42.4524 124.051Z" fill="#3F3D56"/>
<path d="M47.7951 124.051C48.6382 124.051 49.3217 123.352 49.3217 122.49C49.3217 121.628 48.6382 120.929 47.7951 120.929C46.952 120.929 46.2686 121.628 46.2686 122.49C46.2686 123.352 46.952 124.051 47.7951 124.051Z" fill="#3F3D56"/>
<path d="M102.752 150.074H68.4039C68.2015 150.074 68.0075 149.991 67.8644 149.845C67.7213 149.699 67.6408 149.5 67.6406 149.293V140.446C67.6408 140.239 67.7213 140.04 67.8644 139.894C68.0075 139.748 68.2015 139.665 68.4039 139.665H102.752C102.954 139.665 103.148 139.748 103.291 139.894C103.434 140.04 103.515 140.239 103.515 140.446V149.293C103.515 149.5 103.434 149.699 103.291 149.845C103.148 149.991 102.954 150.074 102.752 150.074ZM68.4039 140.185C68.3365 140.185 68.2718 140.213 68.2241 140.262C68.1764 140.311 68.1496 140.377 68.1495 140.446V149.293C68.1496 149.362 68.1764 149.428 68.2241 149.477C68.2718 149.526 68.3365 149.554 68.4039 149.554H102.752C102.819 149.554 102.884 149.526 102.932 149.477C102.979 149.428 103.006 149.362 103.006 149.293V140.446C103.006 140.377 102.979 140.311 102.932 140.262C102.884 140.213 102.819 140.185 102.752 140.185H68.4039Z" fill="#3F3D56"/>
<path d="M111.402 150.334C113.931 150.334 115.982 148.237 115.982 145.65C115.982 143.063 113.931 140.966 111.402 140.966C108.873 140.966 106.822 143.063 106.822 145.65C106.822 148.237 108.873 150.334 111.402 150.334Z" fill="#6C63FF"/>
<path d="M112.929 149.814C111.973 149.814 111.038 149.524 110.243 148.981C109.448 148.437 108.829 147.665 108.463 146.762C108.097 145.858 108.001 144.864 108.188 143.905C108.374 142.946 108.835 142.065 109.511 141.373C110.187 140.682 111.048 140.211 111.986 140.02C112.924 139.829 113.896 139.927 114.779 140.302C115.662 140.676 116.417 141.309 116.948 142.123C117.48 142.936 117.763 143.892 117.763 144.869C117.762 146.18 117.252 147.437 116.346 148.364C115.439 149.291 114.211 149.812 112.929 149.814ZM112.929 140.446C112.073 140.446 111.237 140.705 110.526 141.191C109.815 141.677 109.26 142.368 108.933 143.177C108.605 143.985 108.52 144.874 108.687 145.733C108.854 146.591 109.266 147.379 109.87 147.998C110.475 148.616 111.246 149.038 112.085 149.208C112.924 149.379 113.794 149.291 114.584 148.957C115.374 148.622 116.05 148.055 116.525 147.327C117.001 146.6 117.254 145.744 117.254 144.869C117.253 143.697 116.797 142.572 115.986 141.743C115.175 140.913 114.076 140.447 112.929 140.446Z" fill="#3F3D56"/>
<path d="M112.996 146.716L110.533 144.197L111.253 143.461L112.86 145.105L117.347 138.585L118.179 139.184L112.996 146.716Z" fill="#3F3D56"/>
<path opacity="0.1" d="M110.361 81.7986H10.3271V13.2577L110.361 81.7986Z" fill="black"/>
<path d="M147.301 80.4493H134.758V79.5249C134.758 79.5009 134.753 79.477 134.744 79.4548C134.735 79.4325 134.722 79.4123 134.705 79.3953C134.688 79.3783 134.669 79.3648 134.647 79.3556C134.625 79.3464 134.602 79.3416 134.578 79.3416H130.278C130.254 79.3416 130.231 79.3464 130.209 79.3556C130.187 79.3648 130.168 79.3783 130.151 79.3953C130.134 79.4123 130.121 79.4325 130.112 79.4548C130.103 79.477 130.098 79.5009 130.098 79.5249V80.4493H127.41V79.5249C127.41 79.5009 127.406 79.477 127.397 79.4548C127.388 79.4325 127.375 79.4123 127.358 79.3953C127.341 79.3783 127.322 79.3648 127.3 79.3556C127.278 79.3464 127.255 79.3416 127.231 79.3416H122.93C122.907 79.3416 122.884 79.3464 122.862 79.3556C122.84 79.3648 122.82 79.3783 122.804 79.3953C122.787 79.4123 122.774 79.4325 122.765 79.4548C122.756 79.477 122.751 79.5009 122.751 79.5249V80.4493H120.063V79.5249C120.063 79.5009 120.059 79.477 120.05 79.4548C120.041 79.4325 120.027 79.4123 120.011 79.3953C119.994 79.3783 119.974 79.3648 119.953 79.3556C119.931 79.3464 119.908 79.3416 119.884 79.3416H115.583C115.56 79.3416 115.536 79.3464 115.515 79.3556C115.493 79.3648 115.473 79.3783 115.457 79.3953C115.44 79.4123 115.427 79.4325 115.418 79.4548C115.409 79.477 115.404 79.5009 115.404 79.5249V80.4493H112.716V79.5249C112.716 79.5009 112.711 79.477 112.702 79.4548C112.693 79.4325 112.68 79.4123 112.664 79.3953C112.647 79.3783 112.627 79.3648 112.605 79.3556C112.584 79.3464 112.56 79.3416 112.537 79.3416H108.236C108.213 79.3416 108.189 79.3464 108.168 79.3556C108.146 79.3648 108.126 79.3783 108.109 79.3953C108.093 79.4123 108.08 79.4325 108.071 79.4548C108.062 79.477 108.057 79.5009 108.057 79.5249V80.4493H105.369V79.5249C105.369 79.5009 105.364 79.477 105.355 79.4548C105.346 79.4325 105.333 79.4123 105.316 79.3953C105.3 79.3783 105.28 79.3648 105.258 79.3556C105.237 79.3464 105.213 79.3416 105.19 79.3416H100.889C100.865 79.3416 100.842 79.3464 100.82 79.3556C100.799 79.3648 100.779 79.3783 100.762 79.3953C100.746 79.4123 100.732 79.4325 100.723 79.4548C100.714 79.477 100.71 79.5009 100.71 79.5249V80.4493H98.0218V79.5249C98.0218 79.5009 98.0172 79.477 98.0081 79.4548C97.9991 79.4325 97.9859 79.4123 97.9693 79.3953C97.9527 79.3783 97.9329 79.3648 97.9112 79.3556C97.8894 79.3464 97.8661 79.3416 97.8426 79.3416H93.5418C93.5183 79.3416 93.495 79.3464 93.4732 79.3556C93.4515 79.3648 93.4317 79.3783 93.4151 79.3953C93.3985 79.4123 93.3853 79.4325 93.3763 79.4548C93.3672 79.477 93.3626 79.5009 93.3626 79.5249V80.4493H90.6746V79.5249C90.6746 79.5009 90.67 79.477 90.661 79.4548C90.652 79.4325 90.6388 79.4123 90.6222 79.3953C90.6055 79.3783 90.5858 79.3648 90.564 79.3556C90.5423 79.3464 90.519 79.3416 90.4954 79.3416H56.806C56.7825 79.3416 56.7592 79.3464 56.7375 79.3556C56.7157 79.3648 56.696 79.3783 56.6793 79.3953C56.6627 79.4123 56.6495 79.4325 56.6405 79.4548C56.6315 79.477 56.6268 79.5009 56.6268 79.5249V80.4493H53.9389V79.5249C53.9389 79.5009 53.9342 79.477 53.9252 79.4548C53.9162 79.4325 53.903 79.4123 53.8864 79.3953C53.8697 79.3783 53.85 79.3648 53.8282 79.3556C53.8065 79.3464 53.7832 79.3416 53.7597 79.3416H49.4589C49.4354 79.3416 49.4121 79.3464 49.3903 79.3556C49.3686 79.3648 49.3488 79.3783 49.3322 79.3953C49.3155 79.4123 49.3023 79.4325 49.2933 79.4548C49.2843 79.477 49.2797 79.5009 49.2797 79.5249V80.4493H46.5917V79.5249C46.5917 79.5009 46.5871 79.477 46.5781 79.4548C46.5691 79.4325 46.5559 79.4123 46.5392 79.3953C46.5226 79.3783 46.5028 79.3648 46.4811 79.3556C46.4593 79.3464 46.436 79.3416 46.4125 79.3416H42.1117C42.0882 79.3416 42.0649 79.3464 42.0432 79.3556C42.0214 79.3648 42.0017 79.3783 41.985 79.3953C41.9684 79.4123 41.9552 79.4325 41.9462 79.4548C41.9372 79.477 41.9325 79.5009 41.9325 79.5249V80.4493H39.2446V79.5249C39.2446 79.5009 39.2399 79.477 39.2309 79.4548C39.2219 79.4325 39.2087 79.4123 39.1921 79.3953C39.1754 79.3783 39.1557 79.3648 39.1339 79.3556C39.1122 79.3464 39.0889 79.3416 39.0654 79.3416H34.7646C34.7411 79.3416 34.7178 79.3464 34.696 79.3556C34.6743 79.3648 34.6545 79.3783 34.6379 79.3953C34.6212 79.4123 34.608 79.4325 34.599 79.4548C34.59 79.477 34.5854 79.5009 34.5854 79.5249V80.4493H31.8974V79.5249C31.8974 79.5009 31.8928 79.477 31.8838 79.4548C31.8748 79.4325 31.8616 79.4123 31.8449 79.3953C31.8283 79.3783 31.8085 79.3648 31.7868 79.3556C31.765 79.3464 31.7417 79.3416 31.7182 79.3416H27.4174C27.3939 79.3416 27.3706 79.3464 27.3488 79.3556C27.3271 79.3648 27.3073 79.3783 27.2907 79.3953C27.2741 79.4123 27.2609 79.4325 27.2519 79.4548C27.2429 79.477 27.2382 79.5009 27.2382 79.5249V80.4493H24.5503V79.5249C24.5503 79.5009 24.5456 79.477 24.5366 79.4548C24.5276 79.4325 24.5144 79.4123 24.4978 79.3953C24.4811 79.3783 24.4614 79.3648 24.4396 79.3556C24.4179 79.3464 24.3946 79.3416 24.3711 79.3416H20.0703C20.0467 79.3416 20.0234 79.3464 20.0017 79.3556C19.98 79.3648 19.9602 79.3783 19.9436 79.3953C19.9269 79.4123 19.9137 79.4325 19.9047 79.4548C19.8957 79.477 19.8911 79.5009 19.8911 79.5249V80.4493H17.2031V79.5249C17.2031 79.5009 17.1985 79.477 17.1894 79.4548C17.1804 79.4325 17.1672 79.4123 17.1506 79.3953C17.134 79.3783 17.1142 79.3648 17.0925 79.3556C17.0707 79.3464 17.0474 79.3416 17.0239 79.3416H12.7231C12.6996 79.3416 12.6763 79.3464 12.6545 79.3556C12.6328 79.3648 12.613 79.3783 12.5964 79.3953C12.5798 79.4123 12.5666 79.4325 12.5576 79.4548C12.5486 79.477 12.5439 79.5009 12.5439 79.5249V80.4493H4.30077C3.73599 80.4493 3.17673 80.5631 2.65494 80.7841C2.13314 81.0052 1.65903 81.3292 1.25967 81.7377C0.860302 82.1461 0.54351 82.631 0.327376 83.1647C0.111242 83.6984 -3.34121e-07 84.2704 0 84.8481V86.8371C2.69915e-06 88.0037 0.45312 89.1225 1.25967 89.9475C2.06622 90.7724 3.16014 91.2358 4.30077 91.2358H147.301C147.866 91.2358 148.426 91.1221 148.947 90.901C149.469 90.6799 149.943 90.3559 150.343 89.9475C150.742 89.539 151.059 89.0541 151.275 88.5204C151.491 87.9867 151.602 87.4147 151.602 86.8371V84.8481C151.602 84.2704 151.491 83.6984 151.275 83.1647C151.059 82.631 150.742 82.1461 150.343 81.7377C149.943 81.3292 149.469 81.0052 148.947 80.7841C148.426 80.5631 147.866 80.4493 147.301 80.4493Z" fill="#3F3D56"/>
<path d="M108.095 56.6529H40.9254C40.723 56.6527 40.529 56.5704 40.3859 56.424C40.2428 56.2777 40.1623 56.0792 40.1621 55.8723V27.2474C40.1623 27.0404 40.2428 26.842 40.3859 26.6956C40.529 26.5493 40.723 26.467 40.9254 26.4667H108.095C108.297 26.467 108.491 26.5493 108.634 26.6956C108.777 26.842 108.858 27.0404 108.858 27.2474V55.8723C108.858 56.0792 108.777 56.2777 108.634 56.424C108.491 56.5704 108.297 56.6527 108.095 56.6529ZM40.9254 26.9872C40.8579 26.9873 40.7933 27.0147 40.7456 27.0635C40.6979 27.1123 40.6711 27.1784 40.671 27.2474V55.8723C40.6711 55.9413 40.6979 56.0074 40.7456 56.0562C40.7933 56.105 40.8579 56.1324 40.9254 56.1325H108.095C108.162 56.1324 108.227 56.105 108.275 56.0562C108.322 56.0074 108.349 55.9413 108.349 55.8723V27.2474C108.349 27.1784 108.322 27.1123 108.275 27.0635C108.227 27.0147 108.162 26.9873 108.095 26.9872H40.9254Z" fill="#3F3D56"/>
<path d="M48.5586 43.1212H45.5055C45.3031 43.121 45.1091 43.0387 44.966 42.8923C44.8229 42.7459 44.7424 42.5475 44.7422 42.3405V39.2178C44.7424 39.0108 44.8229 38.8124 44.966 38.666C45.1091 38.5197 45.3031 38.4374 45.5055 38.4371H48.5586C48.761 38.4374 48.955 38.5197 49.0981 38.666C49.2412 38.8124 49.3217 39.0108 49.3219 39.2178V42.3405C49.3217 42.5475 49.2412 42.7459 49.0981 42.8923C48.955 43.0387 48.761 43.121 48.5586 43.1212ZM45.5055 38.9576C45.438 38.9577 45.3734 38.9851 45.3257 39.0339C45.278 39.0827 45.2511 39.1488 45.251 39.2178V42.3405C45.2511 42.4095 45.278 42.4756 45.3257 42.5244C45.3734 42.5732 45.438 42.6007 45.5055 42.6007H48.5586C48.6261 42.6007 48.6908 42.5732 48.7385 42.5244C48.7862 42.4756 48.813 42.4095 48.8131 42.3405V39.2178C48.813 39.1488 48.7862 39.0827 48.7385 39.0339C48.6908 38.9851 48.6261 38.9577 48.5586 38.9576H45.5055Z" fill="#3F3D56"/>
<path d="M103.006 42.6007H44.9961V43.1212H103.006V42.6007Z" fill="#3F3D56"/>
<path d="M253.882 70.1847H67.3857V70.7051H253.882V70.1847Z" fill="#3F3D56"/>
<path d="M67.3862 73.8278C69.3535 73.8278 70.9482 72.1967 70.9482 70.1847C70.9482 68.1726 69.3535 66.5415 67.3862 66.5415C65.419 66.5415 63.8242 68.1726 63.8242 70.1847C63.8242 72.1967 65.419 73.8278 67.3862 73.8278Z" fill="#3F3D56"/>
<path d="M253.883 73.5676C255.428 73.5676 256.681 72.286 256.681 70.7051C256.681 69.1242 255.428 67.8427 253.883 67.8427C252.337 67.8427 251.084 69.1242 251.084 70.7051C251.084 72.286 252.337 73.5676 253.883 73.5676Z" fill="#3F3D56"/>
<path d="M267.622 131.078C269.168 131.078 270.421 129.796 270.421 128.215C270.421 126.634 269.168 125.353 267.622 125.353C266.076 125.353 264.823 126.634 264.823 128.215C264.823 129.796 266.076 131.078 267.622 131.078Z" fill="#3F3D56"/>
<path d="M81.8886 131.078C83.4343 131.078 84.6873 129.796 84.6873 128.215C84.6873 126.634 83.4343 125.353 81.8886 125.353C80.3429 125.353 79.0898 126.634 79.0898 128.215C79.0898 129.796 80.3429 131.078 81.8886 131.078Z" fill="#3F3D56"/>
</g>
<defs>
<clipPath id="clip0_854_10230">
<rect width="280" height="180" fill="white"/>
</clipPath>
</defs>
</svg>
