<svg width="320" height="234" viewBox="0 0 320 234" fill="none" xmlns="http://www.w3.org/2000/svg">
<path d="M203.92 175.423V231.83H63.8345C47.8736 231.83 34.8877 219.178 34.8877 203.627C34.8877 188.075 47.8736 175.423 63.8345 175.423H203.92Z" fill="#F2F2F2"/>
<path d="M207.361 231.397C207.361 231.972 207.134 232.524 206.731 232.93C206.327 233.337 205.781 233.566 205.21 233.566H61.3393C53.5254 233.566 46.0315 230.435 40.5063 224.861C34.981 219.287 31.877 211.726 31.877 203.843C31.877 195.961 34.981 188.4 40.5063 182.826C46.0315 177.252 53.5254 174.121 61.3393 174.121H205.21C205.781 174.121 206.328 174.349 206.731 174.756C207.134 175.163 207.361 175.715 207.361 176.29C207.361 176.866 207.134 177.418 206.731 177.824C206.328 178.231 205.781 178.46 205.21 178.46H61.3393C54.6661 178.46 48.2663 181.134 43.5476 185.895C38.8289 190.655 36.178 197.111 36.178 203.843C36.178 210.576 38.8289 217.032 43.5476 221.792C48.2663 226.553 54.6661 229.227 61.3393 229.227H205.21C205.781 229.227 206.327 229.456 206.731 229.863C207.134 230.27 207.361 230.821 207.361 231.397Z" fill="#6C63FF"/>
<path d="M203.92 188.44H53.3823C53.2682 188.44 53.1588 188.394 53.0781 188.313C52.9975 188.231 52.9521 188.121 52.9521 188.006C52.9521 187.891 52.9975 187.78 53.0781 187.699C53.1588 187.618 53.2682 187.572 53.3823 187.572H203.92C204.034 187.572 204.143 187.618 204.224 187.699C204.305 187.78 204.35 187.891 204.35 188.006C204.35 188.121 204.305 188.231 204.224 188.313C204.143 188.394 204.034 188.44 203.92 188.44Z" fill="#CCCCCC"/>
<path d="M203.92 198.854H53.3823C53.2682 198.854 53.1588 198.808 53.0781 198.726C52.9975 198.645 52.9521 198.535 52.9521 198.42C52.9521 198.305 52.9975 198.194 53.0781 198.113C53.1588 198.031 53.2682 197.986 53.3823 197.986H203.92C204.034 197.986 204.143 198.031 204.224 198.113C204.305 198.194 204.35 198.305 204.35 198.42C204.35 198.535 204.305 198.645 204.224 198.726C204.143 198.808 204.034 198.854 203.92 198.854Z" fill="#CCCCCC"/>
<path d="M203.92 209.267H53.3823C53.2682 209.267 53.1588 209.222 53.0781 209.14C52.9975 209.059 52.9521 208.949 52.9521 208.833C52.9521 208.718 52.9975 208.608 53.0781 208.527C53.1588 208.445 53.2682 208.4 53.3823 208.4H203.92C204.034 208.4 204.143 208.445 204.224 208.527C204.305 208.608 204.35 208.718 204.35 208.833C204.35 208.949 204.305 209.059 204.224 209.14C204.143 209.222 204.034 209.267 203.92 209.267Z" fill="#CCCCCC"/>
<path d="M203.92 219.681H53.3823C53.2682 219.681 53.1588 219.635 53.0781 219.554C52.9975 219.473 52.9521 219.362 52.9521 219.247C52.9521 219.132 52.9975 219.022 53.0781 218.94C53.1588 218.859 53.2682 218.813 53.3823 218.813H203.92C204.034 218.813 204.143 218.859 204.224 218.94C204.305 219.022 204.35 219.132 204.35 219.247C204.35 219.362 204.305 219.473 204.224 219.554C204.143 219.635 204.034 219.681 203.92 219.681Z" fill="#CCCCCC"/>
<path d="M312.186 186.041L277.104 229.964L168.023 141.295C155.594 131.193 153.351 113.121 163.023 101.011C172.695 88.9017 190.676 87.269 203.104 97.3716L312.186 186.041Z" fill="#F2F2F2"/>
<path d="M280.053 231.804C279.695 232.252 279.175 232.538 278.608 232.6C278.041 232.661 277.473 232.493 277.029 232.133L165 141.067C158.915 136.122 155.027 128.94 154.192 121.102C153.356 113.264 155.641 105.413 160.543 99.2745C165.446 93.1362 172.565 89.214 180.334 88.3709C188.103 87.5278 195.886 89.8327 201.97 94.7786L314 185.844C314.22 186.022 314.403 186.243 314.538 186.493C314.674 186.743 314.759 187.018 314.79 187.301C314.82 187.585 314.795 187.871 314.715 188.145C314.635 188.418 314.503 188.673 314.326 188.895C314.149 189.117 313.93 189.302 313.682 189.438C313.434 189.575 313.162 189.661 312.881 189.691C312.6 189.721 312.316 189.696 312.045 189.615C311.774 189.535 311.521 189.401 311.301 189.222L199.272 98.1574C196.699 96.0644 193.743 94.5032 190.572 93.5631C187.401 92.623 184.077 92.3223 180.791 92.6783C177.505 93.0343 174.32 94.0399 171.42 95.6377C168.519 97.2356 165.958 99.3943 163.885 101.991C161.811 104.587 160.265 107.57 159.334 110.769C158.403 113.969 158.107 117.322 158.461 120.637C158.815 123.952 159.813 127.164 161.398 130.09C162.983 133.016 165.124 135.598 167.698 137.689L279.728 228.754C280.172 229.115 280.455 229.639 280.516 230.211C280.577 230.783 280.411 231.356 280.053 231.804Z" fill="#CCCCCC"/>
<path d="M304.09 196.177L186.869 100.892C186.825 100.856 186.789 100.812 186.762 100.762C186.735 100.712 186.717 100.657 186.711 100.601C186.705 100.544 186.711 100.487 186.726 100.432C186.742 100.377 186.769 100.326 186.804 100.282C186.84 100.238 186.883 100.201 186.933 100.173C186.983 100.146 187.037 100.129 187.093 100.123C187.149 100.117 187.206 100.122 187.26 100.138C187.314 100.154 187.365 100.181 187.409 100.216L304.63 195.501C304.674 195.537 304.71 195.581 304.738 195.631C304.765 195.681 304.782 195.736 304.788 195.793C304.794 195.849 304.789 195.907 304.773 195.962C304.757 196.016 304.731 196.067 304.695 196.112C304.66 196.156 304.616 196.193 304.566 196.22C304.517 196.248 304.462 196.265 304.406 196.271C304.35 196.277 304.293 196.272 304.239 196.256C304.184 196.24 304.134 196.213 304.09 196.177V196.177Z" fill="#CCCCCC"/>
<path d="M297.613 204.286L180.392 109.001C180.304 108.929 180.247 108.824 180.235 108.71C180.223 108.595 180.256 108.481 180.328 108.391C180.399 108.302 180.503 108.245 180.616 108.232C180.73 108.22 180.843 108.253 180.932 108.325L298.153 203.61C298.197 203.646 298.233 203.69 298.261 203.74C298.288 203.79 298.305 203.845 298.311 203.902C298.317 203.958 298.312 204.016 298.296 204.07C298.28 204.125 298.254 204.176 298.218 204.221C298.183 204.265 298.139 204.302 298.089 204.329C298.04 204.357 297.985 204.374 297.929 204.38C297.873 204.386 297.816 204.381 297.762 204.365C297.707 204.348 297.657 204.322 297.613 204.286Z" fill="#CCCCCC"/>
<path d="M291.137 212.395L173.916 117.11C173.827 117.038 173.771 116.933 173.758 116.819C173.746 116.704 173.779 116.59 173.851 116.5C173.923 116.41 174.027 116.353 174.14 116.341C174.253 116.328 174.367 116.362 174.456 116.434L291.677 211.719C291.72 211.755 291.757 211.799 291.784 211.849C291.811 211.899 291.828 211.954 291.834 212.011C291.84 212.067 291.835 212.125 291.819 212.179C291.803 212.234 291.777 212.285 291.742 212.329C291.706 212.374 291.662 212.411 291.613 212.438C291.563 212.465 291.509 212.482 291.453 212.488C291.396 212.495 291.34 212.489 291.285 212.473C291.231 212.457 291.181 212.431 291.137 212.395V212.395Z" fill="#CCCCCC"/>
<path d="M284.66 220.504L167.44 125.219C167.396 125.183 167.359 125.139 167.332 125.089C167.305 125.039 167.288 124.984 167.282 124.928C167.276 124.871 167.281 124.814 167.297 124.759C167.313 124.704 167.339 124.653 167.375 124.609C167.41 124.565 167.454 124.528 167.503 124.5C167.553 124.473 167.607 124.456 167.663 124.45C167.72 124.444 167.776 124.449 167.831 124.465C167.885 124.481 167.935 124.508 167.979 124.543L285.2 219.828C285.244 219.864 285.281 219.908 285.308 219.958C285.335 220.008 285.352 220.063 285.358 220.12C285.364 220.176 285.359 220.234 285.343 220.288C285.327 220.343 285.301 220.394 285.265 220.439C285.23 220.483 285.186 220.52 285.137 220.547C285.087 220.575 285.032 220.592 284.976 220.598C284.92 220.604 284.863 220.599 284.809 220.583C284.755 220.566 284.704 220.54 284.66 220.504Z" fill="#CCCCCC"/>
<path d="M319.57 234H0.430108C0.316036 234 0.206636 233.954 0.125975 233.873C0.0453144 233.792 0 233.681 0 233.566C0 233.451 0.0453144 233.341 0.125975 233.259C0.206636 233.178 0.316036 233.132 0.430108 233.132H319.57C319.684 233.132 319.793 233.178 319.874 233.259C319.955 233.341 320 233.451 320 233.566C320 233.681 319.955 233.792 319.874 233.873C319.793 233.954 319.684 234 319.57 234Z" fill="#CCCCCC"/>
<path d="M145.411 169.494L140.494 169.493L138.155 150.36L145.412 150.36L145.411 169.494Z" fill="#FFB8B8"/>
<path d="M136.981 168.076H146.464V174.099H131.011C131.011 173.308 131.165 172.525 131.465 171.794C131.765 171.064 132.205 170.399 132.76 169.84C133.314 169.281 133.972 168.837 134.697 168.534C135.421 168.232 136.197 168.076 136.981 168.076Z" fill="#2F2E41"/>
<path d="M95.1764 169.494L90.2594 169.493L87.9209 150.36L95.1781 150.36L95.1764 169.494Z" fill="#FFB8B8"/>
<path d="M86.7471 168.076H96.23V174.099H80.7764C80.7764 173.308 80.9308 172.525 81.2309 171.794C81.5309 171.064 81.9707 170.399 82.5251 169.84C83.0796 169.281 83.7378 168.837 84.4622 168.534C85.1866 168.232 85.963 168.076 86.7471 168.076Z" fill="#2F2E41"/>
<path d="M111.601 27.5674V25.3979C111.601 21.6866 113.062 18.1273 115.663 15.503C118.265 12.8787 121.793 11.4044 125.472 11.4044H125.472C129.15 11.4044 132.679 12.8787 135.28 15.503C137.881 18.1273 139.343 21.6866 139.343 25.3979V27.5674C139.343 30.243 138.289 32.809 136.414 34.701C134.538 36.5929 131.995 37.6558 129.343 37.6558H121.601C120.287 37.6558 118.987 37.3948 117.774 36.8878C116.561 36.3809 115.458 35.6378 114.53 34.701C113.601 33.7642 112.864 32.652 112.362 31.4281C111.859 30.2041 111.601 28.8922 111.601 27.5674Z" fill="#2F2E41"/>
<path d="M125.471 38.4023C131.305 38.4023 136.035 33.6309 136.035 27.7451C136.035 21.8593 131.305 17.0879 125.471 17.0879C119.637 17.0879 114.907 21.8593 114.907 27.7451C114.907 33.6309 119.637 38.4023 125.471 38.4023Z" fill="#FFB8B8"/>
<path d="M68.0108 64.3725C68.4395 63.9642 68.9518 63.6556 69.5115 63.4685C70.0712 63.2815 70.6647 63.2205 71.2503 63.2899C71.8359 63.3593 72.3993 63.5573 72.9008 63.8701C73.4023 64.183 73.8297 64.6029 74.1529 65.1004L83.2087 63.3723L85.5918 68.6679L72.7694 70.9271C71.905 71.4195 70.8916 71.5749 69.9212 71.3639C68.9508 71.1528 68.0908 70.59 67.5043 69.7821C66.9177 68.9741 66.6453 67.9772 66.7387 66.9802C66.8321 65.9832 67.2847 65.0553 68.0108 64.3725V64.3725Z" fill="#FFB8B8"/>
<path d="M117.235 45.1138L117.354 45.2949L102.504 55.1638L77.4466 63.2359C77.1144 63.3436 76.8296 63.5641 76.6404 63.8598C76.4513 64.1556 76.3695 64.5083 76.4092 64.858L76.9558 69.6078C76.9801 69.818 77.0476 70.0208 77.1541 70.2032C77.2605 70.3855 77.4036 70.5434 77.5741 70.6667C77.7446 70.79 77.9387 70.876 78.1441 70.9192C78.3495 70.9624 78.5615 70.9619 78.7667 70.9175L102.349 65.8179C103.491 65.5726 104.57 65.0932 105.52 64.4097L122.203 52.4352C122.808 51.9987 123.29 51.4118 123.604 50.7315C123.917 50.0512 124.051 49.3006 123.991 48.5528C123.93 47.804 123.677 47.0841 123.256 46.464C122.836 45.844 122.262 45.345 121.593 45.0163C120.923 44.6876 120.18 44.5404 119.437 44.5892C118.693 44.6381 117.976 44.8813 117.354 45.2949L117.235 45.1138Z" fill="#CCCCCC"/>
<path d="M140.582 164.064C140.204 164.064 139.835 163.953 139.519 163.745C139.203 163.537 138.954 163.241 138.802 162.892L116.26 106.701C116.207 106.579 116.119 106.476 116.007 106.406C115.895 106.337 115.764 106.303 115.632 106.311C115.501 106.318 115.375 106.366 115.271 106.448C115.167 106.53 115.091 106.642 115.052 106.769L96.6614 161.474C96.5838 161.728 96.4553 161.964 96.284 162.167C96.1127 162.369 95.9021 162.534 95.6651 162.652C95.4282 162.769 95.1699 162.837 94.9062 162.85C94.6425 162.863 94.3789 162.821 94.1317 162.728L87.9646 160.395C87.6299 160.269 87.3362 160.053 87.1163 159.769C86.8963 159.485 86.7587 159.145 86.7186 158.787C83.9442 134.405 108.138 72.8609 108.383 72.2423L108.451 72.0709L130.505 76.9926L130.551 77.043C139.35 86.7269 146.583 147.805 147.943 159.951C147.994 160.39 147.895 160.833 147.663 161.207C147.43 161.582 147.079 161.865 146.665 162.011L141.222 163.953C141.016 164.026 140.8 164.064 140.582 164.064Z" fill="#2F2E41"/>
<path d="M121.579 78.9735C116.236 78.9735 110.278 77.8988 108.445 73.4626L108.402 73.3607L108.459 73.2662C109.907 70.8704 111.82 66.7835 110.792 66.0163C108.766 64.5055 107.783 62.02 107.871 58.6289C108.06 51.2673 113.032 44.7313 120.243 42.365H120.243C122.256 41.7151 124.304 41.1831 126.378 40.7715C127.889 40.4638 129.45 40.4976 130.947 40.8706C132.444 41.2436 133.841 41.9465 135.037 42.9287C136.248 43.9175 137.227 45.1645 137.903 46.5802C138.58 47.9959 138.937 49.5453 138.949 51.1168C139.025 58.9839 137.824 69.9412 131.675 77.4638C131.387 77.8128 130.986 78.0481 130.543 78.1282C127.584 78.668 124.585 78.9508 121.579 78.9735Z" fill="#CCCCCC"/>
<path d="M119.592 78.679C119.882 77.6266 120.573 76.7326 121.514 76.1911C122.454 75.6496 123.569 75.5045 124.615 75.7873C124.828 75.8475 125.036 75.9254 125.237 76.02L132.113 69.7072L136.895 72.9572L127.062 81.7356C126.618 82.5432 125.919 83.1778 125.076 83.5385C124.234 83.8991 123.296 83.965 122.411 83.7258C121.896 83.5835 121.414 83.3397 120.993 83.0085C120.572 82.6772 120.22 82.265 119.958 81.7957C119.696 81.3264 119.529 80.8093 119.466 80.2743C119.403 79.7394 119.446 79.1971 119.592 78.679Z" fill="#FFB8B8"/>
<path d="M131.024 78.7591C130.578 78.7594 130.145 78.6038 129.8 78.3187L127.089 76.0832C126.863 75.8969 126.681 75.6614 126.558 75.3943C126.435 75.1273 126.374 74.8356 126.378 74.5411C126.383 74.2467 126.453 73.9571 126.584 73.694C126.715 73.4309 126.904 73.2012 127.136 73.022L138.508 64.2224C138.643 64.1176 138.732 63.9634 138.754 63.7932C138.777 63.6231 138.733 63.4507 138.63 63.3135L131.611 53.9514C130.795 52.8674 130.386 51.5272 130.456 50.168C130.526 48.8089 131.07 47.5186 131.992 46.5254C132.964 45.4671 134.294 44.8158 135.719 44.7008C137.144 44.5858 138.56 45.0155 139.686 45.9047L139.73 45.9519L147.06 56.5403C147.853 57.1672 148.491 57.9705 148.925 58.8875C149.359 59.8044 149.577 60.8102 149.562 61.8262C149.547 62.8421 149.3 63.8409 148.839 64.7444C148.378 65.6479 147.716 66.4317 146.905 67.0345L132.176 78.3763C131.843 78.625 131.439 78.7591 131.024 78.7591Z" fill="#CCCCCC"/>
<path d="M116.114 24.747V19.4594L125.472 15.3373L134.394 19.4594V24.747C134.394 24.9772 134.303 25.1979 134.142 25.3607C133.981 25.5234 133.762 25.6149 133.534 25.6149H116.974C116.746 25.6149 116.528 25.5234 116.366 25.3607C116.205 25.1979 116.114 24.9772 116.114 24.747Z" fill="#2F2E41"/>
<path d="M125.041 12.1059C123.666 7.66334 126.555 2.57195 130.827 0.813468C135.098 -0.945014 140.209 0.284219 143.813 3.1895C147.418 6.09477 149.654 10.4463 150.839 14.9445C152.024 19.4428 152.249 24.1333 152.467 28.7824C157.716 29.755 161.286 36.0349 159.468 41.096C157.65 46.1571 150.92 48.6715 146.273 46.0262C141.626 43.3809 140.28 36.2699 143.634 32.0831C145.221 30.102 146.107 27.6434 146.153 25.0966C146.199 22.5498 145.401 20.0605 143.885 18.0228C142.37 15.9852 140.225 14.5158 137.788 13.8473C135.352 13.1787 132.764 13.3494 130.435 14.3321C127.848 15.4234 124.603 12.5881 125.041 12.1059Z" fill="#2F2E41"/>
<path d="M66.0707 43.8606C59.7871 43.819 53.582 42.4479 47.8564 39.8361C47.5156 39.6829 47.2263 39.4329 47.0238 39.1168C46.8213 38.8006 46.7143 38.4318 46.7158 38.0554V22.2534C46.7164 21.7357 46.9205 21.2394 47.2834 20.8733C47.6462 20.5073 48.1382 20.3014 48.6513 20.3008H83.49C84.0031 20.3014 84.4951 20.5073 84.858 20.8733C85.2208 21.2394 85.4249 21.7357 85.4255 22.2534V38.0554C85.427 38.4318 85.32 38.8006 85.1175 39.1168C84.915 39.433 84.6257 39.6829 84.2849 39.8361C78.5593 42.448 72.3542 43.819 66.0707 43.8606Z" fill="#6C63FF"/>
<path d="M66.0658 31.059C65.8075 31.0592 65.5518 31.0074 65.3137 30.9065L37.687 19.1478C37.3307 18.9961 37.0277 18.7403 36.8168 18.4133C36.606 18.0863 36.4971 17.7031 36.5042 17.3131C36.5113 16.9231 36.6341 16.5441 36.8566 16.2251C37.0792 15.9061 37.3913 15.6617 37.7529 15.5233L65.3799 4.95C65.8248 4.77892 66.3168 4.77997 66.7611 4.95296L94.0179 15.5263C94.3774 15.6657 94.6874 15.9102 94.9084 16.2285C95.1294 16.5467 95.2512 16.9242 95.2583 17.3127C95.2654 17.7012 95.1575 18.083 94.9483 18.4092C94.7392 18.7355 94.4383 18.9914 94.0841 19.1441L66.827 30.9027C66.5863 31.0061 66.3274 31.0593 66.0658 31.059Z" fill="#6C63FF"/>
<path d="M49.942 40.9114C51.3672 40.9114 52.5226 39.7458 52.5226 38.3079C52.5226 36.8701 51.3672 35.7045 49.942 35.7045C48.5167 35.7045 47.3613 36.8701 47.3613 38.3079C47.3613 39.7458 48.5167 40.9114 49.942 40.9114Z" fill="#3F3D56"/>
<path opacity="0.2" d="M94.178 17.475L66.9208 29.2336C66.7083 29.3252 66.4796 29.3728 66.2485 29.3733C66.0174 29.3739 65.7886 29.3275 65.5756 29.2369L37.949 17.4785C37.6021 17.3343 37.3126 17.0777 37.1264 16.749C37.0046 16.9622 36.9291 17.199 36.9049 17.4437C36.8808 17.6885 36.9085 17.9357 36.9863 18.1688C37.0641 18.402 37.1902 18.6158 37.3562 18.796C37.5222 18.9762 37.7242 19.1187 37.949 19.2141L65.5756 30.9725C65.7886 31.0631 66.0174 31.1095 66.2485 31.109C66.4796 31.1084 66.7083 31.0609 66.9208 30.9692L94.178 19.2107C94.4016 19.1144 94.6025 18.9715 94.7673 18.7912C94.9321 18.6109 95.0572 18.3974 95.1342 18.1647C95.2112 17.9321 95.2384 17.6856 95.214 17.4416C95.1897 17.1975 95.1143 16.9615 94.9929 16.749C94.808 17.075 94.5215 17.3303 94.178 17.475Z" fill="black"/>
<path d="M50.1586 38.2977C50.2727 38.2977 50.3821 38.252 50.4628 38.1706C50.5434 38.0892 50.5887 37.9789 50.5887 37.8638V23.3446L64.7742 18.1312C64.8883 18.1329 64.9983 18.0888 65.0802 18.0087C65.1621 17.9285 65.209 17.8188 65.2107 17.7037C65.2124 17.5887 65.1687 17.4776 65.0893 17.395C65.0098 17.3124 64.9011 17.2651 64.787 17.2634L50.6015 22.4768C50.4874 22.4742 50.3739 22.4949 50.2679 22.5378C50.162 22.5807 50.0657 22.6449 49.9851 22.7264C49.9035 22.8069 49.8388 22.9031 49.7948 23.0093C49.7507 23.1155 49.7282 23.2295 49.7285 23.3446V37.8638C49.7285 37.9789 49.7738 38.0892 49.8545 38.1706C49.9352 38.252 50.0446 38.2977 50.1586 38.2977Z" fill="#3F3D56"/>
</svg>
