<svg width="220" height="160" viewBox="0 0 220 160" fill="none" xmlns="http://www.w3.org/2000/svg">
<g clip-path="url(#clip0_854_10527)">
<path d="M60.9091 156.473L64.8378 156.061L64.9878 141.899L59.1895 142.506L60.9091 156.473Z" fill="#FFB8B8"/>
<path d="M72.8289 158.631L60.4818 159.923L59.9404 155.526L67.5171 154.733C68.7823 154.601 70.0528 154.937 71.0489 155.668C72.0451 156.399 72.6854 157.465 72.8289 158.631V158.631H72.8289Z" fill="#2F2E41"/>
<path d="M20.5055 156.246H24.4595L26.3403 142.189L20.5049 142.19L20.5055 156.246Z" fill="#FFB8B8"/>
<path d="M32.0848 159.63L19.6584 159.63L19.6582 155.205L27.2835 155.205C28.5568 155.205 29.778 155.671 30.6785 156.501C31.5789 157.331 32.0848 158.456 32.0848 159.63Z" fill="#2F2E41"/>
<path d="M48.8735 93.3856L51.131 100.154L63.3863 124.598L66.6114 147.784L59.1937 148.081L54.6786 126.679L39.1983 111.221L25.653 151.648L19.5254 151.054C19.5254 151.054 24.6855 98.7363 31.7806 93.3856C31.7806 93.3856 43.3909 88.3322 48.8735 93.3856Z" fill="#2F2E41"/>
<path d="M38.8596 64.1811C43.2343 64.1811 46.7807 60.9123 46.7807 56.8801C46.7807 52.8479 43.2343 49.5791 38.8596 49.5791C34.4849 49.5791 30.9385 52.8479 30.9385 56.8801C30.9385 60.9123 34.4849 64.1811 38.8596 64.1811Z" fill="#FFB8B8"/>
<path d="M49.6804 94.7232C49.6804 94.7232 50.6479 64.4028 37.1026 66.4836C23.5574 68.5644 29.2012 97.8444 29.2012 97.8444C29.2012 97.8444 32.1038 103.195 39.1989 97.2499C46.2941 91.3047 49.6804 94.7232 49.6804 94.7232Z" fill="#CCCCCC"/>
<path opacity="0.2" d="M30.9746 79.2659L34.1619 90.5269L39.0179 95.003L32.2646 92.9398L30.9746 79.2659Z" fill="black"/>
<path d="M49.7802 107.546C49.3345 107.397 48.9296 107.16 48.5941 106.851C48.2586 106.543 48.0007 106.17 47.8384 105.759C47.6761 105.349 47.6135 104.91 47.655 104.475C47.6964 104.04 47.8409 103.618 48.0783 103.24L40.5449 95.2008L46.4837 94.4883L52.727 102.231C53.3901 102.641 53.867 103.261 54.0675 103.973C54.268 104.685 54.1781 105.44 53.8149 106.095C53.4517 106.75 52.8403 107.26 52.0967 107.527C51.3531 107.795 50.5288 107.802 49.7802 107.546H49.7802Z" fill="#FFB8B8"/>
<path d="M40.608 72.6594L41.4562 88.0349L51.4539 99.9253L47.2613 102.898L33.716 90.413C33.716 90.413 28.8784 75.2528 32.426 70.7939C33.7563 69.1218 35.2227 68.662 36.536 68.7404C37.6166 68.8233 38.627 69.2675 39.377 69.9893C40.127 70.7111 40.5648 71.6608 40.608 72.6594V72.6594Z" fill="#CCCCCC"/>
<path d="M37.9177 64.5514C37.9556 64.5202 37.985 64.4812 38.0036 64.4376C38.0223 64.3941 38.0296 64.3471 38.0252 64.3005C38.0207 64.2538 38.0045 64.2088 37.9778 64.1689C37.9511 64.1291 37.9148 64.0955 37.8716 64.0708C37.1682 63.6693 36.5951 63.1006 36.2125 62.4244C35.8299 61.7483 35.652 60.9896 35.6974 60.2282C35.7428 59.4667 36.0098 58.7306 36.4705 58.0971C36.9312 57.4637 37.5685 56.9563 38.3154 56.6282C40.6442 55.6048 43.7999 56.401 45.5215 54.4344C45.8716 54.0136 46.1192 53.5282 46.2473 53.0112C46.3755 52.4943 46.3812 51.958 46.2641 51.4388C45.8926 49.5813 44.3776 48.2019 42.681 47.2565C40.5968 46.0952 38.2013 45.4951 35.7661 45.5243C33.3308 45.5535 30.9531 46.2108 28.9023 47.4217C26.8516 48.6326 25.2098 50.3487 24.163 52.3755C23.1161 54.4024 22.7061 56.6589 22.9793 58.8896C23.1983 60.6773 23.7968 62.6819 22.6435 64.1334C21.6285 65.4109 19.7125 65.6504 18.0295 65.9678C14.4196 66.6486 10.9371 68.2192 8.48733 70.7561C6.03762 73.293 4.73076 76.8524 5.46936 80.1796C6.20795 83.5069 9.17108 86.431 12.813 86.9467C15.7774 87.3665 18.8383 86.2062 21.0152 84.3046C23.1921 82.4031 24.568 79.8352 25.4359 77.1891C26.4661 74.0485 26.8724 70.6642 28.7322 67.8666C30.5522 65.1289 34.4741 63.1664 37.5479 64.5922C37.6068 64.6205 37.6737 64.6318 37.7397 64.6245C37.8057 64.6172 37.8678 64.5917 37.9177 64.5514V64.5514Z" fill="#2F2E41"/>
<path d="M99.332 160H0.322507C0.236973 160 0.154937 159.969 0.0944548 159.913C0.0339731 159.857 0 159.782 0 159.703C0 159.624 0.0339731 159.548 0.0944548 159.493C0.154937 159.437 0.236973 159.406 0.322507 159.406H99.332C99.4176 159.406 99.4996 159.437 99.5601 159.493C99.6206 159.548 99.6545 159.624 99.6545 159.703C99.6545 159.782 99.6206 159.857 99.5601 159.913C99.4996 159.969 99.4176 160 99.332 160Z" fill="#3F3D56"/>
<path d="M199.351 58.7918C199.333 67.2121 195.898 75.3215 189.722 81.526C183.546 87.7304 175.076 91.581 165.976 92.3208C156.875 93.0605 147.804 90.6359 140.545 85.5235C133.287 80.4112 128.365 72.981 126.748 64.6936C125.132 56.4063 126.937 47.8613 131.809 40.7386C136.682 33.6159 144.268 28.4307 153.078 26.2024C161.888 23.9741 171.283 24.8639 179.417 28.6969C187.551 32.5299 193.835 39.0288 197.034 46.9159C197.114 47.1139 197.192 47.312 197.268 47.5119V47.5138C197.605 48.3928 197.903 49.2882 198.16 50.1999C198.953 53.0053 199.354 55.8927 199.351 58.7918V58.7918Z" fill="#3F3D56"/>
<path d="M158.484 35.8843C156.828 35.0592 154.99 34.5934 153.11 34.5225C151.229 34.4516 149.356 34.7774 147.633 35.4751C146.116 36.0837 144.519 37.1753 144.013 39.1467C146.06 38.0333 148.709 39.7924 149.236 42.6145L149.113 42.6458C148.835 44.6005 149.456 46.7286 150.658 47.9407C150.747 47.3938 150.968 46.8721 151.303 46.4135C151.639 45.955 152.081 45.571 152.597 45.2896C153.481 44.7544 154.458 44.3655 155.132 43.4455C155.932 42.3548 156.135 40.7608 156.452 39.3066C156.77 37.8524 157.372 36.2895 158.484 35.8843Z" fill="#6C63FF"/>
<path d="M147.027 52.5182C146.46 53.3029 145.703 53.7952 145.023 54.4082C144.239 55.0658 143.724 55.9525 143.566 56.9188C143.48 57.6017 143.613 58.2958 143.595 58.9862C143.576 59.6766 143.327 60.4537 142.817 60.6254C142.013 60.8932 141.399 59.5162 140.572 59.42C139.915 59.3446 139.324 60.2971 139.514 61.1233C139.705 61.9495 140.599 62.3154 141.113 61.776C141.577 62.4946 141.25 63.7981 140.552 64.0188C140.478 64.4715 140.404 64.9223 140.333 65.375C138.569 64.2376 136.786 63.0813 135.286 61.4157C133.618 59.579 132.583 57.3247 132.315 54.942C132.12 53.0275 132.409 50.8375 131.455 49.3644C130.692 48.1854 129.382 47.9251 128.203 47.9987C127.988 48.0119 127.772 48.0345 127.557 48.059C128.252 46.1346 129.135 44.2721 130.195 42.4945C130.434 42.3996 130.657 42.2718 130.856 42.1154C131.952 41.2571 132.44 39.5199 133.33 38.3183C133.387 38.241 133.446 38.1655 133.508 38.092C134.418 36.996 135.638 36.432 136.817 35.9076C139.426 34.7401 142.111 33.5574 144.866 33.7196L144.082 33.7894C143.167 36.151 142.252 38.5126 141.336 40.8742C141.196 41.2364 141.056 41.5991 140.914 41.9626C140.394 43.3056 139.858 44.7354 139.938 46.2388C139.985 47.1291 140.32 48.0798 140.959 48.3853C141.555 48.6683 142.205 48.3212 142.78 47.9779C143.024 47.8345 143.265 47.6912 143.509 47.5459C144.383 47.0272 145.351 46.4953 146.274 46.8423C147.119 47.1592 147.743 48.2174 147.862 49.3586C147.971 50.468 147.677 51.5792 147.027 52.5182Z" fill="#6C63FF"/>
<path d="M152.224 68.6413C149.672 67.193 147.119 65.7446 144.567 64.2962L144.611 64.1934C143.024 64.7504 142.365 67.3503 142.627 69.4764C142.89 71.6025 143.779 73.5031 144.228 75.5747C144.834 78.4097 144.605 81.3424 143.566 84.0684C146.922 80.5977 149.892 76.8255 152.431 72.8086C152.786 72.3023 153.056 71.7499 153.233 71.1697C153.42 70.5513 153.354 69.891 153.046 69.3152C152.837 69.0311 152.554 68.7995 152.224 68.6413V68.6413Z" fill="#6C63FF"/>
<path d="M142.152 42.2911C141.852 42.8842 141.806 43.5596 142.022 44.1827C142.274 44.6847 142.731 45.0747 143.293 45.2677L144.703 45.912C145.172 46.1263 145.678 46.3428 146.156 46.1665C146.733 45.9538 147.133 45.1202 147.03 44.3464C146.92 43.523 146.357 42.9566 145.836 42.4742C145.107 41.7992 144.378 41.1242 143.649 40.4492L143.238 40.9129C142.794 41.3123 142.427 41.7783 142.152 42.2911V42.2911Z" fill="#6C63FF"/>
<path d="M191.791 51.094C192.426 51.2317 193.06 51.3694 193.694 51.507C193.584 53.482 192.522 55.3098 191.097 55.9718C190.504 56.2473 189.843 56.3491 189.352 56.8641C188.908 57.3319 188.683 58.0599 188.476 58.756C188.114 59.9707 187.751 61.1855 187.389 62.4002C187 63.7093 186.501 65.1636 185.49 65.6352C184.622 66.0407 183.63 65.5446 182.963 64.7128C182.295 63.881 181.888 62.7624 181.493 61.6722C181.518 62.8605 180.918 64.0262 180.069 64.4393C179.218 64.8524 178.182 64.4789 177.613 63.5566C177.204 62.8945 177.034 62.0211 176.633 61.3496C176.232 60.6781 175.391 60.2933 174.953 60.9233C174.664 61.3421 174.701 61.9834 174.558 62.5153C174.486 62.8685 174.296 63.1921 174.015 63.4413C173.734 63.6904 173.376 63.8527 172.99 63.9055C172.636 63.898 172.286 63.8241 171.964 63.6882C171.641 63.5523 171.352 63.3574 171.114 63.1152C169.86 61.9336 169.044 60.4171 168.783 58.7824C168.605 57.9987 168.627 57.1876 168.848 56.4133C169.1 55.6795 169.708 55.1137 170.311 55.2532C170.708 54.4798 169.925 53.4537 169.218 53.5442C168.51 53.6348 167.956 54.3346 167.375 54.8722C166.795 55.4098 165.985 55.8002 165.402 55.2664C165.415 55.4616 165.343 55.6537 165.203 55.8002C165.062 55.9468 164.864 56.0359 164.652 56.0479C164.631 56.0491 164.61 56.0495 164.589 56.0492C164.201 55.9466 163.841 55.7706 163.531 55.5324C162.195 54.7646 160.498 55.274 159.549 56.7264C160.142 54.3987 161.012 51.7277 162.835 51.1807C163.58 50.9562 164.393 51.1411 165.097 50.7525C166.343 50.0641 166.595 47.4629 165.518 46.3896C165.656 47.4044 165.629 48.589 165.048 49.2831C164.467 49.9773 163.247 49.5246 163.321 48.4985C163.304 48.6428 163.238 48.7786 163.133 48.8864C163.027 48.9942 162.888 49.0685 162.734 49.0987C162.58 49.1288 162.419 49.1133 162.275 49.0542C162.132 48.9952 162.012 48.8957 161.933 48.7701C161.546 48.2268 161.579 47.3384 161.853 46.6895C162.136 46.1018 162.541 45.5712 163.046 45.1277C164.018 44.1676 165.005 43.1962 166.13 42.5926C167.258 41.989 168.56 41.7852 169.689 42.3851C170.285 42.702 170.809 43.2301 171.416 43.5093C171.559 43.591 171.718 43.6459 171.884 43.671C172.05 43.6961 172.219 43.6908 172.383 43.6555C172.547 43.6202 172.701 43.5555 172.838 43.4651C172.974 43.3748 173.09 43.2605 173.179 43.1289L173.179 43.1288C173.186 43.1187 173.192 43.1084 173.199 43.0981C173.651 42.3662 173.438 41.2797 173.606 40.3649C173.907 38.7484 175.661 37.992 176.633 39.0596C175.906 38.8879 175.155 39.6801 175.065 40.6403C174.973 41.6004 175.499 42.5699 176.203 42.8604C177.386 43.3433 178.544 42.1285 179.439 41.0043C180.372 39.8273 181.306 38.6509 182.242 37.4751C182.392 37.2749 182.559 37.0869 182.744 36.913C183.037 36.6497 183.428 36.4989 183.837 36.4912C184.246 36.4835 184.643 36.6194 184.948 36.8715C185.893 37.5826 186.337 39.0407 187.113 40.0442C188.238 41.5023 189.923 41.8569 191.49 42.1399C192.659 42.3492 193.828 42.5599 194.998 42.7717C195.778 44.109 196.458 45.4936 197.034 46.9159C194.889 47.8176 193.069 49.2676 191.791 51.094V51.094Z" fill="#6C63FF"/>
<path d="M195.569 73.7896C194.692 75.4305 193.673 77.0031 192.52 78.492C191.783 78.2015 190.991 78.7202 190.302 79.2069C189.581 79.7162 188.716 80.2123 187.977 79.7483C187.222 79.2729 186.978 77.9431 187.218 76.8887C187.493 75.916 187.974 75.0031 188.634 74.2026C189.248 73.3576 189.905 72.4805 190.758 72.1522C191.613 71.824 192.712 72.288 192.962 73.4085L193.568 73.3896C193.228 72.9596 193.406 72.0692 193.862 71.9127C194.388 71.7297 194.845 72.3956 195.156 72.9841C195.295 73.25 195.436 73.5179 195.569 73.7896Z" fill="#6C63FF"/>
<path d="M172.369 65.8222C171.067 65.8977 170.036 64.4203 169.35 62.9668C168.665 61.5134 168.04 59.8513 166.865 59.1115C166.194 58.6888 165.428 58.6308 164.7 58.4259C164.287 58.3298 163.905 58.1443 163.585 57.8849C163.266 57.6255 163.018 57.2995 162.862 56.9341L162.036 56.6266C160.88 57.1589 159.822 57.8542 158.9 58.6875C157.846 59.7196 157.189 61.0427 157.031 62.4527C156.874 63.9765 157.456 65.6756 158.545 66.2481C159.405 66.7004 160.407 66.4153 161.278 66.8293C162.366 67.3467 163.013 68.8495 163.257 70.3333C163.502 71.8171 163.44 73.3592 163.615 74.8598C163.79 76.3605 164.273 77.922 165.271 78.691C166.52 79.6534 168.353 78.8537 168.914 77.1019C169.189 76.2426 169.179 75.273 169.385 74.381C169.747 72.8102 170.724 71.6447 171.499 70.3562C172.274 69.0676 172.885 67.3176 172.369 65.8222Z" fill="#6C63FF"/>
<path d="M159.503 50.3865C159.624 50.4896 159.738 50.6004 159.842 50.7183C159.95 50.8899 160.005 51.0854 160.001 51.2838C159.998 51.4821 159.936 51.6758 159.821 51.8439C159.978 51.8356 160.131 51.7975 160.271 51.7319C160.411 51.6663 160.535 51.5746 160.635 51.4627C160.872 51.2133 161.082 50.9418 161.259 50.6528C161.342 50.5538 161.401 50.4396 161.433 50.3178C161.465 50.196 161.468 50.0693 161.443 49.9463C161.381 49.7845 161.236 49.7155 161.134 49.5938C160.992 49.3559 160.896 49.0976 160.848 48.8299C160.792 48.579 160.66 48.3476 160.469 48.1617C160.278 47.9758 160.034 47.8428 159.765 47.7776L159.83 47.7891C159.719 47.8498 159.632 47.9411 159.58 48.0501C159.528 48.159 159.514 48.2803 159.54 48.3968C159.58 48.6322 159.744 48.8276 159.728 49.0677C159.704 49.4129 159.33 49.5749 159.307 49.9201C159.303 50.0933 159.374 50.2609 159.503 50.3865V50.3865Z" fill="#6C63FF"/>
<path d="M157.271 44.5202L157.277 44.5191C157.317 44.4855 157.354 44.449 157.388 44.41L157.271 44.5202Z" fill="#6C63FF"/>
<path d="M157.663 46.1405C157.819 46.014 157.935 45.8504 157.997 45.6674C158.059 45.4844 158.066 45.2892 158.016 45.103C157.922 44.7105 157.587 44.4466 157.278 44.5191C157.188 44.6028 157.077 44.6641 156.955 44.6973C156.832 44.7305 156.703 44.7345 156.578 44.7089C156.388 44.6636 156.178 44.5469 156.012 44.6795C155.918 44.7785 155.851 44.8978 155.82 45.0265C155.758 45.2 155.697 45.3733 155.636 45.5467C155.607 45.6088 155.599 45.6776 155.614 45.7438C155.626 45.7704 155.645 45.7937 155.669 45.8115C155.693 45.8293 155.722 45.8411 155.753 45.8456L156.856 46.1454C156.983 46.1991 157.121 46.2266 157.26 46.2257C157.399 46.2249 157.537 46.1958 157.663 46.1405V46.1405Z" fill="#6C63FF"/>
<path d="M185.421 68.5115C185.251 68.255 185.081 67.9985 184.911 67.742C184.744 67.445 184.516 67.1809 184.239 66.9644C184.118 66.8709 183.962 66.8256 183.805 66.8384C183.647 66.8512 183.502 66.9211 183.4 67.0327L183.4 67.0327L183.392 67.0427L183.412 67.1892C183.867 67.6389 184.178 68.1966 184.308 68.7998C184.347 69.0619 184.333 69.3332 184.367 69.5965C184.371 69.7186 184.4 69.8388 184.454 69.9503C184.508 70.0618 184.586 70.1624 184.682 70.2463C184.95 70.4111 185.264 70.1681 185.454 69.8716C185.625 69.6281 185.701 69.3388 185.671 69.0504C185.629 68.8568 185.544 68.6734 185.421 68.5115V68.5115Z" fill="#6C63FF"/>
<path d="M188.088 68.8453C188.12 68.6052 188.099 68.3615 188.025 68.1292C188.013 67.8149 188.104 67.5044 188.285 67.238C188.465 66.9866 188.601 66.7109 188.689 66.4208C188.726 66.2886 188.72 66.1492 188.67 66.0206C188.614 65.9041 188.477 65.8509 188.399 65.9432L188.566 66.0425C188.341 66.0053 188.108 66.0157 187.888 66.0728C187.762 66.1173 187.649 66.1891 187.559 66.2821C187.47 66.3752 187.406 66.4867 187.373 66.6074C187.345 66.7955 187.3 66.981 187.238 67.162C187.138 67.3511 186.945 67.4139 186.824 67.5799C186.741 67.727 186.699 67.8907 186.702 68.0564C186.705 68.2221 186.753 68.3845 186.841 68.529C186.993 68.7653 187.236 68.9409 187.521 69.0217C187.725 69.0893 187.994 69.0929 188.088 68.8453Z" fill="#6C63FF"/>
<path d="M192.836 70.1658C192.91 70.3429 193.009 70.5103 193.131 70.6635C193.358 70.8746 193.667 70.7449 193.943 70.6936C194.193 70.6572 194.449 70.6838 194.684 70.7708C194.919 70.8577 195.125 71.0017 195.278 71.1874C195.171 70.6957 194.938 70.235 194.598 69.8437C194.257 69.4525 193.82 69.1422 193.323 68.9389C192.677 68.7328 191.996 68.6346 191.312 68.6491L191.195 68.6767C191.493 69.4751 192.427 69.4572 192.836 70.1658Z" fill="#6C63FF"/>
<path d="M172.725 71.7992L172.726 71.8027L172.761 71.7419L172.725 71.7992Z" fill="#6C63FF"/>
<path d="M172.005 73.0839C171.848 73.3468 171.713 73.6203 171.601 73.9021C171.453 74.3586 171.355 74.8277 171.308 75.3022C171.271 75.5721 171.26 75.9167 171.444 76.0482C171.496 76.0804 171.56 76.0938 171.622 76.086C171.685 76.0781 171.742 76.0496 171.784 76.0056C171.886 75.9062 171.969 75.792 172.031 75.6675C172.391 75.0953 172.671 74.483 172.863 73.8456C173.064 73.1693 173.016 72.4507 172.727 71.8022C172.486 72.2295 172.246 72.6567 172.005 73.0839Z" fill="#6C63FF"/>
<path d="M165.055 38.8452C165.17 38.9483 165.314 39.0183 165.471 39.0465C165.629 39.0748 165.791 39.06 165.939 39.0042C166.246 38.8806 166.527 38.7094 166.771 38.4979C166.973 38.3603 167.144 38.1882 167.275 37.991C167.347 37.8732 167.394 37.7433 167.411 37.6089C167.429 37.4745 167.418 37.3382 167.378 37.2079C167.322 37.083 167.232 36.9734 167.117 36.8895C167.002 36.8056 166.865 36.7501 166.72 36.7283C166.312 36.6167 165.904 36.5052 165.496 36.3936L165.791 36.1484C165.487 35.9981 165.151 36.277 164.961 36.6222C164.84 36.8477 164.755 37.0885 164.71 37.3368C164.645 37.5963 164.642 37.8657 164.702 38.1261C164.762 38.3866 164.882 38.632 165.055 38.8452V38.8452Z" fill="#6C63FF"/>
<path d="M172.261 36.6155C172.376 36.7324 172.535 36.8046 172.706 36.8174C172.877 36.8302 173.046 36.7826 173.18 36.6844C173.296 36.6046 173.391 36.5032 173.461 36.387C173.531 36.2707 173.574 36.1421 173.587 36.0097C173.616 35.7138 173.457 35.3849 173.23 35.3593L173.282 35.0823C172.845 35.0096 172.308 34.995 172.074 35.4839C171.995 35.6711 171.971 35.8742 172.004 36.0728C172.036 36.2714 172.125 36.4585 172.261 36.6155V36.6155Z" fill="#6C63FF"/>
<path d="M142.571 56.545C144.076 56.545 145.295 55.0375 145.295 53.1779C145.295 51.3182 144.076 49.8107 142.571 49.8107C141.066 49.8107 139.847 51.3182 139.847 53.1779C139.847 55.0375 141.066 56.545 142.571 56.545Z" fill="#E6E6E6"/>
<path d="M192.356 98.24C193.657 97.9208 194.516 96.9859 194.275 96.1519C194.034 95.318 192.785 94.9008 191.484 95.22C190.183 95.5393 189.324 96.4741 189.565 97.3081C189.806 98.1421 191.056 98.5593 192.356 98.24Z" fill="#E6E6E6"/>
<path d="M176.426 98.5115C177.726 98.1922 178.585 97.2574 178.345 96.4234C178.104 95.5895 176.854 95.1722 175.553 95.4915C174.253 95.8108 173.394 96.7456 173.635 97.5796C173.876 98.4135 175.125 98.8308 176.426 98.5115Z" fill="#E6E6E6"/>
<path d="M195.187 86.0235C196.487 85.7042 197.346 84.7693 197.105 83.9354C196.864 83.1014 195.615 82.6842 194.314 83.0035C193.013 83.3227 192.154 84.2576 192.395 85.0915C192.636 85.9255 193.886 86.3427 195.187 86.0235Z" fill="#E6E6E6"/>
<path d="M199.885 80.8305C200.472 80.7634 200.863 80.0782 200.759 79.3001C200.654 78.522 200.093 77.9457 199.506 78.0128C198.918 78.0799 198.527 78.7651 198.632 79.5431C198.737 80.3212 199.297 80.8976 199.885 80.8305Z" fill="#E6E6E6"/>
<path d="M201.074 71.6138C201.661 71.5467 202.053 70.8615 201.948 70.0834C201.843 69.3053 201.282 68.729 200.695 68.7961C200.108 68.8632 199.717 69.5484 199.821 70.3265C199.926 71.1046 200.487 71.681 201.074 71.6138Z" fill="#E6E6E6"/>
<path d="M185.016 89.3316C185.603 89.2645 185.994 88.5793 185.889 87.8012C185.785 87.0231 185.224 86.4468 184.637 86.5139C184.049 86.581 183.658 87.2661 183.763 88.0442C183.867 88.8223 184.428 89.3987 185.016 89.3316Z" fill="#E6E6E6"/>
<path d="M193.07 92.0186C193.658 91.9515 194.049 91.2663 193.944 90.4882C193.839 89.7101 193.279 89.1338 192.691 89.2009C192.104 89.268 191.713 89.9532 191.817 90.7313C191.922 91.5094 192.483 92.0857 193.07 92.0186Z" fill="#E6E6E6"/>
<path d="M183.291 99.6292C183.878 99.5621 184.269 98.8769 184.165 98.0988C184.06 97.3207 183.499 96.7444 182.912 96.8115C182.325 96.8786 181.933 97.5637 182.038 98.3418C182.143 99.1199 182.704 99.6963 183.291 99.6292Z" fill="#E6E6E6"/>
<path d="M113.171 85.9092C114.472 85.59 115.331 84.6551 115.09 83.8211C114.849 82.9872 113.599 82.5699 112.298 82.8892C110.998 83.2085 110.139 84.1433 110.38 84.9773C110.621 85.8112 111.87 86.2285 113.171 85.9092Z" fill="#E6E6E6"/>
<path d="M97.2403 86.1812C98.5409 85.8619 99.3999 84.9271 99.159 84.0931C98.918 83.2592 97.6683 82.8419 96.3677 83.1612C95.0671 83.4804 94.208 84.4153 94.449 85.2493C94.6899 86.0832 95.9396 86.5004 97.2403 86.1812Z" fill="#E6E6E6"/>
<path d="M116.002 73.6923C117.303 73.373 118.162 72.4382 117.921 71.6042C117.68 70.7703 116.43 70.353 115.129 70.6723C113.829 70.9916 112.97 71.9264 113.211 72.7604C113.452 73.5943 114.701 74.0116 116.002 73.6923Z" fill="#E6E6E6"/>
<path d="M120.7 68.4997C121.287 68.4326 121.679 67.7474 121.574 66.9693C121.469 66.1912 120.908 65.6148 120.321 65.682C119.734 65.7491 119.343 66.4342 119.447 67.2123C119.552 67.9904 120.113 68.5668 120.7 68.4997Z" fill="#E6E6E6"/>
<path d="M121.89 59.2831C122.477 59.216 122.868 58.5308 122.763 57.7527C122.659 56.9747 122.098 56.3983 121.511 56.4654C120.923 56.5325 120.532 57.2177 120.637 57.9958C120.741 58.7739 121.302 59.3502 121.89 59.2831Z" fill="#E6E6E6"/>
<path d="M105.831 77.0008C106.418 76.9337 106.81 76.2485 106.705 75.4704C106.6 74.6923 106.039 74.1159 105.452 74.1831C104.865 74.2502 104.474 74.9353 104.578 75.7134C104.683 76.4915 105.244 77.0679 105.831 77.0008Z" fill="#E6E6E6"/>
<path d="M113.885 79.6878C114.472 79.6207 114.863 78.9355 114.759 78.1574C114.654 77.3793 114.093 76.803 113.506 76.8701C112.918 76.9372 112.527 77.6223 112.632 78.4004C112.737 79.1785 113.297 79.7549 113.885 79.6878Z" fill="#E6E6E6"/>
<path d="M104.106 87.2984C104.694 87.2313 105.085 86.5461 104.98 85.768C104.876 84.9899 104.315 84.4135 103.727 84.4807C103.14 84.5478 102.749 85.2329 102.854 86.011C102.958 86.7891 103.519 87.3655 104.106 87.2984Z" fill="#E6E6E6"/>
<path d="M209.957 29.4491C211.258 29.1299 212.117 28.195 211.876 27.3611C211.635 26.5271 210.385 26.1099 209.084 26.4291C207.784 26.7484 206.925 27.6833 207.166 28.5172C207.407 29.3512 208.656 29.7684 209.957 29.4491Z" fill="#E6E6E6"/>
<path d="M194.026 29.7212C195.327 29.4019 196.186 28.4671 195.945 27.6331C195.704 26.7992 194.454 26.382 193.154 26.7012C191.853 27.0205 190.994 27.9553 191.235 28.7893C191.476 29.6232 192.726 30.0405 194.026 29.7212Z" fill="#E6E6E6"/>
<path d="M212.788 17.232C214.089 16.9127 214.948 15.9778 214.707 15.1439C214.466 14.3099 213.216 13.8927 211.916 14.212C210.615 14.5312 209.756 15.4661 209.997 16.3C210.238 17.134 211.488 17.5512 212.788 17.232Z" fill="#E6E6E6"/>
<path d="M217.486 12.0396C218.074 11.9725 218.465 11.2873 218.36 10.5092C218.255 9.73113 217.695 9.15476 217.107 9.22187C216.52 9.28898 216.129 9.97416 216.233 10.7523C216.338 11.5303 216.899 12.1067 217.486 12.0396Z" fill="#E6E6E6"/>
<path d="M218.676 2.82305C219.263 2.75594 219.654 2.07076 219.55 1.29267C219.445 0.514571 218.884 -0.0617947 218.297 0.00531582C217.709 0.0724263 217.318 0.757599 217.423 1.53569C217.528 2.31379 218.088 2.89016 218.676 2.82305Z" fill="#E6E6E6"/>
<path d="M202.617 20.5408C203.204 20.4737 203.596 19.7885 203.491 19.0104C203.386 18.2323 202.825 17.656 202.238 17.7231C201.651 17.7902 201.26 18.4754 201.364 19.2535C201.469 20.0316 202.03 20.6079 202.617 20.5408Z" fill="#E6E6E6"/>
<path d="M210.671 23.2278C211.258 23.1607 211.649 22.4755 211.545 21.6975C211.44 20.9194 210.879 20.343 210.292 20.4101C209.705 20.4772 209.313 21.1624 209.418 21.9405C209.523 22.7186 210.084 23.2949 210.671 23.2278Z" fill="#E6E6E6"/>
<path d="M200.893 30.8383C201.48 30.7712 201.871 30.086 201.766 29.3079C201.662 28.5298 201.101 27.9535 200.514 28.0206C199.926 28.0877 199.535 28.7729 199.64 29.5509C199.744 30.329 200.305 30.9054 200.893 30.8383Z" fill="#E6E6E6"/>
<path d="M108.385 87.9981C105.779 87.9981 104.084 87.4011 103.334 86.2144C101.855 83.8743 104.332 79.7682 110.696 74.0104L111.231 74.5123C105.319 79.861 102.749 83.8911 103.993 85.8604C104.781 87.106 107.124 87.5525 110.772 87.1509C114.393 86.7525 119.192 85.5648 125.036 83.6211C137.065 79.6194 152.158 72.8694 167.533 64.6144C182.908 56.3596 196.723 47.5885 206.435 39.9171C208.3 38.4434 209.993 37.0256 211.466 35.7035C213.4 34.0103 215.184 32.1774 216.802 30.2224C218.98 27.4963 219.715 25.3968 218.928 24.151C217.613 22.0703 212.088 22.2659 203.371 24.7027L203.15 24.0296C212.502 21.4155 218.033 21.3371 219.587 23.797C220.553 25.3254 219.823 27.6276 217.416 30.6396C215.774 32.6256 213.962 34.4875 211.998 36.2075C210.514 37.54 208.809 38.9677 206.931 40.4512C197.186 48.1495 183.331 56.9467 167.917 65.2221C152.504 73.498 137.367 80.2672 125.295 84.2828C119.397 86.2446 114.541 87.4447 110.863 87.8493C110.041 87.9438 109.213 87.9935 108.385 87.9981V87.9981Z" fill="#3F3D56"/>
</g>
<defs>
<clipPath id="clip0_854_10527">
<rect width="220" height="160" fill="white"/>
</clipPath>
</defs>
</svg>
