<svg width="320" height="234" viewBox="0 0 320 234" fill="none" xmlns="http://www.w3.org/2000/svg">
<path d="M208.31 231.384L148.364 137.151C148.347 136.921 148.266 136.697 148.126 136.501C147.986 136.304 147.794 136.141 147.564 136.025C147.301 135.894 147.001 135.83 146.698 135.843C146.689 135.842 146.679 135.842 146.669 135.842C146.659 135.842 146.65 135.842 146.64 135.843C146.23 135.826 145.828 135.948 145.519 136.184C145.21 136.419 145.017 136.75 144.981 137.106L81.4478 231.384C81.3418 231.543 81.273 231.72 81.2453 231.903C81.2176 232.086 81.2315 232.272 81.2862 232.45C81.341 232.628 81.4354 232.795 81.5643 232.942C81.6931 233.088 81.8538 233.211 82.0371 233.303C82.2204 233.396 82.4227 233.455 82.6326 233.48C82.8425 233.504 83.0557 233.491 83.2601 233.444C83.4646 233.396 83.6562 233.313 83.8241 233.201C83.992 233.088 84.1328 232.948 84.2385 232.788L146.626 140.211L205.519 232.788C205.625 232.948 205.766 233.088 205.933 233.201C206.101 233.313 206.293 233.396 206.497 233.444C206.702 233.491 206.915 233.504 207.125 233.48C207.335 233.455 207.537 233.396 207.72 233.303C207.904 233.211 208.064 233.088 208.193 232.942C208.322 232.795 208.417 232.628 208.471 232.45C208.526 232.272 208.54 232.086 208.512 231.903C208.484 231.72 208.416 231.543 208.31 231.384Z" fill="#3F3D56"/>
<path d="M136.736 215.216L143.512 213.86L140.74 190.429L130.74 192.429L136.736 215.216Z" fill="#FFB6B6"/>
<path d="M141.975 203.896L132.332 205.825L129.249 200.572L129.074 200.385C127.707 198.922 126.948 197.097 126.921 195.21L118.906 176.726L118.251 176.454C117.744 176.244 117.294 175.942 116.932 175.568C116.569 175.194 116.303 174.757 116.149 174.286C115.996 173.815 115.96 173.321 116.043 172.837C116.126 172.353 116.326 171.89 116.631 171.479L115.783 169.522L91.8414 169.56L91.8175 169.555L62.418 162.364L65.5049 146.32L73.7749 150.856C76.5001 150.702 123.182 148.203 127.494 157.324C131.334 165.447 136.868 179.324 140.834 189.534C141.032 189.993 141.278 190.434 141.569 190.854C142.186 191.682 142.548 192.635 142.62 193.621C142.667 194.05 142.761 194.474 142.901 194.887C144.549 199.184 142.038 203.783 142.012 203.829L141.975 203.896Z" fill="#2F2E41"/>
<path d="M134.447 213.257L136.65 212.816L144.449 208.046L149.861 210.173L149.861 210.173C152.466 209.652 155.202 210.055 157.467 211.293C159.731 212.53 161.339 214.501 161.937 216.773L162.01 217.051L136.774 222.099L134.447 213.257Z" fill="#2F2E41"/>
<path d="M34.405 213.783C35.0939 207.245 39.4861 200.7 46.5307 198.381C43.9687 205.162 44.2401 212.515 47.2971 219.138C48.4867 221.689 50.1144 224.417 49.1808 227.048C48.5998 228.684 47.0785 229.967 45.3554 230.79C43.6322 231.614 41.7018 232.037 39.7954 232.453L39.4276 232.736C36.1591 226.821 33.7161 220.321 34.405 213.783Z" fill="#F0F0F0"/>
<path d="M46.6063 198.502C42.6077 202.671 40.2171 207.831 39.7741 213.252C39.655 214.417 39.7473 215.592 40.0477 216.732C40.3814 217.835 41.0477 218.839 41.9774 219.641C42.8269 220.404 43.7973 221.099 44.4193 222.029C44.7296 222.509 44.92 223.041 44.978 223.59C45.0359 224.139 44.9602 224.692 44.7558 225.213C44.2852 226.524 43.3024 227.609 42.299 228.642C41.1849 229.788 40.0069 230.963 39.5703 232.453C39.5174 232.633 39.1992 232.551 39.252 232.371C40.0116 229.778 42.8178 228.239 44.0965 225.887C44.6932 224.79 44.9141 223.529 44.2755 222.406C43.717 221.424 42.7171 220.707 41.8492 219.941C40.9292 219.17 40.2396 218.214 39.8408 217.157C39.4749 216.034 39.3308 214.865 39.4148 213.699C39.556 211.073 40.17 208.482 41.2342 206.022C42.4309 203.208 44.1709 200.594 46.3788 198.291C46.5155 198.149 46.7421 198.361 46.6063 198.502L46.6063 198.502Z" fill="white"/>
<path d="M39.7984 211.499C38.7655 211.311 37.8429 210.809 37.1954 210.082C36.548 209.355 36.2179 208.452 36.264 207.533C36.2663 207.495 36.2852 207.46 36.3167 207.434C36.3481 207.409 36.3898 207.395 36.4328 207.396C36.4759 207.396 36.5169 207.411 36.5473 207.438C36.5778 207.464 36.5952 207.5 36.5959 207.538C36.5512 208.394 36.8588 209.235 37.4632 209.911C38.0677 210.586 38.9292 211.051 39.8923 211.222C40.1016 211.259 40.0065 211.536 39.7984 211.499H39.7984Z" fill="white"/>
<path d="M41.4882 219.304C43.3039 218.288 44.6139 216.713 45.157 214.893C45.2106 214.713 45.5288 214.795 45.4753 214.975C44.9061 216.868 43.5391 218.505 41.6469 219.558C41.4665 219.658 41.3088 219.404 41.4882 219.304H41.4882Z" fill="white"/>
<path d="M42.7487 203.473C43.131 203.619 43.5487 203.679 43.9644 203.649C44.38 203.619 44.7806 203.5 45.1301 203.301C45.309 203.199 45.4666 203.454 45.2888 203.555C44.9015 203.773 44.4589 203.905 43.9998 203.939C43.5406 203.973 43.0789 203.908 42.6549 203.751C42.6135 203.739 42.5788 203.714 42.558 203.681C42.5372 203.647 42.5317 203.608 42.5426 203.571C42.5553 203.535 42.584 203.504 42.6226 203.485C42.6612 203.467 42.7065 203.463 42.7487 203.473H42.7487Z" fill="white"/>
<path d="M68.6707 209.404C68.5611 209.47 68.4515 209.537 68.3418 209.606C66.8735 210.508 65.4916 211.512 64.2098 212.61C64.1092 212.693 64.0086 212.779 63.9109 212.865C60.8551 215.537 58.3949 218.68 56.6553 222.135C55.9645 223.511 55.3947 224.93 54.9508 226.381C54.338 228.384 53.8564 230.599 52.5584 232.26C52.4252 232.435 52.2798 232.602 52.1229 232.761L39.8527 233.105C39.8244 233.093 39.796 233.084 39.7675 233.073L39.2783 233.106C39.2952 233.03 39.3146 232.951 39.3315 232.875C39.3411 232.831 39.3534 232.787 39.363 232.742C39.3703 232.713 39.3777 232.683 39.3823 232.656C39.3847 232.646 39.3872 232.637 39.3896 232.629C39.3943 232.602 39.4018 232.577 39.4065 232.553C39.5136 232.113 39.6244 231.672 39.7389 231.232C39.7389 231.229 39.7389 231.229 39.7415 231.227C40.5774 227.862 41.8682 224.596 43.5866 221.497C43.6393 221.405 43.6918 221.311 43.7501 221.219C44.5482 219.846 45.4736 218.532 46.5171 217.291C47.091 216.612 47.704 215.96 48.3535 215.336C50.0355 213.726 51.9975 212.357 54.1675 211.278C58.4937 209.129 63.5601 208.21 68.3089 209.316C68.4303 209.344 68.5492 209.373 68.6707 209.404Z" fill="#F0F0F0"/>
<path d="M68.648 209.54C62.5769 210.769 57.1044 213.635 53.0077 217.73C52.1078 218.598 51.3705 219.585 50.8228 220.653C50.3279 221.708 50.1663 222.86 50.3546 223.989C50.506 225.044 50.801 226.108 50.6555 227.177C50.5717 227.723 50.3565 228.248 50.0238 228.717C49.6912 229.185 49.2487 229.587 48.7254 229.896C47.4444 230.696 45.9103 231.046 44.3964 231.344C42.7155 231.674 40.9636 231.994 39.586 232.954C39.4191 233.071 39.2217 232.838 39.3883 232.722C41.7852 231.051 45.0887 231.295 47.7336 230.088C48.9678 229.525 50.0149 228.634 50.2804 227.403C50.5126 226.325 50.2094 225.228 50.0456 224.161C49.8433 223.062 49.9527 221.937 50.364 220.884C50.8475 219.795 51.54 218.786 52.4119 217.899C54.3383 215.876 56.6176 214.13 59.1662 212.724C62.0647 211.106 65.2593 209.932 68.6119 209.252C68.8194 209.21 68.8542 209.498 68.648 209.54V209.54Z" fill="white"/>
<path d="M54.2379 216.344C53.5432 215.652 53.1534 214.766 53.1382 213.846C53.1229 212.926 53.4833 212.032 54.1549 211.322C54.2914 211.179 54.553 211.357 54.4164 211.5C53.7896 212.16 53.454 212.994 53.4701 213.85C53.4863 214.707 53.8532 215.53 54.5045 216.172C54.6459 216.311 54.3785 216.483 54.2379 216.344V216.344Z" fill="white"/>
<path d="M50.1968 223.463C52.3478 223.605 54.4813 223.035 56.1719 221.867C56.3393 221.751 56.5367 221.983 56.3695 222.099C54.6077 223.312 52.3861 223.901 50.148 223.749C49.9347 223.734 49.9847 223.448 50.1968 223.463V223.463Z" fill="white"/>
<path d="M62.135 211.484C62.3398 211.801 62.6317 212.069 62.9843 212.263C63.337 212.457 63.7394 212.572 64.1555 212.597C64.3689 212.609 64.3188 212.895 64.1067 212.883C63.6472 212.854 63.2029 212.726 62.8127 212.513C62.4225 212.299 62.0983 212.005 61.8684 211.657C61.8436 211.626 61.8333 211.587 61.8398 211.55C61.8462 211.512 61.8687 211.478 61.9029 211.454C61.9383 211.432 61.9826 211.422 62.0261 211.428C62.0695 211.433 62.1087 211.454 62.135 211.484H62.135Z" fill="white"/>
<path d="M235.157 213.783C234.469 207.245 230.076 200.7 223.032 198.381C225.594 205.162 225.322 212.515 222.265 219.138C221.076 221.689 219.448 224.417 220.382 227.048C220.963 228.684 222.484 229.967 224.207 230.79C225.93 231.614 227.861 232.037 229.767 232.453L230.135 232.736C233.403 226.821 235.846 220.321 235.157 213.783Z" fill="#F0F0F0"/>
<path d="M222.956 198.502C226.954 202.671 229.345 207.831 229.788 213.252C229.907 214.417 229.815 215.592 229.515 216.732C229.181 217.835 228.514 218.839 227.585 219.641C226.735 220.404 225.765 221.099 225.143 222.029C224.833 222.509 224.642 223.041 224.584 223.59C224.526 224.139 224.602 224.692 224.806 225.213C225.277 226.524 226.26 227.609 227.263 228.642C228.377 229.788 229.555 230.963 229.992 232.453C230.045 232.633 230.363 232.551 230.31 232.371C229.551 229.778 226.744 228.239 225.466 225.887C224.869 224.79 224.648 223.529 225.287 222.406C225.845 221.424 226.845 220.707 227.713 219.941C228.633 219.17 229.322 218.214 229.721 217.157C230.087 216.034 230.231 214.865 230.147 213.699C230.006 211.073 229.392 208.482 228.328 206.022C227.131 203.208 225.391 200.594 223.183 198.291C223.047 198.149 222.82 198.361 222.956 198.502L222.956 198.502Z" fill="white"/>
<path d="M229.764 211.499C230.797 211.311 231.719 210.809 232.367 210.082C233.014 209.355 233.344 208.452 233.298 207.533C233.296 207.495 233.277 207.46 233.246 207.434C233.214 207.409 233.173 207.395 233.13 207.396C233.086 207.396 233.045 207.411 233.015 207.438C232.985 207.465 232.967 207.5 232.966 207.538C233.011 208.394 232.704 209.235 232.099 209.911C231.495 210.586 230.633 211.051 229.67 211.222C229.461 211.259 229.556 211.536 229.764 211.499V211.499Z" fill="white"/>
<path d="M228.074 219.304C226.258 218.288 224.948 216.713 224.405 214.893C224.352 214.713 224.034 214.795 224.087 214.975C224.656 216.868 226.023 218.505 227.915 219.558C228.096 219.658 228.254 219.404 228.074 219.304H228.074Z" fill="white"/>
<path d="M226.813 203.473C226.431 203.619 226.013 203.679 225.598 203.649C225.182 203.619 224.782 203.5 224.432 203.301C224.253 203.199 224.096 203.454 224.273 203.555C224.661 203.773 225.103 203.905 225.562 203.939C226.021 203.973 226.483 203.908 226.907 203.751C226.949 203.739 226.983 203.714 227.004 203.681C227.025 203.647 227.03 203.608 227.019 203.571C227.007 203.535 226.978 203.504 226.939 203.485C226.901 203.467 226.856 203.463 226.813 203.473H226.813Z" fill="white"/>
<path d="M200.892 209.404C201.001 209.47 201.111 209.537 201.22 209.606C202.689 210.508 204.071 211.512 205.353 212.61C205.453 212.693 205.554 212.779 205.651 212.865C208.707 215.537 211.167 218.68 212.907 222.135C213.598 223.511 214.168 224.93 214.611 226.381C215.224 228.384 215.706 230.599 217.004 232.26C217.137 232.435 217.283 232.602 217.439 232.761L229.71 233.105C229.738 233.093 229.766 233.084 229.795 233.073L230.284 233.106C230.267 233.03 230.248 232.951 230.231 232.875C230.221 232.831 230.209 232.787 230.199 232.742C230.192 232.713 230.185 232.683 230.18 232.656C230.178 232.646 230.175 232.637 230.173 232.629C230.168 232.602 230.161 232.577 230.156 232.553C230.049 232.113 229.938 231.672 229.823 231.232C229.824 231.229 229.823 231.229 229.821 231.227C228.985 227.862 227.694 224.596 225.976 221.497C225.923 221.405 225.871 221.311 225.812 221.219C225.014 219.846 224.089 218.532 223.045 217.291C222.471 216.612 221.858 215.96 221.209 215.336C219.527 213.726 217.565 212.357 215.395 211.278C211.069 209.129 206.002 208.21 201.253 209.316C201.132 209.344 201.013 209.373 200.892 209.404Z" fill="#F0F0F0"/>
<path d="M200.915 209.54C206.986 210.769 212.458 213.635 216.555 217.73C217.455 218.598 218.192 219.585 218.74 220.653C219.235 221.708 219.396 222.86 219.208 223.989C219.057 225.044 218.762 226.108 218.907 227.177C218.991 227.723 219.206 228.248 219.539 228.717C219.871 229.185 220.314 229.587 220.837 229.896C222.118 230.696 223.652 231.046 225.166 231.344C226.847 231.674 228.599 231.994 229.977 232.954C230.144 233.071 230.341 232.838 230.174 232.722C227.777 231.051 224.474 231.295 221.829 230.088C220.595 229.525 219.548 228.634 219.282 227.403C219.05 226.325 219.353 225.228 219.517 224.161C219.719 223.062 219.61 221.937 219.199 220.884C218.715 219.795 218.023 218.786 217.151 217.899C215.224 215.876 212.945 214.13 210.396 212.724C207.498 211.106 204.303 209.932 200.951 209.252C200.743 209.21 200.708 209.498 200.915 209.54V209.54Z" fill="white"/>
<path d="M215.325 216.344C216.02 215.652 216.41 214.766 216.425 213.846C216.44 212.926 216.08 212.032 215.408 211.322C215.272 211.179 215.01 211.357 215.147 211.5C215.774 212.16 216.109 212.994 216.093 213.85C216.077 214.707 215.71 215.53 215.059 216.172C214.917 216.311 215.185 216.483 215.325 216.344V216.344Z" fill="white"/>
<path d="M219.365 223.463C217.214 223.605 215.081 223.035 213.39 221.867C213.223 221.751 213.025 221.983 213.192 222.099C214.954 223.312 217.176 223.901 219.414 223.749C219.627 223.734 219.577 223.448 219.365 223.463V223.463Z" fill="white"/>
<path d="M207.427 211.484C207.223 211.801 206.931 212.069 206.578 212.263C206.225 212.457 205.823 212.572 205.407 212.597C205.193 212.609 205.244 212.895 205.456 212.883C205.915 212.854 206.359 212.726 206.75 212.513C207.14 212.299 207.464 212.005 207.694 211.657C207.719 211.626 207.729 211.587 207.723 211.55C207.716 211.512 207.694 211.478 207.659 211.454C207.624 211.432 207.58 211.422 207.536 211.428C207.493 211.433 207.454 211.454 207.427 211.484H207.427Z" fill="white"/>
<path d="M320 233.629C320 233.727 319.955 233.821 319.875 233.891C319.795 233.961 319.687 234 319.574 234H0.426104C0.313094 234 0.204712 233.961 0.124802 233.891C0.0448923 233.822 0 233.727 0 233.629C0 233.53 0.0448923 233.436 0.124802 233.366C0.204712 233.296 0.313094 233.257 0.426104 233.257H319.574C319.687 233.257 319.795 233.297 319.875 233.366C319.955 233.436 320 233.53 320 233.629V233.629Z" fill="#3F3D56"/>
<path d="M205.572 89.9123C206.462 89.9123 207.184 89.2833 207.184 88.5074C207.184 87.7315 206.462 87.1025 205.572 87.1025C204.682 87.1025 203.961 87.7315 203.961 88.5074C203.961 89.2833 204.682 89.9123 205.572 89.9123Z" fill="#3F3D56"/>
<path d="M185.396 99.3289L207.119 87.4297C207.315 87.3221 207.535 87.2502 207.764 87.2186C207.993 87.187 208.227 87.1962 208.452 87.2457C208.677 87.2952 208.889 87.3839 209.073 87.5065C209.258 87.6292 209.412 87.7832 209.526 87.9592C209.641 88.1353 209.713 88.3297 209.739 88.5308C209.765 88.7319 209.744 88.9354 209.677 89.1292C209.61 89.323 209.499 89.5029 209.35 89.6581C209.201 89.8133 209.017 89.9406 208.81 90.0323L185.941 100.168C185.814 100.224 185.667 100.235 185.531 100.2C185.394 100.164 185.279 100.084 185.209 99.9755C185.138 99.8674 185.119 99.7399 185.154 99.6195C185.188 99.4991 185.275 99.395 185.396 99.3289V99.3289Z" fill="#E4E4E4"/>
<path d="M141.815 124.951C141.644 124.729 141.554 124.467 141.559 124.199C141.563 123.932 141.661 123.672 141.84 123.455C142.207 123.026 142.697 122.687 143.26 122.473C144.422 121.957 145.674 121.612 146.965 121.452C147.946 121.331 149.018 121.292 149.779 120.739C150.535 120.189 150.956 119.161 151.936 119.075C152.883 118.992 153.611 119.896 154.561 119.952C155.732 120.021 156.498 118.827 157.637 118.582C158.4 118.418 159.184 118.707 159.899 118.99L164.191 120.688L166.391 121.558C167.16 121.862 168.026 122.271 168.172 122.996C168.371 123.992 167.101 124.695 166.014 125.048C158.258 127.544 149.736 127.545 141.979 125.051" fill="#6C63FF"/>
<path d="M148.281 143.298C179.427 143.298 204.677 140.153 204.677 136.273C204.677 132.394 179.427 129.249 148.281 129.249C117.134 129.249 91.8848 132.394 91.8848 136.273C91.8848 140.153 117.134 143.298 148.281 143.298Z" fill="#3F3D56"/>
<path d="M262.684 179.825H224.013C222.233 179.825 220.79 181.083 220.79 182.634C220.79 184.186 222.233 185.444 224.013 185.444H262.684C264.464 185.444 265.907 184.186 265.907 182.634C265.907 181.083 264.464 179.825 262.684 179.825Z" fill="#3F3D56"/>
<path d="M281.425 129.73L268.653 182.631L271.979 196.171L278.26 221.725V233.21C278.261 233.226 278.259 233.242 278.256 233.257C278.254 233.511 278.201 233.762 278.099 234H273.05C272.948 233.762 272.895 233.511 272.892 233.257C272.89 233.242 272.888 233.226 272.889 233.21V222.218L267.188 199.025L266.035 194.342L263.805 185.266L263.16 182.638V182.635L263.797 180L264.288 177.967L276.169 128.768C276.241 128.467 276.381 128.181 276.579 127.927C276.778 127.673 277.033 127.456 277.328 127.287C277.623 127.119 277.954 127.003 278.301 126.946C278.647 126.889 279.004 126.892 279.349 126.955C279.694 127.019 280.022 127.14 280.313 127.314C280.605 127.488 280.854 127.71 281.047 127.967C281.239 128.225 281.372 128.513 281.437 128.816C281.502 129.118 281.498 129.429 281.425 129.73L281.425 129.73Z" fill="#3F3D56"/>
<path d="M226.698 182.634V233.21C226.699 233.226 226.698 233.242 226.695 233.257C226.693 233.511 226.639 233.762 226.537 234H221.488C221.386 233.762 221.333 233.511 221.331 233.257C221.328 233.242 221.327 233.226 221.327 233.21V182.634C221.327 182.013 221.61 181.418 222.114 180.979C222.617 180.54 223.301 180.293 224.013 180.293C224.725 180.293 225.408 180.54 225.912 180.979C226.415 181.418 226.698 182.013 226.698 182.634Z" fill="#3F3D56"/>
<path d="M230.458 174.205H256.239C258.803 174.205 261.262 175.093 263.075 176.674C264.888 178.255 265.907 180.399 265.907 182.634V182.634H220.79C220.79 180.399 221.809 178.255 223.622 176.674C225.435 175.093 227.894 174.205 230.458 174.205V174.205Z" fill="#3F3D56"/>
<path d="M269.129 199.025H224.013C223.3 199.025 222.617 198.778 222.114 198.339C221.61 197.9 221.327 197.304 221.327 196.683C221.327 196.062 221.61 195.467 222.114 195.028C222.617 194.588 223.3 194.342 224.013 194.342H269.129C269.842 194.342 270.525 194.588 271.028 195.028C271.532 195.467 271.815 196.062 271.815 196.683C271.815 197.304 271.532 197.9 271.028 198.339C270.525 198.778 269.842 199.025 269.129 199.025Z" fill="#3F3D56"/>
<path d="M59.268 185.529H104.775C106.555 185.529 107.998 184.271 107.998 182.72V181.868C107.998 180.316 106.555 179.058 104.775 179.058H59.268C57.4882 179.058 56.0453 180.316 56.0453 181.868V182.72C56.0453 184.271 57.4882 185.529 59.268 185.529Z" fill="#3F3D56"/>
<path d="M58.7992 182.332L57.9756 185.291L54.9535 196.131L53.6502 200.814L47.5987 222.536V231.961C47.6003 232.423 47.4432 232.874 47.1476 233.257C46.9152 233.567 46.5993 233.822 46.2274 234H43.5991C43.2272 233.822 42.9113 233.567 42.6789 233.257C42.3833 232.874 42.2261 232.423 42.2276 231.961V221.974L48.9523 197.842L53.2921 182.257L38.5754 121.301C38.5026 121 38.4985 120.689 38.5633 120.387C38.6282 120.085 38.7607 119.797 38.9534 119.539C39.1461 119.282 39.3951 119.06 39.6861 118.886C39.9772 118.713 40.3047 118.591 40.6499 118.527C40.995 118.464 41.351 118.461 41.6976 118.518C42.0442 118.575 42.3745 118.691 42.6697 118.859C42.9649 119.027 43.2192 119.244 43.418 119.498C43.6168 119.752 43.7562 120.038 43.8283 120.339L57.4315 176.669L58.0581 179.266L58.7884 182.294L58.7992 182.332Z" fill="#3F3D56"/>
<path d="M106.974 182.294V231.961C106.975 232.423 106.818 232.874 106.522 233.257C106.29 233.567 105.974 233.822 105.602 234H102.97C102.6 233.821 102.286 233.566 102.054 233.257C101.758 232.874 101.601 232.423 101.603 231.961V182.294C101.603 181.673 101.885 181.078 102.389 180.638C102.893 180.199 103.576 179.953 104.288 179.953C105 179.953 105.683 180.199 106.187 180.638C106.691 181.078 106.974 181.673 106.974 182.294Z" fill="#3F3D56"/>
<path d="M107.998 182.294H56.0453V181.017C56.0453 179.91 56.2954 178.814 56.7812 177.791C57.2671 176.768 57.9792 175.839 58.877 175.056C59.7747 174.274 60.8405 173.653 62.0135 173.229C63.1864 172.806 64.4436 172.587 65.7132 172.587H98.3302C100.894 172.587 103.353 173.476 105.166 175.056C106.979 176.637 107.998 178.781 107.998 181.017V182.294H107.998Z" fill="#3F3D56"/>
<path d="M104.287 200.813H52.334C51.6217 200.813 50.9386 200.566 50.435 200.127C49.9314 199.688 49.6484 199.092 49.6484 198.471C49.6484 197.85 49.9314 197.255 50.435 196.815C50.9386 196.376 51.6217 196.13 52.334 196.13H104.287C104.999 196.13 105.682 196.376 106.186 196.815C106.689 197.255 106.972 197.85 106.972 198.471C106.972 199.092 106.689 199.688 106.186 200.127C105.682 200.566 104.999 200.813 104.287 200.813Z" fill="#3F3D56"/>
<path d="M171.054 221.238L165.41 218.884L173.163 198.314L181.494 201.787L171.054 221.238Z" fill="#9E616A"/>
<path d="M209.306 219.375L203.237 220.68L194.443 200.435L203.402 198.508L209.306 219.375Z" fill="#9E616A"/>
<path d="M186.044 131.83C186.849 132.97 188.133 133.79 189.623 134.116C191.112 134.442 192.688 134.247 194.015 133.573C194.282 133.433 194.535 133.273 194.772 133.096L212.617 142.024L211.842 132.859L195.015 125.785C194.099 124.983 192.904 124.469 191.617 124.323C190.33 124.176 189.024 124.407 187.903 124.977C187.258 125.315 186.697 125.762 186.253 126.292C185.809 126.822 185.491 127.423 185.318 128.062C185.144 128.701 185.119 129.363 185.244 130.01C185.369 130.657 185.641 131.276 186.044 131.83V131.83Z" fill="#9E616A"/>
<path d="M204.944 138.662L208.099 140.338L222.265 147.87C223.196 148.378 224.232 148.721 225.315 148.879C226.397 149.037 227.505 149.008 228.574 148.793C229.644 148.577 230.654 148.18 231.548 147.625C232.441 147.069 233.201 146.365 233.782 145.553C234.831 144.046 235.202 142.254 234.823 140.522L228.527 113.095C228.294 112.018 227.798 110.998 227.071 110.104C226.345 109.21 225.406 108.464 224.318 107.915C223.23 107.367 222.019 107.03 220.768 106.927C219.517 106.824 218.255 106.958 217.069 107.32C215.075 107.931 213.423 109.181 212.449 110.816C211.475 112.452 211.252 114.349 211.825 116.122L218.409 135.587L208.317 131.484L204.944 138.662Z" fill="#E6E6E6"/>
<path d="M197.487 213.701L187.774 196.718L187.776 196.679L188.735 165.529C188.747 165.252 188.772 164.974 188.811 164.7C188.98 163.451 189.433 162.244 190.143 161.149C190.853 160.055 191.806 159.094 192.946 158.323C194.038 157.579 195.289 157.031 196.626 156.712C197.964 156.393 199.361 156.309 200.735 156.466L228.507 159.6L229.47 156.166L229.65 156.109L256.26 147.606L256.413 147.824C259.898 152.768 262.334 162.644 262.998 165.553L263.007 165.595C263.021 165.656 263.03 165.693 263.033 165.704C264.402 170.668 258.742 178.891 253.104 180.127C241.226 182.767 230.604 180.708 218.304 178.324C213.894 177.468 209.336 176.584 204.315 175.82L204.464 178.397C204.587 180.38 205.059 182.334 205.865 184.192C206.76 186.478 207.467 188.283 205.972 192.048L205.249 193.869C205.624 194.774 205.753 195.741 205.626 196.696C205.499 197.651 205.119 198.568 204.517 199.373L204.371 199.567L210.776 213.698L197.487 213.701Z" fill="#2F2E41"/>
<path d="M181.529 206.191L169.947 205.252L174.05 193.811C174.897 186.34 177.031 179.024 180.379 172.108L185.976 160.544C185.989 160.286 186.014 160.027 186.05 159.774C186.219 158.525 186.672 157.317 187.382 156.223C188.092 155.128 189.045 154.167 190.185 153.397C191.277 152.652 192.528 152.105 193.865 151.786C195.202 151.467 196.599 151.383 197.974 151.54L225.705 154.669L226.913 145.83L253.53 142.725L253.651 142.897C258.304 149.497 261.257 154.664 262.947 159.158C263.031 159.387 263.107 159.621 263.171 159.854C264.55 164.851 261.107 169.918 255.496 171.148C241.197 174.327 224.001 174.239 201.393 170.869L190.452 193.572C189.406 195.741 188.111 197.811 186.587 199.752L181.529 206.191Z" fill="#2F2E41"/>
<path d="M221.928 91.5792C229.337 91.5792 235.344 86.2255 235.344 79.6214C235.344 73.0173 229.337 67.6636 221.928 67.6636C214.518 67.6636 208.512 73.0173 208.512 79.6214C208.512 86.2255 214.518 91.5792 221.928 91.5792Z" fill="#9E616A"/>
<path d="M225.802 155.086L223.877 149.073L223.403 146.108L220.636 146.188L215.206 135.26L213.097 132.379C212.667 131.984 212.278 131.604 211.928 131.239C209.731 129.074 207.969 126.6 206.717 123.922C205.839 121.999 205.324 119.964 205.191 117.897C204.797 111.791 207.749 105.331 214.216 98.1491C214.11 97.8948 214.04 97.6305 214.006 97.3616C213.89 96.4891 214.174 95.6121 214.796 94.9214C215.419 94.2307 216.328 93.7821 217.328 93.6733L223.565 93.0626C224.05 93.0147 224.541 93.0514 225.01 93.1705C225.479 93.2897 225.915 93.4889 226.295 93.7565C226.691 94.0334 227.02 94.3763 227.263 94.7652C227.506 95.1541 227.657 95.5812 227.709 96.0216C227.792 96.7029 227.638 97.3904 227.267 97.9945C230.447 98.3464 233.442 99.4905 235.894 101.29C238.346 103.089 240.151 105.466 241.092 108.137C244.825 114.212 247.799 120.618 249.966 127.246C250.393 128.544 250.203 129.881 250.019 131.175C249.849 132.37 249.673 133.605 249.969 134.836C250.269 136.089 250.992 137.345 251.757 138.675C252.633 140.199 253.539 141.774 253.784 143.38L253.802 143.493L225.802 155.086Z" fill="#E4E4E4"/>
<path opacity="0.2" d="M206.883 123.863C208.129 126.525 209.882 128.985 212.066 131.139C212.44 131.529 212.835 131.911 213.249 132.295L215.371 135.198C223.194 130.085 229.533 109.955 229.533 109.955L220.706 108.458L206.883 123.863Z" fill="black"/>
<path d="M201.538 92.6963C202.311 93.8539 202.536 95.2287 202.164 96.5284C201.792 97.828 200.853 98.9498 199.547 99.655C199.279 99.7947 198.998 99.9149 198.707 100.014L199.332 117.945L190.426 113.057L191.198 96.7789C190.819 95.6957 190.862 94.5335 191.32 93.4739C191.778 92.4142 192.626 91.5166 193.731 90.9211C194.375 90.5817 195.09 90.3582 195.834 90.2638C196.578 90.1694 197.337 90.206 198.065 90.3715C198.792 90.5369 199.475 90.8279 200.071 91.2272C200.668 91.6265 201.167 92.1261 201.538 92.6963V92.6963Z" fill="#9E616A"/>
<path d="M200.115 111.177L190.321 112.391L190.742 130.074C190.767 131.336 191.161 132.571 191.887 133.662C192.613 134.753 193.647 135.665 194.891 136.309V136.309C196.411 137.089 198.18 137.417 199.932 137.243C201.683 137.07 203.323 136.405 204.604 135.348L227.726 115.957C229.353 114.611 230.327 112.773 230.447 110.821C230.567 108.869 229.824 106.95 228.372 105.461V105.461C227.653 104.719 226.771 104.111 225.778 103.672C224.784 103.233 223.7 102.973 222.589 102.907C221.478 102.84 220.363 102.969 219.31 103.286C218.257 103.602 217.288 104.1 216.46 104.75C216.231 104.928 216.014 105.116 215.809 105.315L200.541 120.629L200.115 111.177Z" fill="#E6E6E6"/>
<path d="M118.2 226.519L125.152 226.519L128.459 203.14L118.199 203.141L118.2 226.519Z" fill="#FFB6B6"/>
<path d="M78.7975 91.9264C86.4603 91.9264 92.6721 86.5103 92.6721 79.8293C92.6721 73.1482 86.4603 67.7322 78.7975 67.7322C71.1347 67.7322 64.9229 73.1482 64.9229 79.8293C64.9229 86.5103 71.1347 91.9264 78.7975 91.9264Z" fill="#FFB6B6"/>
<path d="M127.42 219.318H117.576L115.067 216.384L114.387 213.621L113.803 213.128C113.01 212.464 112.497 211.586 112.347 210.636C112.198 209.687 112.421 208.721 112.98 207.895L105.845 178.873C103.977 178.73 82.9042 177.087 68.2559 174.827C64.507 174.248 61.5801 172.66 59.5564 170.105C54.5836 163.826 56.7138 153.667 56.7358 153.565L56.7604 153.452L56.8918 153.439L91.1071 150.091L91.1531 150.11C92.2885 150.579 119.011 161.64 123.378 165.447C125.35 167.167 129.75 177.382 130.735 188.242C130.911 190.187 130.276 192.169 129.662 194.085C129.088 195.878 128.494 197.731 128.611 199.484C128.792 202.188 128.964 205.025 129.121 207.915C129.146 208.375 129.544 208.852 129.929 209.313C130.331 209.795 130.711 210.249 130.735 210.725C130.969 215.341 127.509 219.22 127.474 219.258L127.42 219.318Z" fill="#2F2E41"/>
<path d="M129.662 112.05C128.917 111.872 128.136 111.839 127.375 111.953C126.613 112.067 125.889 112.325 125.255 112.709C124.62 113.094 124.089 113.594 123.701 114.177C123.312 114.759 123.074 115.408 123.005 116.079L111.477 119.221L111.957 125.795L128.166 121.159C129.467 121.186 130.734 120.797 131.727 120.064C132.72 119.331 133.37 118.307 133.555 117.184C133.739 116.061 133.445 114.918 132.727 113.972C132.01 113.026 130.92 112.342 129.662 112.05V112.05Z" fill="#FFB6B6"/>
<path d="M122.141 122.928L113.525 125.771L113.305 126.144C112.776 127.037 111.863 127.711 110.765 128.017C109.667 128.323 108.474 128.237 107.449 127.776V127.776L88.0832 134.167C88.0832 134.167 79.4347 126.621 73.2773 119.887L75.3759 108.633C75.8619 106.022 76.895 103.511 78.4234 101.226C91.0511 103.64 98.2999 119.031 98.2999 119.031L121.058 115.245L122.141 122.928Z" fill="#6C63FF"/>
<path d="M76.8257 91.2797C73.3522 92.0976 69.5228 91.0102 66.8121 88.9474C64.1013 86.8847 62.4057 83.9618 61.4286 80.9427C60.7131 78.7315 60.3738 76.277 61.503 74.2012C62.6322 72.1254 65.6712 70.7249 68.0158 71.7734C66.5695 70.3042 67.2921 67.8741 68.9813 66.6172C70.6706 65.3603 72.9902 64.9999 75.1994 64.803C78.4056 64.5171 81.7175 64.4851 84.7684 65.3907C87.8194 66.2964 90.5915 68.2763 91.5463 70.9602C92.5216 71.3561 93.6198 71.4588 94.6692 71.2523C95.7185 71.0457 96.6597 70.5415 97.3452 69.8187C97.5219 70.6489 97.38 71.5067 96.9413 72.2594C96.5026 73.0121 95.7916 73.6178 94.9183 73.9828L99.5929 72.6614C100.397 74.145 98.9882 75.9813 97.1868 76.4564C95.3853 76.9316 93.4408 76.4122 91.7313 75.7258C90.0219 75.0394 88.3652 74.1716 86.5084 73.9038C84.6516 73.6361 82.4705 74.1563 81.6116 75.6164C81.1617 76.3812 81.1383 77.2768 80.8771 78.1056C80.6159 78.9343 79.9543 79.7935 78.9716 79.8613C78.3508 79.9042 77.7429 79.6158 77.1238 79.6748C76.3563 79.7479 75.7688 80.3541 75.5644 81.0033C75.4102 81.6648 75.4084 82.3465 75.5588 83.0086L76.7463 90.9222" fill="#2F2E41"/>
<path d="M59.6364 171.55C59.6337 171.55 59.6311 171.55 59.6285 171.549L59.5188 171.533L59.4871 171.44C59.0882 170.27 58.5806 169.073 58.0897 167.915C57.3667 166.311 56.7563 164.67 56.2618 163.002C55.8725 161.407 55.6027 159.791 55.4539 158.166C55.3169 156.985 55.1753 155.765 54.9345 154.564C54.8276 154.03 55.2328 153.525 55.6246 153.037C55.988 152.584 56.3312 152.156 56.2591 151.751C56.1855 151.337 55.659 150.883 55.15 150.443C54.5919 149.961 54.0149 149.463 53.9332 148.938C52.821 141.783 52.3033 134.566 52.3842 127.346C52.4991 117.355 53.017 110.546 53.9233 107.106C56.3602 97.8564 67.619 96.1685 69.3813 95.9601C69.569 95.5242 69.8576 95.1267 70.2291 94.7922C70.6006 94.4578 71.0471 94.1935 71.5408 94.016C72.0345 93.8385 72.5648 93.7515 73.0987 93.7604C73.6327 93.7693 74.1588 93.8739 74.6443 94.0677L82.6439 97.2605C84.2666 97.9105 85.7186 98.8444 86.9098 100.004C88.101 101.164 89.0059 102.525 89.5682 104.003L90.7566 107.162L91.3518 128.366L88.0531 143.298L94.4984 151.727C60.1474 168.17 59.747 171.55 59.6364 171.55Z" fill="#6C63FF"/>
<path d="M114.46 224.163L116.72 224.163L125.544 221.034L130.274 224.163H130.275C132.947 224.163 135.51 225.089 137.4 226.736C139.29 228.384 140.352 230.619 140.352 232.949V233.235L114.46 233.236L114.46 224.163Z" fill="#2F2E41"/>
<path d="M132.549 127.181C131.882 126.84 131.138 126.631 130.369 126.567C129.6 126.504 128.824 126.589 128.096 126.815C127.368 127.042 126.707 127.405 126.157 127.878C125.608 128.352 125.184 128.925 124.916 129.557L112.847 129.967L111.221 134.869L128.378 135.634C129.626 135.957 130.965 135.869 132.143 135.388C133.321 134.906 134.256 134.065 134.77 133.023C135.284 131.981 135.342 130.811 134.932 129.734C134.523 128.657 133.675 127.749 132.549 127.181V127.181Z" fill="#FFB6B6"/>
<path d="M122.635 136.163L110.238 136.028L108.668 136.01L83.4455 135.733C83.4455 135.733 76.596 130.035 70.6318 124.169L71.4678 118.898C72.2832 113.724 75.2268 108.985 79.7508 105.562C88.2929 110.539 93.2467 120.389 93.2467 120.389L101.553 123.63C107.398 123.858 113.094 125.312 118.157 127.869L120.888 129.249L122.635 136.163Z" fill="#6C63FF"/>
<path d="M213.736 229.346L209.611 230.234L207.913 226.997L206.989 230.798L196.048 233.152C195.524 233.265 194.972 233.229 194.473 233.049C193.974 232.869 193.554 232.554 193.274 232.151C192.994 231.748 192.87 231.278 192.919 230.809C192.967 230.34 193.187 229.897 193.545 229.544L200.792 222.404L199.82 218.971L209.145 217.472L213.736 229.346Z" fill="#2F2E41"/>
<path d="M170.036 230.456L166.102 229.056L166.916 225.568L163.602 228.166L153.169 224.454C152.669 224.276 152.247 223.963 151.965 223.561C151.683 223.159 151.556 222.69 151.602 222.22C151.648 221.751 151.865 221.307 152.221 220.953C152.577 220.599 153.054 220.353 153.581 220.252L164.261 218.2L165.794 214.927L174.344 218.501L170.036 230.456Z" fill="#2F2E41"/>
<path d="M156.337 135.025H153.114C149.649 135.021 146.327 133.82 143.877 131.683C141.427 129.547 140.049 126.651 140.045 123.629V123.473H169.407V123.629C169.403 126.651 168.025 129.547 165.574 131.683C163.124 133.82 159.802 135.021 156.337 135.025V135.025Z" fill="#E4E4E4"/>
<path d="M153.115 119.415C153.115 120.191 151.504 120.82 151.504 120.82C151.504 120.82 149.893 120.191 149.893 119.415C149.893 118.639 151.504 118.01 151.504 118.01C151.504 118.01 153.115 118.639 153.115 119.415Z" fill="#3F3D56"/>
<path d="M162.783 119.415C162.783 120.191 161.172 120.82 161.172 120.82C161.172 120.82 159.561 120.191 159.561 119.415C159.561 118.639 161.172 118.01 161.172 118.01C161.172 118.01 162.783 118.639 162.783 119.415Z" fill="#3F3D56"/>
<path d="M156.338 122.225C156.338 123 154.727 123.629 154.727 123.629C154.727 123.629 153.115 123 153.115 122.225C153.115 121.449 154.727 120.82 154.727 120.82C154.727 120.82 156.338 121.449 156.338 122.225Z" fill="#3F3D56"/>
<path d="M145.059 116.449C145.948 116.449 146.67 115.82 146.67 115.044C146.67 114.268 145.948 113.639 145.059 113.639C144.169 113.639 143.447 114.268 143.447 115.044C143.447 115.82 144.169 116.449 145.059 116.449Z" fill="#3F3D56"/>
<path d="M121.624 112.025L147.038 115.085C147.267 115.113 147.489 115.181 147.687 115.285C147.886 115.389 148.059 115.528 148.195 115.692C148.331 115.856 148.427 116.042 148.478 116.239C148.529 116.437 148.534 116.641 148.492 116.84C148.449 117.039 148.361 117.229 148.233 117.397C148.105 117.566 147.938 117.71 147.744 117.821C147.55 117.932 147.332 118.007 147.104 118.043C146.875 118.078 146.641 118.073 146.415 118.027L121.424 112.973C121.285 112.945 121.164 112.872 121.086 112.768C121.008 112.664 120.978 112.538 121.004 112.416C121.03 112.293 121.109 112.185 121.225 112.112C121.34 112.039 121.483 112.008 121.624 112.025V112.025Z" fill="#E4E4E4"/>
<path d="M152.506 42.2129V0H149.283V42.2129C144.88 42.5632 140.786 44.3357 137.805 47.1826C134.824 50.0295 133.17 53.7451 133.17 57.6001V61.8147H144.449C144.449 63.3051 145.128 64.7345 146.337 65.7883C147.546 66.8422 149.185 67.4343 150.894 67.4343C152.604 67.4343 154.243 66.8422 155.452 65.7883C156.661 64.7345 157.34 63.3051 157.34 61.8147H168.619V57.6001C168.618 53.7451 166.965 50.0295 163.984 47.1826C161.003 44.3357 156.909 42.5632 152.506 42.2129V42.2129Z" fill="#F0F0F0"/>
<path d="M193.997 31.6596V0H191.58V31.6596C188.278 31.9224 185.207 33.2518 182.971 35.3869C180.735 37.5221 179.496 40.3088 179.495 43.2V46.361H187.955C187.955 47.4788 188.464 48.5508 189.37 49.3412C190.277 50.1316 191.506 50.5757 192.788 50.5757C194.071 50.5757 195.3 50.1316 196.207 49.3412C197.113 48.5508 197.622 47.4788 197.622 46.361H206.082V43.2C206.081 40.3088 204.842 37.5221 202.606 35.3869C200.37 33.2518 197.299 31.9224 193.997 31.6596V31.6596Z" fill="#F0F0F0"/>
<path d="M112.357 31.6596V0H109.94V31.6596C106.638 31.9224 103.567 33.2518 101.332 35.3869C99.0957 37.5221 97.8559 40.3088 97.8555 43.2V46.361H106.315C106.315 47.4788 106.824 48.5508 107.731 49.3412C108.637 50.1316 109.867 50.5757 111.149 50.5757C112.431 50.5757 113.66 50.1316 114.567 49.3412C115.473 48.5508 115.983 47.4788 115.983 46.361H124.442V43.2C124.442 40.3088 123.202 37.5221 120.966 35.3869C118.73 33.2518 115.66 31.9224 112.357 31.6596V31.6596Z" fill="#F0F0F0"/>
<path d="M257.827 74.4352C255.547 72.1166 254.463 69.0403 252.64 66.4074C250.817 63.7744 247.644 61.4179 244.293 62.0306C241.982 62.453 240.197 64.2305 239.293 66.2122C238.389 68.1939 238.22 70.3792 238.061 72.5202C238.117 68.1205 234.793 63.8552 230.213 62.4514C225.634 61.0475 220.153 62.6134 217.275 66.1481C216.02 65.1333 214.38 64.5554 212.669 64.5241C210.957 64.4928 209.291 65.0101 207.988 65.9781C205.414 67.9839 204.844 71.8016 206.737 74.36C208.63 76.9185 212.73 77.8716 215.738 76.4526L216.801 77.3056C216.203 79.1312 217.364 81.2876 219.315 81.9748C220.898 82.5321 223.132 82.4393 223.724 83.8873C224.138 84.899 223.364 85.9789 222.542 86.7563C221.719 87.5338 220.742 88.3366 220.643 89.4124C220.494 91.0356 222.418 92.1727 224.167 92.5152C228.384 93.341 233.063 91.6383 235.494 88.3935C235.541 88.3309 235.592 88.2682 235.647 88.2055C237.01 86.685 238.004 84.9381 238.567 83.0714C239.13 81.2047 239.251 79.2576 238.922 77.3488C238.785 76.5989 238.923 76.041 239.516 75.8634C242.08 75.0957 249.261 76.707 251.435 78.1632C253.608 79.6194 255.349 81.5465 257.442 83.0967C259.536 84.6469 262.204 85.8426 264.862 85.4205C266.991 85.0824 268.802 83.7348 270.021 82.1093C271.239 80.4838 271.94 78.589 272.568 76.706C267.86 79.0772 261.417 78.0846 257.827 74.4352Z" fill="#2F2E41"/>
</svg>
