<svg width="320" height="234" viewBox="0 0 320 234" fill="none" xmlns="http://www.w3.org/2000/svg">
<g clip-path="url(#clip0_854_10753)">
<path opacity="0.1" d="M20.9437 91.7158H48.7557V129.229H22.9773C22.9115 129.617 22.8457 130.002 22.7717 130.39H48.7557V160.638C48.7119 160.638 48.668 160.606 48.6269 160.589C47.8961 160.302 47.1652 159.997 46.4344 159.676C46.2782 159.605 46.1247 159.532 45.9658 159.464C45.2349 159.122 44.5041 158.761 43.7732 158.379C43.5184 158.246 43.2635 158.108 43.0141 157.967C38.9568 155.727 35.2692 152.886 32.0789 149.544C31.983 149.454 31.8953 149.357 31.8049 149.273C31.3609 148.795 30.9251 148.313 30.5031 147.819C30.3441 147.638 30.1906 147.453 30.0344 147.277C29.5356 146.675 29.0533 146.051 28.5873 145.425C28.5161 145.33 28.4503 145.237 28.3818 145.153C26.4732 142.54 24.8905 139.708 23.6679 136.719C23.6295 136.63 23.5939 136.532 23.5583 136.448C23.1801 135.499 22.8375 134.536 22.5415 133.555C22.4154 133.145 22.2921 132.741 22.188 132.315C22.1496 132.193 22.1194 132.069 22.0865 131.947C20.5463 125.94 20.3682 119.697 20.3682 113.484C20.3682 112.761 20.3682 112.038 20.3682 111.315C20.3901 108.778 20.4202 106.244 20.4586 103.713C20.4732 103.062 20.4869 102.409 20.4997 101.752C20.5381 100.091 20.5929 98.4259 20.6642 96.7572C20.6806 96.2962 20.7025 95.8325 20.7272 95.3741C20.7382 95.1084 20.7519 94.8426 20.7683 94.5769C20.8176 93.6168 20.8761 92.6632 20.9437 91.7158Z" fill="#6C63FF"/>
<path opacity="0.1" d="M48.7562 49.9475H33.499C35.9803 46.1088 38.6901 42.4195 41.6141 38.8992C43.8833 36.144 46.2732 33.4592 48.7562 30.8721V49.9475Z" fill="#6C63FF"/>
<path opacity="0.1" d="M48.7556 51.1028V90.5552H21.0312C21.0312 90.4413 21.0477 90.3247 21.0587 90.2108C21.0833 89.8989 21.108 89.5898 21.1354 89.2779C21.1628 88.9145 21.1984 88.5511 21.2341 88.1932C21.2697 87.8352 21.3053 87.4013 21.3492 87.0081C21.393 86.6149 21.4286 86.2162 21.4725 85.823C21.5163 85.4298 21.5602 85.0365 21.6095 84.646C21.6589 84.2555 21.7027 83.8596 21.7575 83.4691C21.7986 83.1464 21.8397 82.8209 21.8863 82.4955C21.9494 82.0372 22.0151 81.5789 22.0837 81.1233C22.0837 81.0528 22.1056 80.985 22.1165 80.9172C22.6174 77.5823 23.2981 74.2764 24.1556 71.0134C25.0561 67.5911 26.2056 64.2377 27.5951 60.9795C29.0716 57.5656 30.8011 54.2644 32.7694 51.1028H48.7556Z" fill="#6C63FF"/>
<path opacity="0.1" d="M55.3994 91.7157V129.229H114.806V91.7157H55.3994ZM55.3994 130.39V162.607C55.7393 162.675 56.0736 162.743 56.4107 162.8C56.8629 162.886 57.3179 162.965 57.781 163.033L58.0551 163.071C58.236 163.101 58.4196 163.125 58.6032 163.147C59.0609 163.212 59.5186 163.261 59.9735 163.304C60.1873 163.326 60.4093 163.342 60.6258 163.361L61.1548 163.399C61.4425 163.421 61.7276 163.437 62.0126 163.448C62.188 163.448 62.3634 163.461 62.5415 163.467C62.7197 163.472 62.8156 163.467 62.9581 163.467H63.4761C63.7118 163.467 63.9475 163.467 64.1804 163.467H64.4819C64.7176 163.467 64.9533 163.467 65.1862 163.445H65.1999C65.3644 163.445 65.5261 163.445 65.6905 163.426C65.7371 163.429 65.7837 163.429 65.8303 163.426C65.9673 163.426 66.1044 163.426 66.2359 163.41C66.2669 163.407 66.2981 163.407 66.3291 163.41C66.6333 163.391 66.9403 163.366 67.2499 163.339C67.5596 163.312 67.8529 163.28 68.1626 163.247L68.7847 163.171C71.3269 162.819 73.8408 162.29 76.3078 161.587C81.8521 160.058 87.2703 157.918 92.8119 156.353C99.9705 154.333 107.885 153.338 114.803 155.797V130.39H55.3994ZM114.806 49.9473V0.00530374C108.302 -0.0654958 101.817 0.686361 95.506 2.24261C80.4626 5.98229 66.954 14.0935 55.3994 24.4529V49.9446H58.3895V51.1026H55.3994V90.555H114.806V51.1026H70.6209V49.9419L114.806 49.9473ZM191.127 33.0767C187.405 32.9465 183.705 31.7831 180.356 29.9797C173.96 26.5383 168.846 21.2176 163.134 16.7322C151.267 7.38433 136.55 1.74091 121.452 0.341577V49.9473H206.25L206.461 49.7276L191.127 33.0767ZM198.853 31.7208L207.045 40.6184V29.3804C204.287 29.7248 201.887 30.5248 198.853 31.7099V31.7208ZM207.045 170.607V130.39H189.576C189.532 130.219 189.483 130.045 189.428 129.872C189.48 130.045 189.526 130.219 189.573 130.39H121.452V159.472C122.098 159.947 122.737 160.448 123.37 160.953C124.053 161.506 124.732 162.066 125.406 162.631L126.086 163.187C126.412 163.459 126.744 163.73 127.073 163.987C127.732 164.513 128.396 165.034 129.065 165.549C129.399 165.81 129.736 166.066 130.074 166.317C135.427 170.365 141.073 174.019 146.967 177.248C148.288 177.978 149.623 178.68 150.966 179.366C151.859 179.822 152.759 180.269 153.665 180.706C155.024 181.362 156.395 181.995 157.776 182.604C170.511 188.261 183.977 192.141 197.789 194.135C200.855 194.582 203.935 194.934 207.028 195.193V170.602H207.302L207.045 170.607ZM121.452 51.1026V90.555H207.045V51.1026H121.452ZM121.452 91.7103V129.229H207.045V91.7157L121.452 91.7103ZM213.688 29.3262V41.8822L224.141 30.5275C220.676 29.9616 217.192 29.5612 213.688 29.3262ZM213.688 91.7157V129.229H296.935V91.7157H213.688ZM296.642 173.582L296.935 130.39H213.688V195.63C219.05 195.85 224.42 195.786 229.775 195.437H229.869C232.427 195.274 234.973 195.043 237.507 194.743H237.564C251.088 193.185 264.311 189.69 276.819 184.367L296.642 173.582ZM312.995 97.8771C312.679 97.1539 312.355 96.4308 312.022 95.7076C311.403 94.3517 310.75 93.0337 310.076 91.7184H303.581V129.229H320C319.986 118.604 317.268 107.756 312.995 97.8771ZM303.581 130.39V167.543C308.204 163.157 312.115 158.138 314.927 152.399C318.312 145.487 319.86 138.008 319.989 130.387L303.581 130.39ZM303.581 80.7841V90.5469H309.468C307.683 87.1908 305.718 83.9319 303.581 80.7841ZM247.124 36.6889C246.691 36.5235 246.255 36.3581 245.819 36.2008C241.225 34.5205 236.529 33.1239 231.76 32.0191L215.76 49.3914L215.447 49.7249L215.653 49.9446H272.598C264.667 44.5442 256.115 40.0945 247.124 36.6889ZM274.27 51.1026H214.855L213.688 52.1575V90.555H223.924H296.935V71.9515C290.333 64.0516 282.713 57.0423 274.27 51.1026Z" fill="#6C63FF"/>
<path opacity="0.1" d="M48.7556 71.0051V90.5551H21.0312C21.0312 90.4412 21.0477 90.3246 21.0587 90.2107C21.0833 89.8988 21.108 89.5896 21.1354 89.2778C21.1628 88.9144 21.1984 88.551 21.2341 88.193C21.2697 87.835 21.3053 87.4011 21.3492 87.0079C21.393 86.6147 21.4286 86.2161 21.4725 85.8228C21.5163 85.4296 21.5602 85.0364 21.6095 84.6459C21.6589 84.2554 21.7027 83.8594 21.7575 83.4689C21.7986 83.1462 21.8397 82.8208 21.8863 82.4954C21.9494 82.0371 22.0151 81.5787 22.0837 81.1231C22.0837 81.0526 22.1056 80.9848 22.1165 80.917C22.6174 77.5822 23.2981 74.2762 24.1556 71.0133L48.7556 71.0051Z" fill="#6C63FF"/>
<path opacity="0.1" d="M20.9437 91.7158H48.7557V129.229H22.9773C22.9115 129.617 22.8457 130.002 22.7717 130.39H48.7557V160.638C48.7119 160.638 48.668 160.606 48.6269 160.589C47.8961 160.302 47.1652 159.997 46.4344 159.676C46.2782 159.605 46.1247 159.532 45.9658 159.464C45.2349 159.122 44.5041 158.761 43.7732 158.379C43.5184 158.246 43.2635 158.108 43.0141 157.967C38.9568 155.727 35.2692 152.886 32.0789 149.544C31.983 149.454 31.8953 149.357 31.8049 149.273C31.3609 148.795 30.9251 148.313 30.5031 147.819C30.3441 147.638 30.1906 147.453 30.0344 147.277C29.5356 146.675 29.0533 146.051 28.5873 145.425C28.5161 145.33 28.4503 145.237 28.3818 145.153C26.4732 142.54 24.8905 139.708 23.6679 136.719C23.6295 136.63 23.5939 136.532 23.5583 136.448C23.1801 135.499 22.8375 134.536 22.5415 133.555C22.4154 133.145 22.2921 132.741 22.188 132.315C22.1496 132.193 22.1194 132.069 22.0865 131.947C20.5463 125.94 20.3682 119.697 20.3682 113.484C20.3682 112.761 20.3682 112.038 20.3682 111.315C20.3901 108.778 20.4202 106.244 20.4586 103.713C20.4732 103.062 20.4869 102.409 20.4997 101.752C20.5381 100.091 20.5929 98.4259 20.6642 96.7572C20.6806 96.2962 20.7025 95.8325 20.7272 95.3741C20.7382 95.1084 20.7519 94.8426 20.7683 94.5769C20.8176 93.6168 20.8761 92.6632 20.9437 91.7158Z" fill="#6C63FF"/>
<path opacity="0.1" d="M76.3103 56.7542V90.5551H55.3965V56.7542H58.3783V45.3101H70.618V56.7542H76.3103Z" fill="#6C63FF"/>
<path opacity="0.1" d="M76.3076 91.7131H55.3965V129.227H76.3076V91.7131Z" fill="#6C63FF"/>
<path opacity="0.1" d="M55.3994 130.39H76.3105V161.577C73.8438 162.279 71.3298 162.808 68.7874 163.158C68.5791 163.187 68.3736 163.212 68.1653 163.233C67.8584 163.269 67.5541 163.301 67.2499 163.328L66.3318 163.402H66.2386L65.833 163.423H65.6932C65.5288 163.423 65.3671 163.442 65.2027 163.445H65.189C64.9533 163.445 64.7203 163.461 64.4846 163.467H64.1832C63.9502 163.467 63.7173 163.467 63.4788 163.467H62.9636H62.5443C62.3661 163.467 62.1907 163.467 62.0126 163.445C61.7312 163.434 61.4462 163.418 61.1575 163.396L60.6286 163.358C60.4093 163.342 60.1901 163.32 59.9735 163.299C59.5131 163.259 59.0563 163.207 58.6032 163.144L58.0551 163.068L57.781 163.03C57.3233 162.962 56.8684 162.886 56.4107 162.8C56.0709 162.74 55.7365 162.672 55.3994 162.602V130.39Z" fill="#6C63FF"/>
<path opacity="0.1" d="M207.042 52.7625H189.798V90.5525H207.042V52.7625Z" fill="#6C63FF"/>
<path opacity="0.1" d="M207.044 91.7131V129.229H121.451V113.047H167.042V122.593H189.797V91.7131H207.044Z" fill="#6C63FF"/>
<path opacity="0.1" d="M207.315 170.615C207.225 170.615 207.135 170.615 207.041 170.599V195.209C203.952 194.958 200.873 194.606 197.805 194.154C183.988 192.161 170.517 188.282 157.776 182.629C154.098 180.987 150.495 179.198 146.967 177.262C141.074 174.031 135.429 170.377 130.076 166.33C128.728 165.311 127.399 164.268 126.091 163.204C125.184 162.46 124.285 161.701 123.37 160.966C122.739 160.459 122.101 159.957 121.451 159.48V130.39H189.573C189.523 130.216 189.479 130.045 189.43 129.872C189.482 130.045 189.531 130.216 189.575 130.39H207.044V170.596C207.135 170.599 207.225 170.607 207.315 170.615Z" fill="#6C63FF"/>
<path opacity="0.1" d="M252.019 49.9474H240.782V46.4925H245.817V36.2009C246.253 36.36 246.688 36.5227 247.121 36.6891V46.4925H252.016L252.019 49.9474Z" fill="#6C63FF"/>
<path opacity="0.1" d="M279.093 90.5552H223.924C223.929 90.5565 223.935 90.5565 223.94 90.5552H223.916H213.688V52.7652H216.587V80.6975H229.835V64.1551H240.784V51.1028H252.021V64.1632H262.964V80.7057H279.096L279.093 90.5552Z" fill="#6C63FF"/>
<path opacity="0.1" d="M213.688 91.7158V129.229H279.096V91.7158H213.688ZM296.841 173.384L296.934 143.689H279.096V130.401H213.688V195.63C219.05 195.85 224.42 195.786 229.775 195.437H229.868C232.426 195.274 234.972 195.043 237.506 194.743H237.564C251.088 193.185 264.311 189.69 276.818 184.367" fill="#6C63FF"/>
<path opacity="0.1" d="M304.732 130.39H319.989C319.858 138.008 318.312 145.49 314.927 152.4C312.115 158.141 308.205 163.16 303.581 167.545V143.681H304.732V130.39Z" fill="#6C63FF"/>
<path opacity="0.1" d="M320 129.229H304.731V97.8772H312.994C317.267 107.757 319.986 118.604 320 129.229Z" fill="#6C63FF"/>
<path opacity="0.1" d="M207.044 63.2681H197.806V75.1163H207.044V63.2681Z" fill="#6C63FF"/>
<path opacity="0.1" d="M207.044 87.8269H197.806V90.5551H207.044V87.8269Z" fill="#6C63FF"/>
<path opacity="0.1" d="M207.044 91.7131H197.806V99.6725H207.044V91.7131Z" fill="#6C63FF"/>
<path opacity="0.1" d="M207.044 112.386H197.806V124.234H207.044V112.386Z" fill="#6C63FF"/>
<path opacity="0.1" d="M207.044 136.945H197.806V148.793H207.044V136.945Z" fill="#6C63FF"/>
<path opacity="0.1" d="M207.044 170.596C207.135 170.596 207.225 170.596 207.319 170.615C207.228 170.615 207.138 170.615 207.044 170.599V173.352H197.806V161.503H207.044V170.596Z" fill="#6C63FF"/>
<path opacity="0.1" d="M207.044 186.059V195.209C203.953 194.958 200.873 194.606 197.806 194.154V186.059H207.044Z" fill="#6C63FF"/>
<path opacity="0.1" d="M161.045 128.359H121.451V129.229H161.045V128.359Z" fill="#6C63FF"/>
<path opacity="0.1" d="M161.045 130.387H121.451V133.723H161.045V130.387Z" fill="#6C63FF"/>
<path opacity="0.1" d="M161.045 144.657H121.451V150.021H161.045V144.657Z" fill="#6C63FF"/>
<path opacity="0.1" d="M161.046 160.956V166.32H130.076C128.728 165.304 127.4 164.26 126.092 163.19C125.182 162.45 124.283 161.69 123.37 160.956H161.046Z" fill="#6C63FF"/>
<path opacity="0.1" d="M161.045 177.251V182.629H157.776C154.098 180.987 150.495 179.198 146.967 177.262L161.045 177.251Z" fill="#6C63FF"/>
<path opacity="0.1" d="M237.57 95.3496H229.775V103.062H237.57V95.3496Z" fill="#6C63FF"/>
<path opacity="0.1" d="M68.8061 59.4146H61.0117V67.1271H68.8061V59.4146Z" fill="#6C63FF"/>
<path opacity="0.1" d="M68.8061 77.3293H61.0117V85.0419H68.8061V77.3293Z" fill="#6C63FF"/>
<path opacity="0.1" d="M68.8061 95.2439H61.0117V102.956H68.8061V95.2439Z" fill="#6C63FF"/>
<path opacity="0.1" d="M68.8061 113.156H61.0117V120.869H68.8061V113.156Z" fill="#6C63FF"/>
<path opacity="0.1" d="M68.8061 131.071H61.0117V138.783H68.8061V131.071Z" fill="#6C63FF"/>
<path opacity="0.1" d="M68.8061 148.985H61.0117V156.698H68.8061V148.985Z" fill="#6C63FF"/>
<path opacity="0.1" d="M267.325 95.3496H259.53V103.062H267.325V95.3496Z" fill="#6C63FF"/>
<path opacity="0.1" d="M237.57 114.374H229.775V122.086H237.57V114.374Z" fill="#6C63FF"/>
<path opacity="0.1" d="M267.325 114.374H259.53V122.086H267.325V114.374Z" fill="#6C63FF"/>
<path opacity="0.1" d="M237.57 133.395H229.775V141.107H237.57V133.395Z" fill="#6C63FF"/>
<path opacity="0.1" d="M267.325 133.395H259.53V141.107H267.325V133.395Z" fill="#6C63FF"/>
<path opacity="0.1" d="M237.57 152.418H229.775V160.131H237.57V152.418Z" fill="#6C63FF"/>
<path opacity="0.1" d="M267.325 152.418H259.53V160.131H267.325V152.418Z" fill="#6C63FF"/>
<path opacity="0.1" d="M237.57 171.442H229.775V179.155H237.57V171.442Z" fill="#6C63FF"/>
<path opacity="0.1" d="M267.325 171.442H259.53V179.155H267.325V171.442Z" fill="#6C63FF"/>
<path opacity="0.1" d="M229.775 195.437V190.463H237.567V194.729L229.775 195.437Z" fill="#6C63FF"/>
<path opacity="0.1" d="M22.084 80.9089V85.3212H48.7559V80.9089H22.084ZM24.7397 85.0446H22.5472V81.1883H24.7397V85.0446ZM27.3953 85.0446H25.2028V81.1883H27.3953V85.0446ZM30.0455 85.0446H27.853V81.1883H30.0455V85.0446ZM32.7012 85.0446H30.5087V81.1883H32.7012V85.0446ZM35.3542 85.0446H33.1616V81.1883H35.3542V85.0446ZM38.0098 85.0446H35.8173V81.1883H38.0098V85.0446ZM40.6655 85.0446H38.473V81.1883H40.6655V85.0446ZM43.3185 85.0446H41.1259V81.1883H43.3185V85.0446ZM45.9714 85.0446H43.7789V81.1883H45.9714V85.0446ZM48.6271 85.0446H46.4346V81.1883H48.6271V85.0446Z" fill="#6C63FF"/>
<path opacity="0.1" d="M22.084 93.7524V98.1647H48.7559V93.7524H22.084ZM24.7397 97.8881H22.5472V94.0318H24.7397V97.8881ZM27.3953 97.8881H25.2028V94.0318H27.3953V97.8881ZM30.0455 97.8881H27.853V94.0318H30.0455V97.8881ZM32.7012 97.8881H30.5087V94.0318H32.7012V97.8881ZM35.3542 97.8881H33.1616V94.0318H35.3542V97.8881ZM38.0098 97.8881H35.8173V94.0318H38.0098V97.8881ZM40.6655 97.8881H38.473V94.0318H40.6655V97.8881ZM43.3185 97.8881H41.1259V94.0318H43.3185V97.8881ZM45.9714 97.8881H43.7789V94.0318H45.9714V97.8881ZM48.6271 97.8881H46.4346V94.0318H48.6271V97.8881Z" fill="#6C63FF"/>
<path opacity="0.1" d="M22.084 106.599V111.008H48.7559V106.599H22.084ZM24.7397 110.729H22.5472V106.873H24.7397V110.729ZM27.3953 110.729H25.2028V106.873H27.3953V110.729ZM30.0455 110.729H27.853V106.873H30.0455V110.729ZM32.7012 110.729H30.5087V106.873H32.7012V110.729ZM35.3542 110.729H33.1616V106.873H35.3542V110.729ZM38.0098 110.729H35.8173V106.873H38.0098V110.729ZM40.6655 110.729H38.473V106.873H40.6655V110.729ZM43.3185 110.729H41.1259V106.873H43.3185V110.729ZM45.9714 110.729H43.7789V106.873H45.9714V110.729ZM48.6271 110.729H46.4346V106.873H48.6271V110.729Z" fill="#6C63FF"/>
<path opacity="0.1" d="M22.084 119.442V123.852H48.7559V119.442H22.084ZM24.7397 123.575H22.5472V119.713H24.7397V123.575ZM27.3953 123.575H25.2028V119.713H27.3953V123.575ZM30.0455 123.575H27.853V119.713H30.0455V123.575ZM32.7012 123.575H30.5087V119.713H32.7012V123.575ZM35.3542 123.575H33.1616V119.713H35.3542V123.575ZM38.0098 123.575H35.8173V119.713H38.0098V123.575ZM40.6655 123.575H38.473V119.713H40.6655V123.575ZM43.3185 123.575H41.1259V119.713H43.3185V123.575ZM45.9714 123.575H43.7789V119.713H45.9714V123.575ZM48.6271 123.575H46.4346V119.713H48.6271V123.575Z" fill="#6C63FF"/>
<path opacity="0.1" d="M22.2129 132.28C22.317 132.698 22.4404 133.11 22.5664 133.519V132.559H24.7589V136.413H23.5832C23.6161 136.505 23.6517 136.6 23.6901 136.684H48.767V132.28H22.2129ZM27.4201 136.413H25.2276V132.559H27.4201V136.413ZM30.0703 136.413H27.8778V132.559H30.0703V136.413ZM32.726 136.413H30.5335V132.559H32.726V136.413ZM35.3789 136.413H33.1864V132.559H35.3789V136.413ZM38.0346 136.413H35.8421V132.559H38.0346V136.413ZM40.6903 136.413H38.4978V132.559H40.6903V136.413ZM43.3432 136.413H41.1507V132.559H43.3432V136.413ZM45.9962 136.413H43.8037V132.559H45.9962V136.413ZM48.6519 136.413H46.4594V132.559H48.6519V136.413Z" fill="#6C63FF"/>
<path opacity="0.1" d="M28.3906 145.124C28.4619 145.21 28.5277 145.308 28.5962 145.395H30.046V147.247L30.5146 147.789V145.384H32.7071V149.273H31.8055C31.8932 149.362 31.9781 149.457 32.0795 149.544H48.7508V145.124H28.3906ZM35.3683 149.273H33.1758V145.4H35.3683V149.273ZM38.024 149.273H35.8315V145.4H38.024V149.273ZM40.6797 149.273H38.4871V145.4H40.6797V149.273ZM43.3326 149.273H41.1401V145.4H43.3326V149.273ZM45.9855 149.273H43.793V145.4H45.9855V149.273ZM48.6412 149.273H46.4487V145.4H48.6412V149.273Z" fill="#6C63FF"/>
<path opacity="0.1" d="M43.0225 157.967C43.2746 158.108 43.5295 158.238 43.7844 158.377V158.241H45.9769V159.464C46.1358 159.532 46.2866 159.605 46.4428 159.676V158.241H48.6353V160.589C48.677 160.608 48.72 160.623 48.7641 160.636V157.967H43.0225Z" fill="#6C63FF"/>
<path opacity="0.1" d="M207.042 170.596H207.316H207.042ZM189.428 129.872C189.48 130.045 189.527 130.219 189.573 130.39C189.532 130.219 189.483 130.045 189.428 129.872ZM58.3896 49.9473V51.1026H70.6321V49.9419L58.3896 49.9473ZM207.045 170.596H207.319H207.045ZM189.428 129.872C189.48 130.045 189.527 130.219 189.573 130.39C189.532 130.219 189.483 130.045 189.428 129.872ZM207.042 170.596H207.316H207.042ZM189.428 129.872C189.48 130.045 189.527 130.219 189.573 130.39C189.532 130.219 189.483 130.045 189.428 129.872Z" fill="#6C63FF"/>
<path opacity="0.1" d="M241.02 234C255.769 234 267.725 232.1 267.725 229.756C267.725 227.412 255.769 225.512 241.02 225.512C226.272 225.512 214.315 227.412 214.315 229.756C214.315 232.1 226.272 234 241.02 234Z" fill="#6C63FF"/>
<path opacity="0.1" d="M120.58 229.756C135.328 229.756 147.285 227.856 147.285 225.512C147.285 223.168 135.328 221.268 120.58 221.268C105.831 221.268 93.875 223.168 93.875 225.512C93.875 227.856 105.831 229.756 120.58 229.756Z" fill="#6C63FF"/>
<path d="M151.325 113.289C151.318 113.262 151.304 113.237 151.284 113.218C150.875 112.82 145.668 105.533 145.668 105.533C145.668 105.533 145.394 104.719 144.95 103.662C145.092 103.479 145.199 103.272 145.265 103.052C145.289 102.958 145.306 102.863 145.317 102.767C145.317 102.737 145.339 102.713 145.347 102.683C145.443 102.315 145.433 101.928 145.32 101.565C145.289 101.658 145.252 101.749 145.208 101.837C145.104 101.521 144.967 101.217 144.796 100.931C144.106 99.7539 143.119 98.7613 142.393 97.6142C141.293 95.8319 140.856 93.7258 141.157 91.6589C141.157 91.7647 141.157 91.8731 141.157 91.9789C141.184 91.569 141.239 91.1613 141.321 90.7586C141.436 90.3002 141.589 89.852 141.779 89.4189C142.431 87.9409 143.486 86.6528 144.128 85.1694C144.343 84.669 144.506 84.1484 144.616 83.6155C144.842 82.7254 144.924 81.8055 144.859 80.89C144.859 81.107 144.824 81.3239 144.791 81.5382C144.722 79.337 143.823 77.2409 142.272 75.6615C140.033 73.4351 136.818 72.57 133.743 72.1144C132.451 71.9652 131.217 71.4991 130.153 70.7584C128.972 70.0018 127.445 69.8201 126.064 69.9856C124.477 70.1554 123.001 70.8771 121.901 72.0222C120.44 73.6113 119.807 75.8622 118.103 77.2019C117.069 78.0154 115.759 78.3951 114.556 78.9483C113.353 79.5015 112.216 80.3043 111.829 81.4921C111.829 81.4921 111.829 81.4758 111.829 81.4677V81.5355L111.813 81.5788C111.413 82.9836 112.186 84.4128 112.588 85.8148C113.008 87.2657 113.035 88.7979 113.057 90.2975C113.087 92.1308 113.115 93.9667 113.085 95.8027C113.071 96.524 113.046 97.2535 112.991 97.9722C112.343 98.1662 111.713 98.4167 111.109 98.7206C110.495 99.1166 108.198 101.571 108.198 101.571L103.706 118.553L103.766 118.62L103.706 118.851L103.934 118.799C104.569 119.477 106.469 121.408 108.519 122.612L108.71 125.942C108.71 125.942 108.941 129.284 112.046 130.664C112.117 131.822 112.339 136.524 111.311 138.387C110.6 139.748 110.265 141.272 110.341 142.802C110.341 142.802 110.7 145.628 110.292 147.114C110.053 148.107 110.035 149.14 110.24 150.141C110.24 150.141 110.24 150.469 110.24 151.033C110.24 154.04 110.275 163.678 110.24 164.768C110.188 166.057 110.24 185.108 110.24 185.108C110.24 185.108 109.985 194.629 109.168 197.208C108.351 199.787 108.557 208.327 108.557 208.327C108.557 208.327 108.044 218.499 109.856 220.506C109.856 220.595 109.84 220.687 109.837 220.777C109.837 220.818 109.837 220.864 109.837 220.904C109.815 221.677 109.966 222.499 110.637 222.751C112.007 223.272 113.819 224.834 114.162 225.281C114.504 225.729 116.497 226.843 119.095 226.545C120.722 226.364 122.36 226.29 123.998 226.323C123.998 226.323 125.023 226.138 124.691 224.877C124.477 224.091 123.677 222.881 123.107 222.087C123.211 222.114 123.313 222.136 123.409 222.155L123.507 222.174H123.584C123.626 222.176 123.668 222.176 123.71 222.174H123.765C123.816 222.178 123.867 222.178 123.918 222.174C124.606 222.108 127.171 223.291 127.629 224.072C128.087 224.853 129.701 225.447 130.918 225.596C131.641 225.683 133.467 225.536 134.999 225.341C135.77 225.262 136.534 225.124 137.284 224.929C137.646 224.793 137.723 224.359 137.619 223.871C137.496 223.251 137.161 222.692 136.67 222.287C136.226 221.976 135.64 221.154 135.207 220.481L135.092 220.3C135.856 219.578 137.238 217.219 137.657 216.731C138.167 216.137 136.835 194.417 136.835 194.417V183.529L138.877 173.224L140.305 167.771L141.53 159.537C141.53 159.537 143.673 149.921 143.012 148.977C143.012 148.958 142.464 139.057 141.889 136.679C141.639 135.618 141.702 133.232 141.85 130.911C142.005 130.759 142.113 130.566 142.161 130.356C142.21 130.146 142.197 129.926 142.124 129.723C142.083 129.584 142.03 129.449 141.965 129.319C141.965 129.278 141.965 129.235 141.965 129.194C143.149 128.655 144.386 128.239 145.657 127.952C147.699 127.556 147.189 126.515 147.189 126.515C147.189 126.515 147.649 125.622 147.954 125.077C148.258 124.532 148.006 119.721 147.954 119.326C147.934 119.166 147.808 118.281 147.663 117.278C148.318 116.817 149.171 116.245 150.1 115.702C151.867 114.666 151.47 113.574 151.325 113.289ZM124.686 182.043C124.686 182.043 123.154 185.91 123.768 186.9C124.381 187.89 123.666 191.565 123.666 191.565L123.154 197.018C123.154 197.018 121.726 207.133 122.236 209.512C122.636 211.378 122.784 216.95 122.83 219.275C122.795 219.288 122.761 219.304 122.729 219.323L122.66 219.359C122.896 218.445 122.797 216.595 121.627 212.875L121.528 197.506C121.528 197.506 121.348 179.754 122.764 177.769C124.181 175.784 124.683 172.413 124.683 172.413C124.683 172.413 124.376 177.276 124.176 178.564C123.976 179.852 124.686 182.043 124.686 182.043ZM121.833 220.243C121.819 220.275 121.802 220.308 121.792 220.338L121.715 220.24C121.754 220.244 121.793 220.245 121.833 220.243Z" fill="url(#paint0_linear_854_10753)"/>
<path d="M137.457 226.333C136.665 226.634 132.37 227.147 131.17 227.003C129.969 226.86 128.38 226.257 127.928 225.471C127.475 224.685 124.94 223.497 124.261 223.573C123.982 223.581 123.704 223.542 123.439 223.459C122.97 223.318 122.512 223.144 122.068 222.938C122.006 222.596 122.017 222.245 122.098 221.908C122.114 221.84 122.134 221.773 122.159 221.707C122.319 221.262 122.65 220.898 123.08 220.693L123.178 220.647C123.368 220.565 123.567 220.505 123.77 220.468C125.924 220.058 134.812 220.88 134.812 220.88C134.812 220.88 135.062 221.322 135.404 221.87C135.832 222.548 136.413 223.375 136.851 223.687C137.337 224.098 137.667 224.66 137.786 225.281C137.89 225.761 137.813 226.201 137.457 226.333Z" fill="white"/>
<path opacity="0.1" d="M137.456 226.333C136.664 226.634 132.372 227.147 131.172 227.003C129.972 226.86 128.382 226.255 127.927 225.471C127.472 224.687 124.943 223.497 124.263 223.573C123.583 223.649 122.07 222.938 122.07 222.938C122.07 222.938 121.835 221.853 122.52 221.113L123.89 222.076C123.89 222.076 127.557 223.201 128.237 224.245C128.917 225.289 130.155 225.872 131.945 225.978C133.282 226.065 136.355 225.55 137.793 225.292C137.889 225.761 137.815 226.201 137.456 226.333Z" fill="black"/>
<path d="M124.337 227.717C122.721 227.685 121.104 227.761 119.497 227.942C116.924 228.24 114.959 227.128 114.616 226.67C114.274 226.211 112.5 224.663 111.138 224.121C110.472 223.866 110.316 223.036 110.346 222.26C110.346 222.22 110.346 222.173 110.346 222.133C110.372 221.641 110.445 221.154 110.566 220.677L121.229 220.451L122.153 221.691L122.295 221.881L122.857 222.637C122.857 222.637 123.112 222.968 123.447 223.451C124.011 224.264 124.8 225.466 125.011 226.26C125.349 227.532 124.337 227.717 124.337 227.717Z" fill="white"/>
<path opacity="0.1" d="M124.337 227.717C122.721 227.685 121.104 227.761 119.497 227.942C116.927 228.24 114.959 227.128 114.619 226.67C114.279 226.211 112.5 224.649 111.138 224.126C110.472 223.871 110.316 223.041 110.346 222.266C111.108 222.442 112.709 222.892 113.336 223.676C114.159 224.723 115.63 226.483 117.721 226.594C119.41 226.683 123.521 226.385 125.028 226.266C125.351 227.532 124.337 227.717 124.337 227.717Z" fill="black"/>
<path opacity="0.1" d="M123.069 220.682C122.945 221.588 122.564 221.832 122.29 221.886C122.223 221.899 122.155 221.899 122.088 221.886C122.052 221.883 122.016 221.878 121.981 221.87C121.981 221.87 112.405 223.963 110.47 222.268C110.421 222.225 110.375 222.178 110.333 222.127C110.358 221.636 110.432 221.148 110.552 220.671L121.216 220.446L122.14 221.685C122.3 221.24 122.631 220.876 123.061 220.671L123.069 220.682Z" fill="black"/>
<path opacity="0.1" d="M135.401 221.859C135.187 222.092 135.009 222.225 134.897 222.179C134.393 221.978 130.26 221.281 128.947 221.881C127.634 222.48 123.192 221.978 123.192 221.978C123.192 221.978 123.192 221.457 123.167 220.622C123.357 220.541 123.556 220.481 123.759 220.443C125.913 220.034 134.801 220.855 134.801 220.855C134.801 220.855 135.061 221.311 135.401 221.859Z" fill="black"/>
<path d="M141.655 160.516L140.444 168.798L139.035 174.287L137.018 184.663V195.646C137.018 195.646 138.328 217.498 137.824 218.095C137.32 218.691 135.404 222.089 134.9 221.891C134.395 221.693 130.262 220.994 128.95 221.59C127.637 222.187 123.194 221.691 123.194 221.691C123.194 221.691 123.093 213.211 122.589 210.816C122.084 208.421 123.496 198.244 123.496 198.244L124 192.758C124 192.758 124.707 189.064 124.101 188.066C123.496 187.068 125.009 183.185 125.009 183.185C125.009 183.185 124.304 180.985 124.507 179.689C124.71 178.393 125.009 173.503 125.009 173.503C125.009 173.503 124.507 176.899 123.107 178.892C121.706 180.885 121.884 198.748 121.884 198.748L121.983 214.206C124.507 222.39 121.983 221.59 121.983 221.59C121.983 221.59 112.407 223.687 110.472 221.989C108.537 220.291 109.091 209.607 109.091 209.607C109.091 209.607 108.891 201.026 109.697 198.434C110.502 195.841 110.757 186.26 110.757 186.26C110.757 186.26 110.705 167.101 110.757 165.807C110.796 164.722 110.757 155.011 110.757 151.976C110.757 151.412 110.757 151.079 110.757 151.079L111.914 148.237L125.617 146.539H132.173C132.173 146.539 142.039 148.833 143.059 149.823C143.08 149.84 143.099 149.86 143.113 149.883C143.774 150.84 141.655 160.516 141.655 160.516Z" fill="#6C63FF"/>
<path opacity="0.1" d="M125.017 204.02C125.017 204.02 128.031 211.204 129.454 211.703C130.876 212.202 125.017 204.02 125.017 204.02Z" fill="black"/>
<path opacity="0.1" d="M126.133 214.596C126.133 214.596 136.312 215.095 136.21 216.194C136.109 217.292 126.133 214.596 126.133 214.596Z" fill="black"/>
<path opacity="0.1" d="M112.515 211.725C112.918 212.102 120.279 212.809 119.673 213.498C119.068 214.187 113.12 215.527 113.12 215.527L112.515 211.725Z" fill="black"/>
<path opacity="0.1" d="M111.306 199.331C111.306 199.63 112.818 208.91 113.224 209.308C113.63 209.707 116.954 210.106 116.954 210.106L111.306 199.331Z" fill="black"/>
<path d="M122.282 72.4858C120.837 74.0831 120.212 76.3476 118.53 77.6981C117.507 78.5116 116.214 78.8994 115.024 79.4527C113.835 80.0059 112.656 80.8493 112.303 82.1022C111.908 83.5123 112.67 84.9523 113.07 86.3625C113.484 87.8215 113.509 89.3456 113.533 90.8724C113.561 92.7192 113.591 94.566 113.558 96.4128C113.509 99.2901 113.268 102.3 111.725 104.738C117.296 106.493 123.222 106.731 129.065 106.957C130.188 107.036 131.316 107.008 132.433 106.872C133.401 106.682 134.359 106.442 135.302 106.154C137.168 105.665 139.09 105.422 141.019 105.43C141.861 105.43 142.719 105.481 143.53 105.264C144.341 105.047 145.122 104.491 145.341 103.689C145.536 102.967 145.251 102.2 144.878 101.552C144.199 100.369 143.234 99.3823 142.505 98.2162C141.761 96.9844 141.319 95.597 141.216 94.1655C141.112 92.7341 141.35 91.2986 141.91 89.9747C142.557 88.4859 143.598 87.1897 144.234 85.6981C144.885 84.0967 145.059 82.344 144.733 80.6481C144.408 78.9522 143.597 77.3843 142.398 76.1306C140.186 73.8906 137.013 73.0228 133.976 72.5618C132.697 72.4123 131.477 71.9459 130.43 71.2058C129.265 70.4465 127.755 70.2621 126.39 70.4302C124.815 70.6048 123.357 71.3345 122.282 72.4858Z" fill="#3F3D56"/>
<g opacity="0.1">
<path opacity="0.1" d="M141.996 88.4099C141.437 89.7167 141.198 91.1354 141.297 92.5509C141.359 91.5387 141.595 90.5444 141.996 89.6113C142.64 88.1224 143.682 86.8262 144.318 85.3346C144.837 84.0892 145.056 82.7408 144.956 81.397C144.9 82.3389 144.684 83.2647 144.318 84.136C143.682 85.6275 142.64 86.9211 141.996 88.4099Z" fill="black"/>
<path opacity="0.1" d="M113.616 90.5036C113.633 91.5666 113.649 92.6324 113.652 93.6954C113.652 92.231 113.638 90.7693 113.616 89.3076C113.595 87.7917 113.567 86.2568 113.153 84.795C112.879 83.8676 112.474 82.9266 112.331 81.991C112.087 83.3198 112.781 84.6676 113.153 85.9937C113.567 87.4418 113.595 88.9876 113.616 90.5036Z" fill="black"/>
<path opacity="0.1" d="M143.624 103.713C142.801 103.933 141.957 103.884 141.116 103.878C139.188 103.866 137.267 104.105 135.402 104.589C134.458 104.876 133.5 105.114 132.532 105.305C131.414 105.442 130.285 105.471 129.161 105.392C123.516 105.172 117.79 104.936 112.383 103.339C112.223 103.693 112.039 104.037 111.835 104.369C117.407 106.121 123.332 106.362 129.172 106.588C130.296 106.667 131.425 106.638 132.543 106.501C133.508 106.312 134.462 106.074 135.402 105.788C137.263 105.302 139.18 105.06 141.105 105.069C141.946 105.069 142.801 105.12 143.613 104.901C144.424 104.681 145.205 104.131 145.424 103.328C145.517 102.956 145.507 102.567 145.397 102.2C145.153 102.959 144.399 103.488 143.624 103.713Z" fill="black"/>
</g>
<path d="M135.506 100.5C135.303 100.95 134.448 104.839 134.245 105.237C134.042 105.636 132.935 112.017 132.834 112.375C132.732 112.733 125.535 110.878 125.535 110.878L121.202 107.285L116.749 102.9C116.749 102.9 116.617 98.9431 119.898 97.6739C120.121 97.5873 120.35 97.5166 120.583 97.4624C124.562 96.5159 124.162 84.543 124.162 84.543L132.329 88.0332C132.329 88.0332 130.816 95.019 130.869 96.3668C130.882 96.8196 131.241 97.1017 131.71 97.2725C132.434 97.4765 133.189 97.5572 133.941 97.5112C133.941 97.5112 135.708 100.052 135.506 100.5Z" fill="#FBBEBE"/>
<path d="M150.127 113.62L151.286 113.921C151.286 113.921 152.144 115.211 150.127 116.413C148.846 117.183 147.617 118.033 146.446 118.959L140.485 120.755L139.337 117.188L144.884 113.023L150.127 113.62Z" fill="#6C63FF"/>
<path opacity="0.1" d="M150.127 113.62L151.286 113.921C151.286 113.921 152.144 115.211 150.127 116.413C148.846 117.183 147.617 118.033 146.446 118.959L140.485 120.755L139.337 117.188L144.884 113.023L150.127 113.62Z" fill="black"/>
<path d="M106.624 117.064L104.306 119.309C104.306 119.309 108.488 124.098 111.705 124.397C114.923 124.695 116.998 120.755 116.998 120.755L114.213 116.416L106.624 117.064Z" fill="#6C63FF"/>
<path opacity="0.1" d="M106.624 117.064L104.306 119.309C104.306 119.309 108.488 124.098 111.705 124.397C114.923 124.695 116.998 120.755 116.998 120.755L114.213 116.416L106.624 117.064Z" fill="black"/>
<path opacity="0.1" d="M128.649 92.3667C133.103 92.3667 136.714 88.7934 136.714 84.3856C136.714 79.9778 133.103 76.4045 128.649 76.4045C124.194 76.4045 120.583 79.9778 120.583 84.3856C120.583 88.7934 124.194 92.3667 128.649 92.3667Z" fill="black"/>
<path d="M128.649 91.7673C133.103 91.7673 136.714 88.1941 136.714 83.7862C136.714 79.3784 133.103 75.8052 128.649 75.8052C124.194 75.8052 120.583 79.3784 120.583 83.7862C120.583 88.1941 124.194 91.7673 128.649 91.7673Z" fill="#FBBEBE"/>
<path opacity="0.1" d="M143.119 150.789C141.282 150.997 139.474 151.398 137.723 151.985C134.708 152.977 111.084 152.001 110.755 151.985C110.755 151.421 110.755 151.087 110.755 151.087L111.911 148.245L125.615 146.547H132.17C132.17 146.547 142.037 148.842 143.056 149.831C143.097 150.428 143.119 150.789 143.119 150.789Z" fill="black"/>
<path opacity="0.1" d="M135.506 100.5C135.303 100.95 134.448 104.839 134.245 105.237C134.042 105.636 132.935 112.017 132.834 112.375C132.732 112.733 125.535 110.878 125.535 110.878L121.202 107.285L116.749 102.9C116.749 102.9 116.617 98.943 119.898 97.6738L128.043 106.94L131.71 97.2725C132.434 97.4764 133.189 97.5571 133.941 97.5111C133.941 97.5111 135.708 100.052 135.506 100.5Z" fill="black"/>
<path d="M128.043 107.238L119.706 97.7469C119.218 97.4387 118.66 97.2552 118.083 97.2131C117.505 97.171 116.926 97.2715 116.398 97.5056C114.532 98.3056 112.213 98.9537 111.607 99.3524C111.002 99.751 108.732 102.219 108.732 102.219L115.491 119.713L112.515 131.236C112.515 131.236 112.969 137.123 111.81 139.269C111.104 140.64 110.774 142.171 110.851 143.708C110.851 143.708 111.204 146.553 110.802 148.047C110.566 149.046 110.548 150.083 110.75 151.09C110.75 151.09 134.7 152.088 137.723 151.09C139.473 150.501 141.282 150.1 143.119 149.894C143.119 149.894 142.571 139.914 142.023 137.519C141.475 135.125 142.478 125.997 142.478 125.997L141.823 116.218L145.753 106.184C145.753 106.184 143.624 99.751 141.404 99.1029C141.404 99.1029 137.372 98.1537 136.514 97.7062C135.656 97.2588 133.135 96.8574 133.135 96.8574L131.811 97.2967L128.043 107.238Z" fill="#6C63FF"/>
<path opacity="0.1" d="M139.675 115.887L122.131 114.707C121.687 114.677 121.303 115.009 121.272 115.448L119.389 142.856C119.359 143.296 119.694 143.676 120.138 143.706L137.682 144.886C138.126 144.916 138.51 144.584 138.54 144.145L140.424 116.737C140.454 116.298 140.119 115.917 139.675 115.887Z" fill="black"/>
<path d="M140.279 115.292L122.736 114.112C122.292 114.082 121.907 114.414 121.877 114.853L119.994 142.261C119.963 142.7 120.299 143.081 120.743 143.111L138.286 144.291C138.73 144.321 139.115 143.989 139.145 143.55L141.028 116.142C141.058 115.702 140.723 115.322 140.279 115.292Z" fill="#3F3D56"/>
<path d="M139.7 117.44L123.015 116.318L121.3 141.269L137.985 142.392L139.7 117.44Z" fill="white"/>
<path opacity="0.1" d="M138.203 123.809L124.574 122.865L124.308 126.624L137.938 127.568L138.203 123.809Z" fill="black"/>
<path opacity="0.1" d="M137.711 138.746L135.548 138.601L135.413 140.559L137.576 140.705L137.711 138.746Z" fill="black"/>
<path opacity="0.1" d="M135.577 134.018L124.506 133.273L124.371 135.232L135.443 135.977L135.577 134.018Z" fill="black"/>
<path d="M137.634 116.508L126.106 115.732L125.9 118.743L137.427 119.519L137.634 116.508Z" fill="#3F3D56"/>
<path opacity="0.1" d="M137.634 116.508L126.106 115.732L125.9 118.743L137.427 119.519L137.634 116.508Z" fill="black"/>
<path opacity="0.1" d="M129.051 150.238C129.051 150.238 128.949 165.007 125.017 173.487C125.017 173.487 129.758 162.312 129.758 161.864C129.758 161.417 132.378 156.725 131.676 155.328C130.975 153.932 129.051 150.238 129.051 150.238Z" fill="black"/>
<path opacity="0.1" d="M129.265 81.7902C129.114 80.483 129.438 79.1654 130.178 78.0722C130.09 79.1679 130.403 80.2584 131.06 81.1446C131.717 82.0307 132.674 82.6536 133.757 82.8994C133.665 82.82 133.599 82.7149 133.568 82.5977C133.537 82.4806 133.543 82.3569 133.584 82.2431C134.146 82.8722 134.576 83.618 135.212 84.1712C135.848 84.7245 136.802 85.0553 137.55 84.6621C138.567 84.1197 138.578 82.6906 138.315 81.5787C137.75 79.2108 136.592 77.0218 134.946 75.2139C134.536 74.6674 134.003 74.2224 133.39 73.9137C132.776 73.6051 132.099 73.4412 131.411 73.4349C129.854 73.3156 128.237 73.4512 126.842 74.1427C126.057 74.5666 125.322 75.075 124.65 75.6586L120.813 78.7556C120.444 79.0188 120.128 79.3481 119.881 79.7265C119.716 80.0428 119.618 80.3886 119.591 80.7434C119.493 81.7577 119.682 82.7789 120.138 83.6924C120.594 84.606 121.299 85.3756 122.172 85.915C122.154 85.1133 122.377 84.3244 122.812 83.6483C123.248 82.9723 123.877 82.4397 124.62 82.1183C124.736 82.2146 124.83 82.3343 124.896 82.4694C124.961 82.6046 124.997 82.7521 125.001 82.9021L125.809 81.4756C125.929 81.2161 126.119 80.9939 126.357 80.8329C126.856 80.5617 127.478 80.8817 127.903 81.2641C128.328 81.6465 128.742 82.1238 129.312 82.1834L129.334 80.06" fill="black"/>
<path d="M129.265 81.4919C129.114 80.1839 129.437 78.8652 130.177 77.7712C129.931 79.9407 131.583 82.1808 133.759 82.5984C133.667 82.5197 133.601 82.415 133.57 82.2983C133.539 82.1815 133.545 82.0582 133.587 81.9448C134.149 82.574 134.579 83.317 135.215 83.873C135.851 84.4289 136.804 84.757 137.552 84.3611C138.569 83.8187 138.58 82.3896 138.317 81.2804C137.752 78.9125 136.594 76.7236 134.949 74.9156C134.438 74.2999 133.795 73.8051 133.066 73.4675C132.538 73.2743 131.984 73.1627 131.422 73.1366C129.865 73.0173 128.248 73.1502 126.853 73.8417C126.068 74.2675 125.333 74.7767 124.66 75.3604L120.824 78.4573C120.454 78.7198 120.138 79.0493 119.892 79.4282C119.727 79.7444 119.628 80.0903 119.601 80.4451C119.503 81.459 119.693 82.4798 120.149 83.3928C120.605 84.3059 121.31 85.0751 122.183 85.614C122.165 84.8125 122.388 84.0238 122.824 83.3479C123.26 82.672 123.888 82.1393 124.63 81.8174C124.746 81.9139 124.84 82.0337 124.906 82.1688C124.971 82.3039 125.007 82.4512 125.011 82.6011L125.817 81.1801C125.937 80.92 126.126 80.6977 126.365 80.5373C126.864 80.2662 127.486 80.5862 127.911 80.9685C128.336 81.3509 128.75 81.8255 129.32 81.8879L129.341 79.7617" fill="#3F3D56"/>
<path d="M133.085 131.833C132.381 131.48 120.733 133.278 120.733 133.278C120.733 133.278 118.815 132.736 114.177 131.982C109.54 131.228 109.244 126.742 109.244 126.742L108.737 117.763L110.302 116.407L117.006 120.746C117.006 120.746 117.11 122.94 117.006 123.336C116.94 123.608 116.765 123.93 116.781 124.15C116.786 124.209 116.811 124.266 116.852 124.31C116.892 124.354 116.946 124.383 117.006 124.394C117.461 124.508 123.66 125.5 123.66 125.5C123.66 125.5 138.029 124.527 141.611 129.316C141.895 129.668 142.11 130.069 142.244 130.498C143.132 133.772 133.724 132.145 133.085 131.833Z" fill="#FBBEBE"/>
<path opacity="0.1" d="M142.253 130.517C141.705 130.759 141.365 130.932 141.365 130.932C141.365 130.932 136.224 130.783 133.335 129.747C130.446 128.711 126.935 128.896 126.935 128.896C126.935 128.896 114.899 126.846 116.765 124.169C116.77 124.228 116.795 124.285 116.835 124.329C116.876 124.373 116.93 124.402 116.99 124.413C117.445 124.527 123.644 125.519 123.644 125.519C123.644 125.519 138.013 124.546 141.595 129.335C141.888 129.685 142.111 130.086 142.253 130.517Z" fill="black"/>
<path d="M147.252 114.718C147.252 114.718 147.959 119.656 148.008 120.058C148.057 120.459 148.312 125.294 148.008 125.845C147.704 126.395 147.252 127.29 147.252 127.29C147.252 127.29 147.756 128.337 145.739 128.738C143.722 129.14 141.354 130.333 141.354 130.333C141.354 130.333 136.21 130.184 133.337 129.137C130.465 128.09 126.935 128.288 126.935 128.288C126.935 128.288 111.656 125.693 118.212 122.526C124.767 119.358 129.405 123.648 129.405 123.648L136.714 123.201C136.714 123.201 139.438 121.552 140.194 121.704C140.729 121.771 141.271 121.684 141.757 121.454L141.809 116.215L147.252 114.718Z" fill="#FBBEBE"/>
<path opacity="0.1" d="M110.188 102.596L108.724 102.52L104.29 119.605C104.29 119.605 109.078 118.406 111.142 119.605C113.205 120.803 116.99 121.05 116.99 121.05L115.579 107.431L110.188 102.596Z" fill="black"/>
<path d="M110.188 102.295L108.724 102.219L104.29 119.304C104.29 119.304 109.078 118.105 111.142 119.304C113.205 120.502 116.99 120.749 116.99 120.749L115.579 107.13L110.188 102.295Z" fill="#6C63FF"/>
<path opacity="0.1" d="M143.724 106.037L145.739 106.487C145.739 106.487 150.883 113.809 151.286 114.219C151.689 114.628 149.367 116.117 148.411 116.117C147.455 116.117 142.765 116.66 141.403 117.912C140.041 119.165 140.608 112.86 140.608 112.717C140.608 112.573 142.299 108.594 142.299 108.594L143.724 106.037Z" fill="black"/>
<path d="M143.724 105.739L145.739 106.186C145.739 106.186 150.883 113.522 151.286 113.921C151.689 114.319 149.367 115.819 148.411 115.819C147.455 115.819 142.765 116.361 141.403 117.614C140.041 118.867 140.608 112.562 140.608 112.418C140.608 112.275 142.31 108.283 142.31 108.283L143.724 105.739Z" fill="#6C63FF"/>
<g opacity="0.1">
<path opacity="0.1" d="M130.164 77.7956C130.152 77.5877 130.157 77.3791 130.178 77.1719C129.761 77.7914 129.474 78.4877 129.334 79.2193V79.8485C129.334 79.8485 129.334 79.8349 129.334 79.8268V79.976C129.334 80.4153 129.334 80.8573 129.32 81.2966H129.282V81.5C129.282 81.4295 129.282 81.3617 129.268 81.2912C128.72 81.2044 128.328 80.7488 127.92 80.3855C127.511 80.0221 126.873 79.6749 126.374 79.9543C126.135 80.1146 125.945 80.337 125.826 80.597L125.012 82.018C125.008 81.8685 124.972 81.7214 124.907 81.5867C124.841 81.452 124.747 81.3328 124.631 81.237C123.888 81.5584 123.259 82.0909 122.824 82.767C122.388 83.443 122.165 84.232 122.184 85.0336C121.435 84.5694 120.808 83.9354 120.356 83.1843C119.904 82.4331 119.639 81.5862 119.583 80.7136C119.535 81.688 119.751 82.6573 120.208 83.5215C120.665 84.3858 121.347 85.1137 122.184 85.6302C122.166 84.8287 122.389 84.0401 122.825 83.3642C123.26 82.6883 123.889 82.1556 124.631 81.8336C124.747 81.9302 124.841 82.0499 124.906 82.185C124.972 82.3201 125.008 82.4675 125.012 82.6173L125.818 81.1963C125.937 80.9363 126.127 80.7139 126.366 80.5536C126.865 80.2824 127.487 80.6024 127.911 80.9848C128.336 81.3672 128.75 81.8417 129.32 81.9041C129.32 81.2099 129.327 80.5174 129.342 79.8268C129.476 79.1023 129.756 78.4117 130.164 77.7956Z" fill="black"/>
<path opacity="0.1" d="M129.238 80.5264C129.251 80.342 129.273 80.1576 129.301 79.9841L129.331 79.2356C129.248 79.6607 129.217 80.094 129.238 80.5264Z" fill="black"/>
<path opacity="0.1" d="M137.553 83.7618C136.805 84.1577 135.852 83.8268 135.216 83.2736C134.58 82.7204 134.15 81.9746 133.588 81.3455C133.546 81.4593 133.54 81.5829 133.571 81.7001C133.602 81.8172 133.668 81.9224 133.76 82.0017C133.706 82.0017 133.654 81.9746 133.601 81.9611C134.15 82.5848 134.585 83.317 135.216 83.8594C135.846 84.4018 136.805 84.7435 137.553 84.3475C138.302 83.9516 138.515 83.0241 138.45 82.1211C138.4 82.8316 138.143 83.4472 137.553 83.7618Z" fill="black"/>
<path opacity="0.1" d="M133.584 81.9556C132.668 81.7085 131.85 81.19 131.239 80.4698C130.629 79.7495 130.256 78.8619 130.17 77.9258C130.013 80.0546 131.636 82.1889 133.76 82.5984C133.669 82.5206 133.604 82.4179 133.573 82.3035C133.542 82.189 133.546 82.0679 133.584 81.9556Z" fill="black"/>
</g>
<path d="M265.201 126.279C265.201 126.279 264.121 126.129 264.121 124.576C264.121 123.022 263.348 120.112 263.348 120.112C263.348 120.112 262.679 115.049 261.756 114.246C260.832 113.443 259.645 108.73 259.645 108.73C259.645 108.73 259.443 106.173 259.029 105.622C258.615 105.072 258.056 103.724 257.231 101.801C256.406 99.8785 252.975 98.5605 252.975 98.5605C252.975 98.5605 246.756 94.9917 244.994 93.8283C244.833 93.7319 244.682 93.6192 244.544 93.492C244.238 93.0961 242.9 93.0879 242.9 93.0879C242.76 92.212 242.626 91.2086 242.582 90.3001C242.582 90.2025 242.582 90.1049 242.582 90.0072C244.547 88.8579 246.027 87.0457 246.751 84.9035C246.784 84.8004 246.811 84.6947 246.841 84.5889C246.961 84.5522 247.072 84.4907 247.167 84.4084C247.261 84.3261 247.337 84.225 247.389 84.1116C247.545 83.7618 247.551 83.355 247.748 83.0269C247.978 82.6418 248.417 82.4357 248.762 82.1482C249.634 81.4133 249.859 80.1794 249.817 79.0594C249.79 78.1482 249.642 77.2316 249.7 76.3285C249.7 76.2526 249.7 76.1767 249.716 76.1007C249.732 75.9678 249.752 75.8295 249.776 75.6994C249.911 75.0268 250.204 74.3922 250.368 73.7251C250.533 73.058 250.549 72.3068 250.166 71.7319C249.604 70.8885 248.433 70.7204 247.406 70.6471C246.241 70.5495 245.213 70.6743 244.454 69.717C244.106 69.217 243.713 68.7487 243.281 68.3176C243.128 68.1766 241.637 67.2736 241.637 67.2166C240.178 66.5455 238.523 66.4193 236.978 66.8614C236.202 67.0837 235.476 67.4471 234.689 67.6288C233.001 68.0248 231.055 67.5963 229.619 68.5536C228.819 69.0959 228.339 69.961 227.89 70.799C227.524 71.4896 227.153 72.1812 226.777 72.8736C226.168 74.0099 225.555 75.1651 225.3 76.4234C225.246 76.6983 225.213 76.9765 225.198 77.256C225.198 77.3563 225.198 77.4567 225.198 77.557C225.198 77.6004 225.198 77.6438 225.198 77.6872C225.198 77.7794 225.198 77.8716 225.215 77.9584C225.231 78.0451 225.215 78.0696 225.234 78.1265C225.253 78.1834 225.259 78.3109 225.275 78.3977C225.291 78.4845 225.324 78.639 225.357 78.7557C225.357 78.8072 225.39 78.856 225.407 78.9075C225.423 78.959 225.467 79.0892 225.503 79.1787C225.538 79.2682 225.541 79.2736 225.563 79.3197C225.604 79.4146 225.653 79.5068 225.703 79.5909C225.725 79.6262 225.741 79.6614 225.763 79.6967C225.838 79.8236 225.922 79.9451 226.015 80.0601C226.599 80.7841 227.465 81.2452 228.103 81.9231C228.103 81.9503 228.103 81.9774 228.103 82.0045C228.103 82.0777 228.103 82.1509 228.103 82.2269C228.142 83.739 228.554 85.2188 229.303 86.5375C230.052 87.8562 231.116 88.9738 232.401 89.793C232.401 89.8961 232.414 90.0018 232.42 90.1076C232.473 90.9117 232.463 91.7186 232.39 92.5212C232.278 92.3914 232.138 92.288 231.981 92.2186C231.823 92.1491 231.652 92.1154 231.48 92.1198C231.362 92.114 231.244 92.124 231.129 92.1496L231.104 92.1307V92.1551C230.501 92.3015 229.759 92.9225 229.049 94.688C229.049 94.688 226.889 97.0961 225.245 96.9958C223.601 96.8954 219.437 99.5043 219.437 99.5043C219.437 99.5043 215.376 102.11 214.504 104.768C214.017 106.275 213.432 107.75 212.753 109.183L207.719 119.412L206.795 127.548C206.795 127.548 207.307 131.157 207.206 131.711C207.105 132.264 209.314 137.227 209.314 137.227C209.314 137.227 216.612 149.913 219.594 150.564L219.807 150.417C219.936 150.481 220.071 150.53 220.21 150.564L220.824 150.138C220.862 150.614 220.846 151.094 220.775 151.567C220.367 152.823 220.931 160.996 221.649 162.599C222.367 164.202 222.112 185.219 222.112 185.219L222.011 187.071C222.011 187.071 222.011 187.131 222.036 187.234L222.011 187.673L222.085 187.711C222.162 188.3 222.137 188.898 222.011 189.479C221.753 190.293 221.649 192.59 221.649 192.59C221.649 192.59 219.594 205.574 220.569 208.183C221.545 210.792 222.37 213.65 222.37 213.65C222.37 213.65 223.398 216.904 222.419 217.447C221.441 217.989 218.67 218.952 219.235 220.305C219.755 221.558 221.731 224.915 222.025 225.406L222 225.677L221.597 229.997C221.662 230.568 221.819 231.124 222.06 231.646C222.502 232.59 223.357 233.563 224.99 233.458C225.264 233.439 225.579 233.409 225.889 233.368C228.873 232.969 232.546 231.651 232.546 231.651C232.356 231.532 232.181 231.389 232.028 231.226C231.881 231.085 231.765 230.916 231.686 230.73C231.608 230.543 231.568 230.343 231.57 230.141C231.614 229.352 230.126 225.607 229.753 224.682L229.668 224.476C229.668 224.476 233.061 220.964 232.497 217.856C232.497 217.856 228.742 215.687 229.978 214.493C231.214 213.3 233.423 209.883 233.423 209.883C233.423 209.883 233.524 197.097 233.423 195.19C233.317 193.864 233.381 192.53 233.612 191.22C233.653 191.025 233.703 190.832 233.755 190.64C235.465 190.895 237.193 191.025 238.923 191.027C239.556 191.027 240.195 191.015 240.842 190.99C240.842 191.17 240.85 191.366 240.867 191.575C241.009 194.743 241.275 200.299 241.491 202.363C241.798 205.319 243.495 213.295 243.495 213.295C243.495 213.295 240.258 215.348 244.059 220.416C244.059 220.416 244.059 222.249 243.807 222.518C243.538 223.387 243.321 224.272 243.158 225.167C242.999 226.119 242.933 227.087 243.191 227.586C243.807 228.785 247.507 228.687 247.507 228.687C247.537 228.681 247.567 228.676 247.598 228.674C248.296 228.601 249.002 228.666 249.674 228.866C250.347 229.067 250.972 229.398 251.514 229.84C252.92 230.957 258.253 230.469 261.145 230.111C262.276 229.967 263.033 229.84 263.033 229.84C263.069 229.713 263.082 229.581 263.071 229.449C263.041 228.747 262.485 227.207 258.714 225.832C258.714 225.832 255.167 223.472 255.217 221.417H255.137H254.729C254.986 221.409 255.167 221.409 255.167 221.409C255.167 221.409 253.778 216.394 254.345 215.985C254.912 215.575 253.213 210.019 253.213 210.019C253.213 210.019 252.24 200.69 252.185 200.039C252.189 199.478 252.276 198.921 252.443 198.385L252.185 193.267C252.185 193.267 252.136 191.567 252.185 191.014C252.18 190.534 252.141 190.054 252.07 189.579C252.046 189.39 252.021 189.192 251.994 188.996C253.323 188.663 254.186 188.356 254.186 188.356L254.033 170.553C255.162 168.383 255.37 163.621 255.364 160.248C255.364 158.078 255.266 156.473 255.266 156.473L256.809 153.98C256.809 153.98 257.165 150.997 256.601 150.344C256.351 150.048 256.463 149.742 256.669 149.49C256.777 149.402 256.892 149.322 257.012 149.251C256.998 149.232 256.986 149.212 256.976 149.191C257.084 149.102 257.198 149.022 257.319 148.95C257.319 148.95 256.77 148.109 257.261 147.754C257.721 148.063 258.133 148.31 258.445 148.486C258.423 148.684 258.401 148.798 258.401 148.798L258.533 148.527C258.834 148.695 259.018 148.798 259.018 148.798C259.018 148.798 261.435 144.033 261.383 143.334C261.331 142.634 263.027 139.673 263.027 139.673C263.027 139.673 263.233 138.116 264.159 137.465C265.086 136.814 264.877 132.098 264.877 132.098C264.877 132.098 265.135 129.641 265.752 128.641C266.368 127.64 265.201 126.279 265.201 126.279ZM218.95 124.188L218.996 125.324C218.722 124.887 218.525 124.576 218.525 124.576L218.95 124.188Z" fill="url(#paint1_linear_854_10753)"/>
<path d="M259.161 146.737L258.569 149.232C258.569 149.232 253.827 146.832 252.975 143.795C252.123 140.757 254.403 139.599 254.403 139.599L258.824 141.449L259.161 146.737Z" fill="white"/>
<path opacity="0.1" d="M259.161 146.737L258.569 149.232C258.569 149.232 253.827 146.832 252.975 143.795C252.123 140.757 254.403 139.599 254.403 139.599L258.824 141.449L259.161 146.737Z" fill="black"/>
<path d="M232.552 231.649C232.552 231.649 228.167 233.243 225.152 233.444C223.552 233.55 222.71 232.579 222.277 231.643C222.042 231.127 221.888 230.579 221.822 230.016L222.22 225.718L222.428 223.432L228.833 221.783L229.74 224.53L229.825 224.736C230.187 225.656 231.65 229.382 231.606 230.16C231.603 230.361 231.641 230.561 231.717 230.748C231.794 230.934 231.908 231.103 232.053 231.245C232.201 231.4 232.369 231.536 232.552 231.649Z" fill="white"/>
<path d="M262.49 229.463C262.501 229.594 262.488 229.727 262.451 229.853C262.451 229.853 253.073 231.399 251.155 229.853C250.615 229.402 249.987 229.067 249.309 228.869C248.632 228.672 247.92 228.616 247.219 228.706C247.219 228.706 243.591 228.804 242.985 227.622C242.733 227.125 242.799 226.163 242.955 225.216C243.114 224.326 243.327 223.446 243.591 222.58L243.736 222.466L244.599 221.78L254.706 221.485H254.783C254.734 223.529 258.212 225.875 258.212 225.875C261.914 227.231 262.46 228.763 262.49 229.463Z" fill="white"/>
<path opacity="0.1" d="M262.493 229.463C262.503 229.595 262.489 229.727 262.452 229.854C262.452 229.854 253.074 231.399 251.158 229.854C250.619 229.402 249.99 229.066 249.311 228.869C248.633 228.671 247.921 228.616 247.22 228.707C247.22 228.707 243.589 228.804 242.983 227.622C242.733 227.125 242.796 226.163 242.953 225.214C244.35 225.352 246.557 225.696 247.423 226.521C248.733 227.768 250.953 229.016 252.312 229.116C253.386 229.181 259.775 229.382 262.493 229.463Z" fill="black"/>
<path opacity="0.1" d="M232.552 231.649C232.552 231.649 228.167 233.243 225.152 233.444C223.552 233.55 222.71 232.579 222.277 231.643C223.396 232.015 224.944 232.403 225.758 232.047C226.723 231.622 230.143 231.35 232.061 231.234C232.206 231.393 232.371 231.532 232.552 231.649Z" fill="black"/>
<path d="M239.057 103.136C235.44 101.744 230.786 97.1477 231.948 94.9999C232.205 94.4575 232.358 93.8727 232.4 93.2752C232.475 92.4637 232.486 91.6477 232.433 90.8345C232.352 89.5018 232.19 88.1751 231.948 86.8616C231.948 86.8616 243.242 87.1138 242.585 88.7599C242.393 89.2453 242.36 90.0833 242.415 91.0189C242.47 91.9545 242.604 93.0203 242.746 93.9179C242.941 95.1464 243.141 96.0874 243.141 96.0874C243.141 96.0874 242.448 97.0447 242.045 97.0962C241.642 97.1477 244.248 105.129 239.057 103.136Z" fill="#CF6F80"/>
<path opacity="0.1" d="M229.813 224.723L229.728 224.815C226.352 220.774 222.268 225.813 222.268 225.813L222.208 225.704L222.416 223.418L228.821 221.77L229.728 224.517L229.813 224.723Z" fill="black"/>
<path opacity="0.1" d="M254.789 221.769C254.789 221.769 252.322 221.721 251.007 222.871C249.691 224.02 243.333 223.117 243.607 222.871C243.687 222.745 243.736 222.603 243.75 222.456L244.613 221.769L254.721 221.474C254.759 221.664 254.789 221.769 254.789 221.769Z" fill="black"/>
<path d="M234.015 190.038C233.832 190.487 233.692 190.953 233.598 191.429C233.37 192.732 233.306 194.058 233.409 195.377C233.511 197.276 233.409 209.997 233.409 209.997C233.409 209.997 231.241 213.39 230.03 214.586C228.819 215.781 232.497 217.929 232.497 217.929C233.045 221.024 229.723 224.516 229.723 224.516C226.347 220.476 222.263 225.512 222.263 225.512C222.263 225.512 220.043 221.715 219.49 220.359C218.936 219.003 221.657 218.068 222.614 217.514C223.57 216.961 222.565 213.718 222.565 213.718C222.565 213.718 221.759 210.873 220.8 208.278C219.84 205.682 221.858 192.766 221.858 192.766C221.858 192.766 221.962 190.469 222.211 189.669C222.336 189.091 222.361 188.497 222.285 187.911C222.269 187.714 222.249 187.551 222.236 187.437C222.222 187.323 222.211 187.274 222.211 187.274L222.249 187.209L223.62 184.682C223.62 184.682 234.673 188.446 234.015 190.038Z" fill="#6C63FF"/>
<path d="M254.789 221.471C254.789 221.471 252.323 221.42 251.007 222.556C249.692 223.692 243.334 222.805 243.608 222.556C243.882 222.307 243.857 220.462 243.857 220.462C240.127 215.421 243.309 213.376 243.309 213.376C243.309 213.376 241.645 205.444 241.344 202.502C241.133 200.449 240.872 194.908 240.733 191.771C240.672 190.415 240.637 189.479 240.637 189.479L243.657 188.885L244.049 188.809L251.399 187.348C251.399 187.348 251.602 188.704 251.739 189.813C251.808 190.286 251.846 190.764 251.851 191.242C251.805 191.784 251.851 193.485 251.851 193.485L252.104 198.572C251.941 199.106 251.856 199.66 251.851 200.218C251.903 200.869 252.86 210.146 252.86 210.146C252.86 210.146 254.524 215.684 253.956 216.083C253.389 216.481 254.789 221.471 254.789 221.471Z" fill="#6C63FF"/>
<path opacity="0.1" d="M242.585 88.7679C242.393 89.2534 242.36 90.0913 242.415 91.0269C240.902 91.9284 239.163 92.3892 237.397 92.3566C235.632 92.324 233.911 91.7992 232.433 90.8425C232.352 89.5099 232.19 88.1832 231.948 86.8696C231.948 86.8696 243.242 87.1218 242.585 88.7679Z" fill="black"/>
<path d="M246.946 82.7801C246.976 85.2406 246.016 87.612 244.279 89.3727C242.542 91.1334 240.169 92.1391 237.682 92.1686C235.196 92.1981 232.799 91.2489 231.02 89.5299C229.241 87.8109 228.224 85.4629 228.194 83.0024C228.194 82.9265 228.194 82.856 228.194 82.7801C228.194 80.3188 229.182 77.9584 230.941 76.2181C232.7 74.4777 235.085 73.5 237.573 73.5C240.06 73.5 242.446 74.4777 244.204 76.2181C245.963 77.9584 246.951 80.3188 246.951 82.7801H246.946Z" fill="#CF6F80"/>
<path opacity="0.1" d="M239.057 103.136C235.44 101.744 230.786 97.1477 231.948 94.9999C232.205 94.4574 232.358 93.8727 232.4 93.2751L237.353 97.305L240.417 99.7918L242.746 93.926C242.941 95.1545 243.141 96.0955 243.141 96.0955C243.141 96.0955 242.448 97.0528 242.045 97.1043C241.642 97.1558 244.248 105.129 239.057 103.136Z" fill="black"/>
<path d="M251.864 120.944L247.729 189.691L242.335 190.04L228.366 150.178L230.657 102.853L231.142 92.8547L237.353 97.9015L240.417 100.388L242.815 94.349L247.274 98.1944L251.864 120.944Z" fill="#6C63FF"/>
<path opacity="0.1" d="M234.016 190.038C233.832 190.487 233.693 190.953 233.599 191.429C229.671 190.83 225.855 189.652 222.28 187.933L222.206 187.895L222.231 187.459V187.231L223.601 184.703C223.601 184.703 234.673 188.446 234.016 190.038Z" fill="black"/>
<path opacity="0.1" d="M243.747 191.44C242.744 191.61 241.732 191.725 240.716 191.784C240.656 190.428 240.62 189.493 240.62 189.493L243.657 188.885L243.747 191.44Z" fill="black"/>
<path opacity="0.1" d="M251.75 189.813C249.801 190.314 246.789 190.879 244.098 190.526L244.06 188.809L251.41 187.348C251.41 187.348 251.605 188.693 251.75 189.813Z" fill="black"/>
<path opacity="0.1" d="M244.048 190.84C232.812 192.739 222.521 187.296 222.521 187.296L222.619 185.452C222.619 185.452 222.874 164.546 222.167 162.943C221.46 161.341 220.909 153.224 221.309 151.985C221.709 150.745 219.848 132.033 219.848 132.033L219.547 124.44L208.505 120.001L213.438 109.823C214.104 108.396 214.677 106.929 215.154 105.43C216.012 102.786 219.994 100.19 219.994 100.19C219.994 100.19 224.077 97.5979 225.691 97.6955C227.306 97.7931 229.421 95.4013 229.421 95.4013C230.984 91.4609 232.398 93.2318 232.398 93.2318C232.398 93.4216 232.398 93.2318 232.321 93.8148C231.773 98.1403 241.184 111.808 241.319 112.052L242.226 133.655L243.133 160.993L244.048 190.84Z" fill="black"/>
<path d="M243.747 190.84C232.51 192.739 222.216 187.296 222.216 187.296L222.318 185.452C222.318 185.452 222.57 164.546 221.863 162.943C221.156 161.341 220.605 153.216 221.008 151.966C221.411 150.715 219.539 132.022 219.539 132.022L219.235 124.429L208.195 119.99L213.128 109.812C213.793 108.386 214.366 106.919 214.844 105.422C215.702 102.786 219.698 100.188 219.698 100.188C219.698 100.188 223.781 97.5952 225.393 97.6928C227.004 97.7904 229.131 95.4013 229.131 95.4013C230.696 91.4609 232.42 93.2318 232.42 93.2318C232.42 93.4216 232.255 93.5029 232.343 93.8148C233.549 98.0101 240.905 111.808 241.039 112.052L241.946 133.655L242.834 161.007L243.747 190.84Z" fill="white"/>
<path opacity="0.1" d="M240.719 112.662C239.51 112.163 233.108 104.931 233.108 104.931V103.285C232.875 102.742 231.488 103.073 230.367 103.453L230.85 93.4541L231.398 93.9043C232.595 98.0968 240.587 112.421 240.719 112.662Z" fill="black"/>
<path d="M241.023 112.066C239.812 111.564 233.41 104.334 233.41 104.334V102.685C233.177 102.143 231.793 102.474 230.669 102.854L231.143 92.8657L231.691 93.3132C232.9 97.5003 240.889 111.822 241.023 112.066Z" fill="white"/>
<path opacity="0.1" d="M222.521 148.134C222.672 148.134 230.335 147.336 230.335 147.336C230.335 147.336 234.975 156.367 234.67 158.561C234.366 160.755 233.815 162.702 231.949 162.358C230.082 162.013 221.904 162.629 221.904 162.629L222.521 148.134Z" fill="black"/>
<path d="M222.216 147.534C222.37 147.534 230.033 146.737 230.033 146.737C230.033 146.737 234.67 155.781 234.368 157.951C234.067 160.12 233.51 162.092 231.647 161.747C229.783 161.403 221.6 162.018 221.6 162.018L222.216 147.534Z" fill="white"/>
<path d="M227.991 143.307C227.991 143.307 235.024 147.049 235.175 148.188C235.325 149.327 231.595 147.689 230.789 147.488C230.259 147.364 229.719 147.28 229.175 147.239L223.801 147.383L227.991 143.307Z" fill="#CF6F80"/>
<path opacity="0.1" d="M238.754 113.129C239.162 113.129 239.494 112.801 239.494 112.397C239.494 111.992 239.162 111.664 238.754 111.664C238.345 111.664 238.014 111.992 238.014 112.397C238.014 112.801 238.345 113.129 238.754 113.129Z" fill="black"/>
<path d="M238.754 112.83C239.162 112.83 239.494 112.503 239.494 112.098C239.494 111.694 239.162 111.366 238.754 111.366C238.345 111.366 238.014 111.694 238.014 112.098C238.014 112.503 238.345 112.83 238.754 112.83Z" fill="#3F3D56"/>
<path opacity="0.1" d="M240.116 144.825C240.525 144.825 240.856 144.497 240.856 144.093C240.856 143.689 240.525 143.361 240.116 143.361C239.707 143.361 239.376 143.689 239.376 144.093C239.376 144.497 239.707 144.825 240.116 144.825Z" fill="black"/>
<path d="M240.116 144.524C240.525 144.524 240.856 144.196 240.856 143.792C240.856 143.388 240.525 143.06 240.116 143.06C239.707 143.06 239.376 143.388 239.376 143.792C239.376 144.196 239.707 144.524 240.116 144.524Z" fill="#3F3D56"/>
<path opacity="0.1" d="M239.494 128.977C239.903 128.977 240.234 128.649 240.234 128.245C240.234 127.84 239.903 127.513 239.494 127.513C239.085 127.513 238.754 127.84 238.754 128.245C238.754 128.649 239.085 128.977 239.494 128.977Z" fill="black"/>
<path d="M239.494 128.679C239.903 128.679 240.234 128.351 240.234 127.947C240.234 127.542 239.903 127.214 239.494 127.214C239.085 127.214 238.754 127.542 238.754 127.947C238.754 128.351 239.085 128.679 239.494 128.679Z" fill="#3F3D56"/>
<path d="M256.551 147.087C256.551 147.087 257.055 147.835 256.551 148.172C256.047 148.508 256.6 149.37 256.6 149.37C256.6 149.37 255.342 150.097 255.896 150.756C256.45 151.415 256.099 154.374 256.099 154.374L254.586 156.866C254.586 156.866 254.676 158.463 254.682 160.622C254.682 163.99 254.482 168.725 253.375 170.884L253.523 188.595C253.523 188.595 248.225 190.512 243.791 189.926L243.133 161.506C243.133 161.506 244.092 145.389 244.446 142.298C244.653 140.693 244.737 139.075 244.698 137.457C244.698 137.457 244.547 132.619 244.04 130.376C244.04 130.376 243.492 120.646 243.437 117.953C243.412 116.665 243.481 112.906 243.558 109.332C243.643 105.424 243.739 101.739 243.739 101.739L242.738 93.9042C242.738 93.9042 243.739 93.8066 244.04 94.2025C244.175 94.3273 244.322 94.439 244.479 94.5361C246.208 95.6913 252.309 99.2439 252.309 99.2439C252.309 99.2439 255.685 100.573 256.493 102.476C257.302 104.38 257.864 105.731 258.256 106.273C258.648 106.815 258.861 109.365 258.861 109.365C258.861 109.365 260.023 114.056 260.931 114.851C261.838 115.645 262.49 120.689 262.49 120.689L254.474 126.927C254.474 126.927 253.769 137.302 253.619 137.704C253.468 138.105 256.551 147.087 256.551 147.087Z" fill="white"/>
<path d="M256.856 147.087C256.856 147.087 257.357 147.836 256.856 148.172C256.354 148.508 256.902 149.37 256.902 149.37C256.902 149.37 255.644 150.097 256.198 150.756C256.752 151.415 256.401 154.374 256.401 154.374L254.893 156.866C254.893 156.866 254.984 158.463 254.992 160.622C254.992 163.99 254.792 168.725 253.685 170.884L253.836 188.595C253.836 188.595 248.538 190.512 244.104 189.927L243.449 161.506C243.449 161.506 244.405 145.389 244.761 142.298C244.968 140.693 245.052 139.075 245.011 137.457C245.011 137.457 244.86 132.619 244.356 130.376C244.356 130.376 243.808 120.646 243.75 117.953C243.725 116.665 243.794 112.906 243.871 109.332C243.956 105.424 244.051 101.739 244.051 101.739L242.73 93.7986C242.73 93.7986 244.051 93.7986 244.356 94.2027C244.489 94.3289 244.636 94.4408 244.794 94.5362C246.521 95.6915 252.621 99.244 252.621 99.244C252.621 99.244 255.99 100.573 256.812 102.477C257.634 104.38 258.182 105.731 258.574 106.273C258.966 106.816 259.18 109.365 259.18 109.365C259.18 109.365 260.342 114.056 261.249 114.851C262.156 115.645 262.811 120.69 262.811 120.69L254.795 126.927C254.795 126.927 254.09 137.303 253.937 137.704C253.783 138.105 256.856 147.087 256.856 147.087Z" fill="white"/>
<path opacity="0.1" d="M247.255 104.041L247.982 106.129L244.169 109.926C244.254 106.018 244.35 102.333 244.35 102.333L243.029 94.395C243.029 94.395 244.35 94.395 244.654 94.7991C244.788 94.9254 244.935 95.0372 245.093 95.1326L248.332 104.377L247.255 104.041Z" fill="black"/>
<path d="M246.946 103.442L247.672 105.527L243.863 109.324C243.945 105.416 244.043 101.731 244.043 101.731L242.72 93.7903C242.72 93.7903 244.043 93.7903 244.345 94.1944C244.479 94.3199 244.626 94.4316 244.783 94.5279L248.042 103.781L246.946 103.442Z" fill="white"/>
<path opacity="0.1" d="M246.946 82.7801C246.947 83.7572 246.791 84.7283 246.485 85.6574C246.434 85.6659 246.381 85.664 246.33 85.6519C246.279 85.6398 246.231 85.6177 246.189 85.5868C246.115 83.1462 244.904 80.8519 243.41 78.9021C242.99 78.314 242.482 77.7927 241.903 77.3563C241.317 76.921 240.588 76.7171 239.859 76.7841C239.036 76.8953 238.31 77.4485 237.48 77.519C236.383 77.6085 235.402 76.8573 234.314 76.8221C233.872 76.8257 233.435 76.9229 233.034 77.1072C232.633 77.2915 232.276 77.5586 231.987 77.8905C231.415 78.5583 230.99 79.3369 230.74 80.1766C230.309 81.4508 230.075 82.7819 230.044 84.1251C230.031 84.8845 229.957 85.8363 229.244 86.113C229.298 85.5549 229.234 84.9919 229.056 84.4596C228.878 83.9274 228.59 83.4376 228.211 83.0214L228.194 83.0024C228.194 82.9265 228.194 82.856 228.194 82.7801C228.194 80.3188 229.182 77.9584 230.941 76.2181C232.7 74.4777 235.085 73.5 237.573 73.5C240.06 73.5 242.446 74.4777 244.204 76.2181C245.963 77.9584 246.951 80.3188 246.951 82.7801H246.946Z" fill="black"/>
<path d="M241.464 68.0464C240.04 67.3835 238.42 67.2582 236.909 67.6939C236.15 67.9163 235.435 68.2769 234.665 68.4586C233.02 68.8519 231.102 68.4261 229.691 69.378C228.907 69.9203 228.435 70.7773 227.997 71.6125L226.901 73.6763C226.303 74.8071 225.7 75.957 225.451 77.2017C225.201 78.4465 225.352 79.8404 226.15 80.8438C226.728 81.5706 227.589 82.0289 228.219 82.715C228.598 83.1333 228.885 83.6246 229.062 84.1581C229.239 84.6915 229.303 85.2556 229.249 85.8146C229.962 85.5434 230.033 84.5862 230.05 83.8268C230.08 82.4836 230.315 81.1526 230.746 79.8783C230.996 79.0386 231.421 78.2599 231.993 77.5922C232.281 77.2599 232.638 76.9924 233.039 76.8077C233.44 76.6229 233.877 76.5252 234.32 76.521C235.416 76.559 236.4 77.3102 237.485 77.218C238.307 77.1502 239.036 76.597 239.864 76.4858C240.594 76.4175 241.323 76.6215 241.908 77.058C242.488 77.493 242.995 78.0145 243.413 78.6038C244.909 80.5563 246.123 82.8397 246.195 85.2885C246.504 85.5109 246.951 85.218 247.105 84.8709C247.258 84.5238 247.264 84.117 247.458 83.7861C247.683 83.4038 248.113 83.1977 248.45 82.9102C249.305 82.1807 249.519 80.9522 249.486 79.8377C249.453 78.7231 249.234 77.5922 249.448 76.4966C249.577 75.8268 249.867 75.1949 250.026 74.5305C250.185 73.8661 250.204 73.1203 249.829 72.5481C249.281 71.7102 248.127 71.542 247.121 71.4634C245.978 71.3658 244.956 71.4905 244.227 70.5386C243.884 70.0426 243.499 69.5762 243.076 69.1447C242.925 69.001 241.464 68.1061 241.464 68.0464Z" fill="#512E4E"/>
<path opacity="0.1" d="M211.668 125.235L208.807 119.998L207.899 128.079C207.899 128.079 208.404 131.67 208.302 132.22C208.201 132.771 210.369 137.707 210.369 137.707C210.369 137.707 217.53 150.33 220.454 150.979L230.321 143.993L227.701 140.701C227.701 140.701 226.793 140.351 226.566 140.701C226.566 140.701 221.699 132.418 221.197 131.822C220.695 131.225 220.791 130.024 220.791 130.024C220.791 130.024 220.035 129.227 220.287 128.478C220.539 127.73 218.84 125.137 218.84 125.137L220.402 123.692L211.668 125.235Z" fill="black"/>
<path d="M208.958 119.399L208.201 119.998L207.294 128.079C207.294 128.079 207.798 131.67 207.697 132.22C207.595 132.771 209.766 137.707 209.766 137.707C209.766 137.707 216.925 150.33 219.849 150.979L229.732 143.993L227.109 140.7C227.109 140.7 226.202 140.351 225.974 140.7C225.974 140.7 221.11 132.418 220.605 131.822C220.101 131.225 220.202 130.024 220.202 130.024C220.202 130.024 219.446 129.227 219.698 128.478C219.95 127.73 218.235 125.137 218.235 125.137L219.797 123.692L208.958 119.399Z" fill="white"/>
<path opacity="0.1" d="M255.896 151.068C256.444 151.727 256.099 154.688 256.099 154.688L254.586 157.164C254.586 157.164 254.677 158.764 254.682 160.923L252.139 161.709C251.909 161.78 251.665 161.796 251.427 161.755C251.19 161.713 250.965 161.616 250.773 161.472C250.581 161.328 250.427 161.14 250.323 160.925C250.219 160.709 250.169 160.473 250.176 160.234L250.618 146.241L256.551 148.483C256.047 148.831 256.601 149.682 256.601 149.682C256.601 149.682 255.343 150.409 255.896 151.068Z" fill="black"/>
<path d="M256.198 150.77C256.746 151.426 256.401 154.387 256.401 154.387L254.894 156.866C254.894 156.866 254.984 158.463 254.992 160.622L252.403 161.422C252.178 161.492 251.939 161.507 251.707 161.467C251.475 161.427 251.256 161.333 251.068 161.192C250.88 161.051 250.729 160.868 250.628 160.657C250.526 160.447 250.477 160.215 250.484 159.982L250.925 145.94L256.856 148.188C256.349 148.535 256.903 149.387 256.903 149.387C256.903 149.387 255.645 150.111 256.198 150.77Z" fill="white"/>
<path d="M258.166 144.093C258.166 144.093 257.763 146.64 256.754 146.789C255.746 146.938 255.294 150.908 254.288 150.77C253.282 150.631 253.948 147.076 253.984 146.387C254.019 145.699 252.887 142.846 253.731 142.197C254.576 141.549 257.261 142.197 257.261 142.197L258.166 144.093Z" fill="#CF6F80"/>
<path opacity="0.1" d="M260.298 124.486L262.197 120.689C262.197 120.689 262.956 123.583 262.956 125.129C262.956 126.675 264.014 126.826 264.014 126.826C264.014 126.826 265.174 128.182 264.562 129.172C263.951 130.162 263.707 132.614 263.707 132.614C263.707 132.614 263.907 137.302 263 137.951C262.093 138.599 261.89 140.147 261.89 140.147C261.89 140.147 260.227 143.09 260.279 143.789C260.331 144.489 257.96 149.227 257.96 149.227C257.96 149.227 259.12 143.339 252.364 140.795C252.364 140.795 252.312 138.799 252.816 138.252C253.32 137.704 254.107 137.438 253.614 134.683C253.12 131.927 253.471 128.605 253.471 127.941C253.471 127.277 254.984 123.136 254.984 123.136L260.298 124.486Z" fill="black"/>
<path d="M261.142 120.147L262.803 120.69C262.803 120.69 263.562 123.583 263.562 125.129C263.562 126.675 264.62 126.827 264.62 126.827C264.62 126.827 265.78 128.183 265.168 129.172C264.557 130.162 264.311 132.614 264.311 132.614C264.311 132.614 264.513 137.303 263.606 137.951C262.699 138.599 262.51 140.147 262.51 140.147C262.51 140.147 260.846 143.09 260.898 143.789C260.951 144.489 258.577 149.227 258.577 149.227C258.577 149.227 259.736 143.339 252.981 140.795C252.981 140.795 252.931 138.8 253.436 138.252C253.94 137.704 254.727 137.438 254.233 134.683C253.74 131.928 254.091 128.606 254.091 127.941C254.091 127.277 255.604 123.136 255.604 123.136L261.142 120.147Z" fill="white"/>
<path opacity="0.1" d="M224.45 218.553C224.45 218.553 227.098 216.907 228.835 218.103C230.573 219.299 224.45 218.553 224.45 218.553Z" fill="black"/>
<path opacity="0.1" d="M245.027 213.463C245.027 213.463 247.371 213.165 249.338 215.261C251.306 217.357 245.027 213.463 245.027 213.463Z" fill="black"/>
<g opacity="0.1">
<path opacity="0.1" d="M248.45 82.3138C248.113 82.6039 247.68 82.8073 247.455 83.1897C247.264 83.5178 247.258 83.9246 247.105 84.2744C246.951 84.6243 246.504 84.9144 246.192 84.6921C246.121 82.2514 244.907 79.9598 243.413 78.0073C242.995 77.4189 242.488 76.8983 241.908 76.4642C241.322 76.0269 240.592 75.8219 239.861 75.8893C239.039 76.0005 238.315 76.5537 237.485 76.6242C236.389 76.7137 235.405 75.9625 234.317 75.9273C233.875 75.9306 233.439 76.0277 233.038 76.212C232.637 76.3963 232.28 76.6636 231.993 76.9958C231.421 77.6635 230.996 78.4422 230.746 79.2819C230.315 80.5561 230.08 81.8871 230.05 83.2304C230.033 83.987 229.962 84.9307 229.255 85.2128C229.271 85.414 229.271 85.6163 229.255 85.8175C229.97 85.5463 230.041 84.589 230.058 83.8297C230.089 82.4864 230.323 81.1554 230.754 79.8812C231.004 79.0415 231.429 78.2628 232.001 77.5951C232.289 77.263 232.645 76.9956 233.046 76.8108C233.447 76.6261 233.883 76.5282 234.325 76.5239C235.421 76.5619 236.408 77.313 237.493 77.2208C238.315 77.153 239.044 76.5998 239.869 76.4886C240.6 76.4204 241.33 76.6245 241.917 77.0608C242.496 77.4959 243.004 78.0174 243.421 78.6066C244.915 80.5592 246.129 82.8426 246.2 85.2914C246.513 85.5138 246.959 85.2209 247.113 84.8738C247.266 84.5266 247.272 84.1199 247.464 83.789C247.688 83.4066 248.121 83.2005 248.458 82.9131C249.314 82.1836 249.527 80.9551 249.494 79.8405C249.494 79.8053 249.494 79.7727 249.494 79.7375C249.44 80.7083 249.179 81.6927 248.45 82.3138Z" fill="black"/>
<path opacity="0.1" d="M228.216 82.124C227.588 81.4379 226.728 80.9768 226.15 80.2501C225.661 79.6085 225.383 78.8344 225.352 78.0317C225.266 79.0354 225.549 80.036 226.15 80.8494C226.728 81.5762 227.588 82.0345 228.216 82.7206C228.822 83.3913 229.186 84.2421 229.252 85.1396C229.293 84.5938 229.223 84.0454 229.045 83.5273C228.867 83.0091 228.585 82.5318 228.216 82.124Z" fill="black"/>
<path opacity="0.1" d="M250.026 73.934C249.864 74.5984 249.577 75.2303 249.445 75.9002C249.366 76.3531 249.337 76.8133 249.36 77.2724C249.369 77.013 249.397 76.7547 249.445 76.4995C249.577 75.8296 249.864 75.1978 250.026 74.5334C250.119 74.1667 250.15 73.7873 250.117 73.4106C250.099 73.587 250.069 73.7619 250.026 73.934Z" fill="black"/>
</g>
<path opacity="0.1" d="M36.3767 227.494C51.1253 227.494 63.0815 225.594 63.0815 223.25C63.0815 220.906 51.1253 219.006 36.3767 219.006C21.628 219.006 9.67188 220.906 9.67188 223.25C9.67188 225.594 21.628 227.494 36.3767 227.494Z" fill="#6C63FF"/>
<path d="M37.2369 141.945H35.5186V180.229H37.2369V141.945Z" fill="#535461"/>
<path d="M48.0379 180.115L47.9283 181.84L47.7776 184.281L47.7146 185.295L47.5611 187.735L47.4953 188.75L47.3446 191.19L45.6097 218.871C45.5358 220.061 45.0055 221.18 44.127 221.997C43.2485 222.814 42.088 223.269 40.8821 223.269H31.8736C30.6645 223.27 29.501 222.812 28.6218 221.991C27.7427 221.169 27.2147 220.046 27.146 218.852L25.4112 191.171L25.2605 188.731L25.1974 187.716L25.0412 185.276L24.9782 184.262L24.8275 181.821L24.7178 180.096C24.6989 179.765 24.7481 179.435 24.8625 179.123C24.9769 178.812 25.1541 178.527 25.3833 178.286C25.6125 178.045 25.8889 177.852 26.1957 177.72C26.5025 177.588 26.8333 177.519 27.168 177.517H45.5906C45.9267 177.519 46.2589 177.589 46.5667 177.722C46.8746 177.856 47.1516 178.05 47.3808 178.294C47.61 178.537 47.7865 178.824 47.8995 179.137C48.0125 179.45 48.0596 179.783 48.0379 180.115Z" fill="#3F3D56"/>
<path d="M47.9288 181.837L47.7753 184.272H24.9787L24.8252 181.837H47.9288Z" fill="#9D9CB5"/>
<path d="M47.7116 185.286L47.5609 187.722H25.1945L25.041 185.286H47.7116Z" fill="#9D9CB5"/>
<path d="M47.4954 188.739L47.3446 191.171H25.4113L25.2578 188.739H47.4954Z" fill="#9D9CB5"/>
<path d="M22.2134 156.297C32.2222 163.461 36.3907 174.667 36.3907 174.667C36.3907 174.667 24.3319 174.257 14.3203 167.093C4.30876 159.928 0.134766 148.73 0.134766 148.73C0.134766 148.73 12.1936 149.132 22.2134 156.297Z" fill="#6C63FF"/>
<path d="M0.134766 148.73C0.134766 148.73 12.6513 155.605 16.6663 161.297C20.6813 166.99 36.3797 174.672 36.3797 174.672" stroke="#535461" stroke-width="2" stroke-miterlimit="10"/>
<path d="M28.6616 141.864C34.11 145.761 36.3793 151.86 36.3793 151.86C36.3793 151.86 29.8017 151.637 24.3671 147.74C18.9324 143.843 16.6494 137.742 16.6494 137.742C16.6494 137.742 23.216 137.964 28.6616 141.864Z" fill="#6C63FF"/>
<path d="M16.6494 137.742C16.6494 137.742 23.4626 141.484 25.6497 144.581C27.8367 147.678 36.3793 151.86 36.3793 151.86" stroke="#535461" stroke-width="2" stroke-miterlimit="10"/>
<path d="M44.2945 151.551C38.0376 158.355 36.7139 167.247 36.7139 167.247C36.7139 167.247 45.536 165.105 51.7874 158.298C58.0388 151.491 59.368 142.602 59.368 142.602C59.368 142.602 50.5514 144.747 44.2945 151.551Z" fill="#6C63FF"/>
<path d="M59.3735 142.604C59.3735 142.604 51.2228 149.579 49.1509 154.385C47.079 159.19 36.7139 167.247 36.7139 167.247" stroke="#535461" stroke-width="2" stroke-miterlimit="10"/>
</g>
<defs>
<linearGradient id="paint0_linear_854_10753" x1="127.585" y1="226.594" x2="127.585" y2="69.9422" gradientUnits="userSpaceOnUse">
<stop stop-color="#808080" stop-opacity="0.25"/>
<stop offset="0.54" stop-color="#808080" stop-opacity="0.12"/>
<stop offset="1" stop-color="#808080" stop-opacity="0.1"/>
</linearGradient>
<linearGradient id="paint1_linear_854_10753" x1="236.35" y1="233.452" x2="236.35" y2="66.5793" gradientUnits="userSpaceOnUse">
<stop stop-color="#808080" stop-opacity="0.25"/>
<stop offset="0.54" stop-color="#808080" stop-opacity="0.12"/>
<stop offset="1" stop-color="#808080" stop-opacity="0.1"/>
</linearGradient>
<clipPath id="clip0_854_10753">
<rect width="320" height="234" fill="white"/>
</clipPath>
</defs>
</svg>
