<svg width="320" height="234" viewBox="0 0 320 234" fill="none" xmlns="http://www.w3.org/2000/svg">
<path d="M16.6954 233.477C16.674 233.362 14.6036 221.88 18.8319 212.343C23.0601 202.807 32.0856 198.601 32.1763 198.559L32.5888 198.371L32.6862 198.894C32.7076 199.009 34.778 210.491 30.5498 220.028C26.3217 229.565 17.296 233.77 17.2054 233.812L16.7927 234L16.6954 233.477ZM32.0231 199.647C30.2152 200.593 23.08 204.733 19.5089 212.787C15.9374 220.842 17.015 230.368 17.3586 232.724C19.1657 231.78 26.2981 227.647 29.8727 219.584C33.444 211.529 32.3669 202.004 32.0231 199.647V199.647Z" fill="#F1F1F1"/>
<path d="M27.3186 216.683C19.7203 222.243 16.7939 233.286 16.7939 233.286C16.7939 233.286 26.1869 235.315 33.7853 229.755C41.3836 224.196 44.31 213.152 44.31 213.152C44.31 213.152 34.917 211.123 27.3186 216.683Z" fill="#F1F1F1"/>
<path d="M142.387 127.553C142.502 126.825 142.486 126.076 142.338 125.357C142.19 124.638 141.914 123.968 141.53 123.393C141.145 122.818 140.662 122.352 140.114 122.029C139.566 121.705 138.966 121.532 138.357 121.521L134.838 110.759L128.939 111.765L134.084 126.878C134.137 128.124 134.563 129.303 135.283 130.192C136.003 131.081 136.965 131.617 137.989 131.701C139.012 131.784 140.025 131.407 140.836 130.643C141.646 129.878 142.198 128.779 142.387 127.553Z" fill="#9F616A"/>
<path d="M131.519 123.771L129.691 118.47L118.301 92.1008L118.92 43.3081L119.039 43.2889C126.327 42.1177 131.258 82.9604 131.465 84.6997L138.661 114.634L140.374 121.232L131.519 123.771Z" fill="#6C63FF"/>
<path d="M114.017 226.659L119.555 226.658L122.189 200.679L114.016 200.679L114.017 226.659Z" fill="#9F616A"/>
<path d="M112.604 224.46L123.511 224.459H123.511C125.354 224.459 127.122 225.35 128.425 226.935C129.729 228.52 130.461 230.67 130.461 232.912V233.187L112.605 233.188L112.604 224.46Z" fill="#2F2E41"/>
<path d="M63.0977 216.396L67.6415 220.247L82.0156 200.765L75.3096 195.082L63.0977 216.396Z" fill="#9F616A"/>
<path d="M62.9728 213.61L71.9208 221.194L71.9212 221.194C73.4334 222.476 74.465 224.436 74.7892 226.643C75.1133 228.85 74.7034 231.123 73.6496 232.962L73.5205 233.187L58.8701 220.771L62.9728 213.61Z" fill="#2F2E41"/>
<path d="M110.974 220.552L110.734 171.816L107.25 141.172L100.753 168.121L100.741 168.143L77.1986 209.712L68.0381 204.067L68.0883 203.922C68.6481 202.302 81.8395 164.266 85.3853 164.266C85.6949 164.293 86.0052 164.227 86.2894 164.075C86.5735 163.924 86.8231 163.69 87.0165 163.395C88.0572 161.704 87.2097 158.118 87.201 158.082C86.186 152.963 88.7381 151.22 89.2464 150.929L90.6136 116.603L90.7553 116.615L127.819 119.777L126.264 162.693L122.919 218.921L122.804 218.937L110.974 220.552Z" fill="#2F2E41"/>
<path d="M128.385 127.383L128.224 127.367L88.3633 123.459L88.4617 107.418L90.4127 65.5349L90.4237 65.5058L98.369 44.5269L104.001 41.4251L112.218 40.8992L112.238 40.9053L119.738 43.165L127.539 111.275L128.385 127.383Z" fill="#6C63FF"/>
<path d="M113.506 35.5226C118.592 32.1412 120.461 24.3856 117.681 18.1999C114.901 12.0142 108.524 9.74091 103.438 13.1223C98.3524 16.5037 96.4833 24.2594 99.2635 30.445C102.044 36.6307 108.42 38.904 113.506 35.5226Z" fill="#9F616A"/>
<path d="M97.9175 27.5266V22.5533C97.9175 22.5533 94.6199 17.8297 98.2473 16.6398C98.2473 16.6398 99.2366 4.74103 107.81 10.2938C107.81 10.2938 119.682 7.91404 118.363 16.2432C118.363 16.2432 121.331 14.0687 120.341 19.6215L118.428 28.566C118.428 28.566 119.352 22.6575 116.384 21.8642L114.735 20.6744C114.735 20.6744 110.119 26.2271 103.194 19.4845C103.194 19.4845 100.226 18.623 100.556 22.1926C100.885 25.7622 97.9175 27.5266 97.9175 27.5266Z" fill="#2F2E41"/>
<path d="M107.38 115.404C107.386 114.663 107.259 113.929 107.008 113.255C106.756 112.58 106.386 111.981 105.923 111.499C105.46 111.017 104.916 110.664 104.329 110.466C103.742 110.267 103.126 110.228 102.526 110.35L97.476 100.531L91.8213 102.807L99.1123 116.552C99.3479 117.767 99.9416 118.833 100.781 119.551C101.62 120.268 102.646 120.586 103.665 120.444C104.684 120.303 105.625 119.712 106.31 118.783C106.995 117.854 107.375 116.651 107.38 115.404Z" fill="#9F616A"/>
<path d="M94.3384 112.309L85.2031 89.7511L85.2112 89.6962C85.248 89.4465 88.9253 64.6135 91.7377 55.4857C94.568 46.3 98.442 44.4557 98.6055 44.3817L98.6873 44.3447L102.161 48.3972L97.3491 87.46L102.536 106.299L94.3384 112.309Z" fill="#6C63FF"/>
<path d="M320 0H302.312V21.5127H320V0Z" fill="#F1F1F1"/>
<path d="M181.573 83.7124H163.885V105.225H181.573V83.7124Z" fill="#F1F1F1"/>
<path d="M173.812 95.7981H313.653V9.69653H173.812V95.7981Z" fill="white"/>
<path d="M314.807 97.2011H172.659V8.29346H314.807V97.2011ZM174.966 94.3951H312.499V11.0995H174.966V94.3951Z" fill="#E5E5E5"/>
<path d="M298.189 39.8994H190.598V44.239H298.189V39.8994Z" fill="#E5E5E5"/>
<path d="M298.189 50.4233H190.598V54.7629H298.189V50.4233Z" fill="#E5E5E5"/>
<path d="M298.189 65.9622H278.194V69.7281H298.189V65.9622Z" fill="#6C63FF"/>
<path d="M146.887 233.981H0.38452C0.282539 233.981 0.184735 233.932 0.112623 233.844C0.0405115 233.757 0 233.638 0 233.514C0 233.39 0.0405115 233.271 0.112623 233.183C0.184735 233.095 0.282539 233.046 0.38452 233.046H146.887C146.989 233.046 147.086 233.095 147.159 233.183C147.231 233.271 147.271 233.39 147.271 233.514C147.271 233.638 147.231 233.757 147.159 233.844C147.086 233.932 146.989 233.981 146.887 233.981Z" fill="#CBCBCB"/>
</svg>
