<svg width="320" height="234" viewBox="0 0 320 234" fill="none" xmlns="http://www.w3.org/2000/svg">
<g clip-path="url(#clip0_854_10333)">
<path d="M319.538 232.205H0.462428C0.339784 232.205 0.222164 232.156 0.135442 232.068C0.0487196 231.981 0 231.861 0 231.737C0 231.613 0.0487196 231.494 0.135442 231.406C0.222164 231.319 0.339784 231.269 0.462428 231.269H319.538C319.66 231.269 319.778 231.319 319.865 231.406C319.951 231.494 320 231.613 320 231.737C320 231.861 319.951 231.981 319.865 232.068C319.778 232.156 319.66 232.205 319.538 232.205Z" fill="#CCCCCC"/>
<path d="M287.956 150.565H100.21C99.4127 150.565 98.6482 150.886 98.0845 151.457C97.5208 152.027 97.2041 152.801 97.2041 153.608C97.2041 154.415 97.5208 155.189 98.0845 155.76C98.6482 156.33 99.4127 156.651 100.21 156.651H105.528V229.443C105.528 230.25 105.844 231.024 106.408 231.594C106.972 232.165 107.736 232.486 108.534 232.486C109.331 232.486 110.095 232.165 110.659 231.594C111.223 231.024 111.539 230.25 111.539 229.443L111.585 156.651H276.164V229.443C276.164 230.25 276.48 231.024 277.044 231.594C277.608 232.165 278.372 232.486 279.169 232.486C279.967 232.486 280.731 232.165 281.295 231.594C281.859 231.024 282.175 230.25 282.175 229.443V158.255L283.05 156.651H287.956C288.753 156.651 289.517 156.33 290.081 155.76C290.645 155.189 290.961 154.415 290.961 153.608C290.961 152.801 290.645 152.027 290.081 151.457C289.517 150.886 288.753 150.565 287.956 150.565V150.565Z" fill="#CCCCCC"/>
<path d="M204.298 152.158H147.428C146.327 152.156 145.271 151.713 144.492 150.925C143.714 150.137 143.276 149.068 143.274 147.953V116.258C143.276 115.143 143.714 114.074 144.492 113.286C145.271 112.498 146.327 112.054 147.428 112.053H204.298C205.399 112.054 206.455 112.498 207.234 113.286C208.012 114.074 208.45 115.143 208.451 116.258V147.953C208.45 149.068 208.012 150.137 207.234 150.925C206.455 151.713 205.399 152.156 204.298 152.158V152.158Z" fill="#3F3D56"/>
<path d="M204.297 115.289H147.428C147.174 115.289 146.931 115.392 146.752 115.573C146.572 115.755 146.471 116.001 146.471 116.258V147.954C146.471 148.211 146.572 148.457 146.752 148.639C146.931 148.82 147.174 148.922 147.428 148.923H204.297C204.551 148.922 204.794 148.82 204.974 148.639C205.153 148.457 205.254 148.211 205.255 147.954V116.258C205.254 116.001 205.153 115.755 204.974 115.573C204.794 115.392 204.551 115.289 204.297 115.289V115.289Z" fill="white"/>
<path d="M180.713 137.729C180.713 137.729 173.905 136.141 170.161 139.053C166.417 141.964 174.927 148.581 174.927 148.581L180.713 137.729Z" fill="#2F2E41"/>
<path d="M176.196 134.729C179.743 134.729 182.618 131.818 182.618 128.228C182.618 124.638 179.743 121.727 176.196 121.727C172.65 121.727 169.774 124.638 169.774 128.228C169.774 131.818 172.65 134.729 176.196 134.729Z" fill="#A0616A"/>
<path d="M171.23 119.103C171.658 118.367 172.279 117.765 173.024 117.364C173.769 116.963 174.608 116.778 175.45 116.83C176.331 116.941 177.191 117.185 178.001 117.552L182.199 119.21C183.285 119.639 184.475 120.164 184.946 121.244C185.384 122.246 185.058 123.403 184.727 124.447L183.156 129.405C182.982 128.283 182.684 127.184 182.266 126.13C181.842 125.068 181.075 124.183 180.091 123.619C179 123.052 177.715 123.064 176.491 123.124C174.757 123.208 172.872 123.432 171.641 124.669C170.987 125.372 170.543 126.249 170.362 127.197C170.184 128.14 170.094 129.098 170.094 130.058C169.383 128.821 168.784 127.521 168.305 126.175C167.91 125.172 167.686 124.11 167.64 123.031C167.599 121.944 167.955 120.879 168.641 120.042C168.989 119.632 169.443 119.329 169.952 119.167C170.461 119.005 171.005 118.99 171.522 119.124L171.23 119.103Z" fill="#2F2E41"/>
<path d="M191.53 143.366C191.47 143.147 191.347 142.95 191.177 142.801C191.006 142.652 190.796 142.557 190.573 142.529C190.558 142.518 190.543 142.509 190.527 142.5L180.94 137.062C180.666 136.906 180.344 136.864 180.04 136.943C179.736 137.022 179.474 137.217 179.308 137.487L176.686 141.784L172.737 137.787L172.674 137.723C172.472 137.518 172.204 137.391 171.919 137.366C171.633 137.341 171.348 137.418 171.113 137.585L163.234 143.17C163.22 143.17 163.206 143.175 163.193 143.175C162.816 143.238 162.471 143.43 162.216 143.719C161.962 144.007 161.812 144.375 161.791 144.761L161.588 148.923H193.052L191.53 143.366Z" fill="#6C63FF"/>
<path d="M209.09 148.277H203.019C203.019 148.105 202.952 147.941 202.832 147.819C202.712 147.698 202.55 147.63 202.38 147.63H200.463C200.294 147.63 200.131 147.698 200.012 147.819C199.892 147.941 199.824 148.105 199.824 148.277H197.907C197.907 148.105 197.84 147.941 197.72 147.819C197.6 147.698 197.438 147.63 197.268 147.63H195.351C195.182 147.63 195.019 147.698 194.9 147.819C194.78 147.941 194.712 148.105 194.712 148.277H192.795C192.795 148.105 192.728 147.941 192.608 147.819C192.488 147.698 192.326 147.63 192.156 147.63H190.24C190.07 147.63 189.908 147.698 189.788 147.819C189.668 147.941 189.601 148.105 189.601 148.277H187.684C187.684 148.105 187.616 147.941 187.496 147.819C187.377 147.698 187.214 147.63 187.045 147.63H185.128C184.958 147.63 184.796 147.698 184.676 147.819C184.556 147.941 184.489 148.105 184.489 148.277H182.572C182.572 148.105 182.504 147.941 182.384 147.819C182.265 147.698 182.102 147.63 181.933 147.63H180.016C179.846 147.63 179.684 147.698 179.564 147.819C179.444 147.941 179.377 148.105 179.377 148.277H177.46C177.46 148.105 177.392 147.941 177.273 147.819C177.153 147.698 176.99 147.63 176.821 147.63H174.904C174.734 147.63 174.572 147.698 174.452 147.819C174.332 147.941 174.265 148.105 174.265 148.277H172.348C172.348 148.105 172.28 147.941 172.161 147.819C172.041 147.698 171.878 147.63 171.709 147.63H169.792C169.622 147.63 169.46 147.698 169.34 147.819C169.22 147.941 169.153 148.105 169.153 148.277H167.236C167.236 148.105 167.169 147.941 167.049 147.819C166.929 147.698 166.766 147.63 166.597 147.63H164.68C164.51 147.63 164.348 147.698 164.228 147.819C164.108 147.941 164.041 148.105 164.041 148.277H162.124C162.124 148.105 162.057 147.941 161.937 147.819C161.817 147.698 161.654 147.63 161.485 147.63H159.568C159.398 147.63 159.236 147.698 159.116 147.819C158.996 147.941 158.929 148.105 158.929 148.277H157.012C157.012 148.105 156.945 147.941 156.825 147.819C156.705 147.698 156.542 147.63 156.373 147.63H154.456C154.287 147.63 154.124 147.698 154.004 147.819C153.884 147.941 153.817 148.105 153.817 148.277H151.9C151.9 148.105 151.833 147.941 151.713 147.819C151.593 147.698 151.431 147.63 151.261 147.63H149.344C149.175 147.63 149.012 147.698 148.892 147.819C148.772 147.941 148.705 148.105 148.705 148.277H142.635C142.127 148.277 141.64 148.482 141.281 148.846C140.922 149.21 140.721 149.703 140.721 150.217C140.721 150.731 140.922 151.224 141.281 151.588C141.64 151.952 142.127 152.157 142.635 152.158H209.09C209.598 152.158 210.086 151.953 210.445 151.589C210.805 151.225 211.007 150.732 211.007 150.217C211.007 149.703 210.805 149.209 210.445 148.845C210.086 148.481 209.598 148.277 209.09 148.277V148.277Z" fill="#3F3D56"/>
<path d="M132.753 137.007V149.892H100.863C100.009 149.923 99.157 149.778 98.3589 149.468C97.5608 149.158 96.8326 148.688 96.2176 148.087C95.6027 147.486 95.1136 146.765 94.7796 145.968C94.4456 145.172 94.2734 144.315 94.2734 143.45C94.2734 142.584 94.4456 141.728 94.7796 140.931C95.1136 140.134 95.6027 139.414 96.2176 138.813C96.8326 138.212 97.5608 137.742 98.3589 137.432C99.157 137.121 100.009 136.977 100.863 137.007H132.753Z" fill="#F2F2F2"/>
<path d="M133.536 149.793C133.536 149.925 133.485 150.051 133.393 150.144C133.301 150.237 133.177 150.289 133.047 150.289H100.295C98.5161 150.289 96.8101 149.574 95.5523 148.3C94.2945 147.027 93.5879 145.3 93.5879 143.499C93.5879 141.699 94.2945 139.972 95.5523 138.699C96.8101 137.425 98.5161 136.71 100.295 136.71H133.047C133.177 136.71 133.301 136.762 133.393 136.855C133.485 136.948 133.536 137.074 133.536 137.205C133.536 137.337 133.485 137.463 133.393 137.556C133.301 137.649 133.177 137.701 133.047 137.701H100.295C98.7767 137.702 97.3211 138.314 96.248 139.401C95.1749 140.488 94.5722 141.962 94.5722 143.499C94.5722 145.036 95.1749 146.51 96.248 147.598C97.3211 148.685 98.7767 149.296 100.295 149.298H133.047C133.177 149.298 133.301 149.35 133.393 149.443C133.485 149.536 133.536 149.662 133.536 149.793V149.793Z" fill="#6C63FF"/>
<path d="M132.754 139.981H98.4843C98.4714 139.981 98.4586 139.978 98.4467 139.973C98.4347 139.968 98.4238 139.961 98.4147 139.952C98.4055 139.943 98.3982 139.932 98.3933 139.92C98.3883 139.908 98.3857 139.895 98.3857 139.882C98.3857 139.869 98.3883 139.856 98.3933 139.844C98.3982 139.831 98.4055 139.82 98.4147 139.811C98.4238 139.802 98.4347 139.795 98.4467 139.79C98.4586 139.785 98.4714 139.782 98.4843 139.782H132.754C132.78 139.783 132.804 139.793 132.823 139.812C132.841 139.83 132.851 139.855 132.851 139.882C132.851 139.908 132.841 139.933 132.823 139.951C132.804 139.97 132.78 139.981 132.754 139.981V139.981Z" fill="#CCCCCC"/>
<path d="M132.754 142.36H98.4843C98.4714 142.36 98.4586 142.357 98.4467 142.352C98.4347 142.347 98.4238 142.34 98.4147 142.331C98.4055 142.322 98.3982 142.311 98.3933 142.299C98.3883 142.286 98.3857 142.273 98.3857 142.26C98.3857 142.247 98.3883 142.234 98.3933 142.222C98.3982 142.21 98.4055 142.199 98.4147 142.19C98.4238 142.181 98.4347 142.174 98.4467 142.169C98.4586 142.164 98.4714 142.161 98.4843 142.161H132.754C132.78 142.161 132.804 142.172 132.823 142.191C132.841 142.209 132.851 142.234 132.851 142.26C132.851 142.287 132.841 142.312 132.823 142.33C132.804 142.349 132.78 142.359 132.754 142.36V142.36Z" fill="#CCCCCC"/>
<path d="M132.754 144.738H98.4843C98.4714 144.738 98.4586 144.736 98.4467 144.731C98.4347 144.726 98.4238 144.719 98.4147 144.71C98.4055 144.7 98.3982 144.689 98.3933 144.677C98.3883 144.665 98.3857 144.652 98.3857 144.639C98.3857 144.626 98.3883 144.613 98.3933 144.601C98.3982 144.589 98.4055 144.578 98.4147 144.569C98.4238 144.56 98.4347 144.552 98.4467 144.547C98.4586 144.543 98.4714 144.54 98.4843 144.54H132.754C132.78 144.54 132.804 144.551 132.823 144.569C132.841 144.588 132.851 144.613 132.851 144.639C132.851 144.665 132.841 144.691 132.823 144.709C132.804 144.728 132.78 144.738 132.754 144.738V144.738Z" fill="#CCCCCC"/>
<path d="M132.754 147.117H98.4843C98.4714 147.117 98.4586 147.115 98.4467 147.11C98.4347 147.105 98.4238 147.098 98.4147 147.088C98.4055 147.079 98.3982 147.068 98.3933 147.056C98.3883 147.044 98.3857 147.031 98.3857 147.018C98.3857 147.005 98.3883 146.992 98.3933 146.98C98.3982 146.968 98.4055 146.957 98.4147 146.948C98.4238 146.939 98.4347 146.931 98.4467 146.926C98.4586 146.921 98.4714 146.919 98.4843 146.919H132.754C132.78 146.919 132.804 146.93 132.823 146.948C132.841 146.967 132.851 146.992 132.851 147.018C132.851 147.044 132.841 147.069 132.823 147.088C132.804 147.106 132.78 147.117 132.754 147.117Z" fill="#CCCCCC"/>
<path d="M126.741 123.432V136.317H94.8514C93.997 136.347 93.1453 136.203 92.3472 135.893C91.5491 135.582 90.8209 135.113 90.2059 134.511C89.591 133.91 89.1019 133.19 88.7679 132.393C88.4339 131.597 88.2617 130.74 88.2617 129.874C88.2617 129.009 88.4339 128.152 88.7679 127.356C89.1019 126.559 89.591 125.839 90.2059 125.238C90.8209 124.636 91.5491 124.167 92.3472 123.856C93.1453 123.546 93.997 123.402 94.8514 123.432H126.741Z" fill="#F2F2F2"/>
<path d="M127.526 136.218C127.526 136.349 127.474 136.475 127.382 136.568C127.29 136.661 127.166 136.714 127.036 136.714H94.2842C93.4034 136.714 92.5312 136.538 91.7175 136.197C90.9038 135.856 90.1644 135.355 89.5416 134.725C88.9188 134.094 88.4247 133.346 88.0877 132.522C87.7506 131.699 87.5771 130.816 87.5771 129.924C87.5771 129.032 87.7506 128.15 88.0877 127.326C88.4247 126.502 88.9188 125.754 89.5416 125.123C90.1644 124.493 90.9038 123.993 91.7175 123.651C92.5312 123.31 93.4034 123.135 94.2842 123.135H127.036C127.166 123.135 127.29 123.187 127.382 123.28C127.474 123.373 127.526 123.499 127.526 123.63C127.526 123.762 127.474 123.888 127.382 123.981C127.29 124.073 127.166 124.126 127.036 124.126H94.2842C92.7659 124.127 91.3103 124.739 90.2373 125.826C89.1642 126.913 88.5614 128.387 88.5614 129.924C88.5614 131.461 89.1642 132.935 90.2373 134.022C91.3103 135.11 92.7659 135.721 94.2842 135.722H127.036C127.166 135.722 127.29 135.775 127.382 135.868C127.474 135.961 127.526 136.087 127.526 136.218V136.218Z" fill="#3F3D56"/>
<path d="M126.742 126.405H92.4726C92.4597 126.405 92.4469 126.403 92.4349 126.398C92.423 126.393 92.4121 126.386 92.4029 126.377C92.3938 126.367 92.3865 126.356 92.3815 126.344C92.3766 126.332 92.374 126.319 92.374 126.306C92.374 126.293 92.3766 126.28 92.3815 126.268C92.3865 126.256 92.3938 126.245 92.4029 126.236C92.4121 126.227 92.423 126.219 92.4349 126.215C92.4469 126.21 92.4597 126.207 92.4726 126.207H126.742C126.768 126.207 126.793 126.218 126.811 126.236C126.829 126.255 126.839 126.28 126.839 126.306C126.839 126.332 126.829 126.358 126.811 126.376C126.793 126.395 126.768 126.405 126.742 126.405V126.405Z" fill="#CCCCCC"/>
<path d="M126.742 128.784H92.4726C92.4597 128.784 92.4469 128.782 92.4349 128.777C92.423 128.772 92.4121 128.765 92.4029 128.755C92.3938 128.746 92.3865 128.735 92.3815 128.723C92.3766 128.711 92.374 128.698 92.374 128.685C92.374 128.672 92.3766 128.659 92.3815 128.647C92.3865 128.635 92.3938 128.624 92.4029 128.615C92.4121 128.606 92.423 128.598 92.4349 128.593C92.4469 128.588 92.4597 128.586 92.4726 128.586H126.742C126.768 128.586 126.793 128.597 126.811 128.615C126.829 128.634 126.839 128.659 126.839 128.685C126.839 128.711 126.829 128.736 126.811 128.755C126.793 128.773 126.768 128.784 126.742 128.784V128.784Z" fill="#CCCCCC"/>
<path d="M126.742 131.163H92.4726C92.4597 131.163 92.4469 131.161 92.4349 131.156C92.423 131.151 92.4121 131.143 92.4029 131.134C92.3938 131.125 92.3865 131.114 92.3815 131.102C92.3766 131.09 92.374 131.077 92.374 131.064C92.374 131.051 92.3766 131.038 92.3815 131.026C92.3865 131.014 92.3938 131.003 92.4029 130.994C92.4121 130.984 92.423 130.977 92.4349 130.972C92.4469 130.967 92.4597 130.965 92.4726 130.965H126.742C126.768 130.965 126.793 130.975 126.811 130.994C126.829 131.013 126.839 131.038 126.839 131.064C126.839 131.09 126.829 131.115 126.811 131.134C126.793 131.152 126.768 131.163 126.742 131.163V131.163Z" fill="#CCCCCC"/>
<path d="M126.742 133.542H92.4726C92.4597 133.542 92.4469 133.539 92.4349 133.534C92.423 133.53 92.4121 133.522 92.4029 133.513C92.3938 133.504 92.3865 133.493 92.3815 133.481C92.3766 133.469 92.374 133.456 92.374 133.443C92.374 133.43 92.3766 133.417 92.3815 133.405C92.3865 133.393 92.3938 133.382 92.4029 133.372C92.4121 133.363 92.423 133.356 92.4349 133.351C92.4469 133.346 92.4597 133.343 92.4726 133.344H126.742C126.768 133.344 126.793 133.354 126.811 133.373C126.829 133.391 126.839 133.417 126.839 133.443C126.839 133.469 126.829 133.494 126.811 133.513C126.793 133.531 126.768 133.542 126.742 133.542Z" fill="#CCCCCC"/>
<path d="M163.84 195.692V184.458C163.84 183.961 163.645 183.485 163.298 183.134C162.951 182.782 162.481 182.585 161.99 182.585H119.909C119.419 182.585 118.948 182.782 118.601 183.134C118.254 183.485 118.06 183.961 118.06 184.458V195.692H163.84Z" fill="#CCCCCC"/>
<path d="M163.84 199.905H118.06V214.417H163.84V199.905Z" fill="#CCCCCC"/>
<path d="M118.06 218.63V229.865C118.06 230.361 118.254 230.838 118.601 231.189C118.948 231.54 119.419 231.737 119.909 231.737H161.99C162.481 231.737 162.951 231.54 163.298 231.189C163.645 230.838 163.84 230.361 163.84 229.865V218.63H118.06Z" fill="#CCCCCC"/>
<path d="M140.718 191.011C141.485 191.011 142.106 190.383 142.106 189.607C142.106 188.831 141.485 188.203 140.718 188.203C139.952 188.203 139.331 188.831 139.331 189.607C139.331 190.383 139.952 191.011 140.718 191.011Z" fill="white"/>
<path d="M140.718 209.736C141.485 209.736 142.106 209.107 142.106 208.332C142.106 207.556 141.485 206.927 140.718 206.927C139.952 206.927 139.331 207.556 139.331 208.332C139.331 209.107 139.952 209.736 140.718 209.736Z" fill="white"/>
<path d="M140.793 228.064C141.559 228.064 142.18 227.435 142.18 226.66C142.18 225.884 141.559 225.255 140.793 225.255C140.026 225.255 139.405 225.884 139.405 226.66C139.405 227.435 140.026 228.064 140.793 228.064Z" fill="white"/>
<path d="M158.65 169.775V182.661H126.76C125.905 182.691 125.054 182.546 124.255 182.236C123.457 181.926 122.729 181.456 122.114 180.855C121.499 180.254 121.01 179.533 120.676 178.737C120.342 177.94 120.17 177.083 120.17 176.218C120.17 175.352 120.342 174.496 120.676 173.699C121.01 172.903 121.499 172.182 122.114 171.581C122.729 170.98 123.457 170.51 124.255 170.2C125.054 169.89 125.905 169.745 126.76 169.775H158.65Z" fill="#F2F2F2"/>
<path d="M159.432 182.561C159.432 182.693 159.381 182.819 159.289 182.912C159.197 183.005 159.073 183.057 158.943 183.057H126.191C125.31 183.058 124.437 182.883 123.623 182.542C122.808 182.201 122.068 181.701 121.445 181.07C120.822 180.44 120.327 179.691 119.99 178.867C119.652 178.043 119.479 177.16 119.479 176.267C119.479 175.375 119.652 174.492 119.99 173.668C120.327 172.844 120.822 172.095 121.445 171.465C122.068 170.834 122.808 170.334 123.623 169.993C124.437 169.652 125.31 169.477 126.191 169.478H158.943C159.073 169.478 159.197 169.53 159.289 169.623C159.381 169.716 159.432 169.842 159.432 169.974C159.432 170.105 159.381 170.231 159.289 170.324C159.197 170.417 159.073 170.469 158.943 170.469H126.191C124.673 170.471 123.217 171.082 122.144 172.169C121.071 173.257 120.468 174.731 120.468 176.267C120.468 177.804 121.071 179.278 122.144 180.366C123.217 181.453 124.673 182.064 126.191 182.066H158.943C159.073 182.066 159.197 182.118 159.289 182.211C159.381 182.304 159.432 182.43 159.432 182.561V182.561Z" fill="#3F3D56"/>
<path d="M158.649 172.749H124.38C124.367 172.749 124.354 172.746 124.342 172.741C124.33 172.736 124.319 172.729 124.31 172.72C124.301 172.711 124.294 172.7 124.289 172.688C124.284 172.676 124.281 172.663 124.281 172.65C124.281 172.637 124.284 172.624 124.289 172.612C124.294 172.599 124.301 172.589 124.31 172.579C124.319 172.57 124.33 172.563 124.342 172.558C124.354 172.553 124.367 172.55 124.38 172.551H158.649C158.675 172.551 158.7 172.561 158.718 172.58C158.736 172.598 158.747 172.623 158.747 172.65C158.747 172.676 158.736 172.701 158.718 172.719C158.7 172.738 158.675 172.749 158.649 172.749V172.749Z" fill="#CCCCCC"/>
<path d="M158.649 175.128H124.38C124.367 175.128 124.354 175.125 124.342 175.12C124.33 175.115 124.319 175.108 124.31 175.099C124.301 175.09 124.294 175.079 124.289 175.067C124.284 175.055 124.281 175.042 124.281 175.029C124.281 175.015 124.284 175.002 124.289 174.99C124.294 174.978 124.301 174.967 124.31 174.958C124.319 174.949 124.33 174.942 124.342 174.937C124.354 174.932 124.367 174.929 124.38 174.929H158.649C158.675 174.93 158.7 174.94 158.718 174.959C158.736 174.977 158.747 175.002 158.747 175.029C158.747 175.055 158.736 175.08 158.718 175.098C158.7 175.117 158.675 175.127 158.649 175.128V175.128Z" fill="#CCCCCC"/>
<path d="M158.649 177.506H124.38C124.367 177.507 124.354 177.504 124.342 177.499C124.33 177.494 124.319 177.487 124.31 177.478C124.301 177.468 124.294 177.457 124.289 177.445C124.284 177.433 124.281 177.42 124.281 177.407C124.281 177.394 124.284 177.381 124.289 177.369C124.294 177.357 124.301 177.346 124.31 177.337C124.319 177.328 124.33 177.321 124.342 177.316C124.354 177.311 124.367 177.308 124.38 177.308H158.649C158.675 177.308 158.7 177.319 158.718 177.337C158.736 177.356 158.747 177.381 158.747 177.407C158.747 177.433 158.736 177.459 158.718 177.477C158.7 177.496 158.675 177.506 158.649 177.506V177.506Z" fill="#CCCCCC"/>
<path d="M158.649 179.885H124.38C124.367 179.885 124.354 179.883 124.342 179.878C124.33 179.873 124.319 179.866 124.31 179.856C124.301 179.847 124.294 179.836 124.289 179.824C124.284 179.812 124.281 179.799 124.281 179.786C124.281 179.773 124.284 179.76 124.289 179.748C124.294 179.736 124.301 179.725 124.31 179.716C124.319 179.707 124.33 179.699 124.342 179.694C124.354 179.689 124.367 179.687 124.38 179.687H158.649C158.675 179.687 158.7 179.698 158.718 179.716C158.736 179.735 158.747 179.76 158.747 179.786C158.747 179.812 158.736 179.837 158.718 179.856C158.7 179.875 158.675 179.885 158.649 179.885V179.885Z" fill="#CCCCCC"/>
<path d="M115.658 85.6751V3.5209C115.659 2.58743 116.026 1.69249 116.678 1.03242C117.33 0.372358 118.214 0.0010618 119.136 0H183.288C184.21 0.00106798 185.094 0.372366 185.746 1.03243C186.398 1.6925 186.765 2.58743 186.766 3.5209V85.6751C186.765 86.6086 186.398 87.5036 185.746 88.1636C185.094 88.8237 184.21 89.195 183.288 89.196H119.136C118.214 89.195 117.33 88.8237 116.678 88.1636C116.026 87.5036 115.659 86.6086 115.658 85.6751V85.6751ZM119.136 0.782423C118.419 0.783236 117.731 1.07202 117.224 1.5854C116.717 2.09879 116.432 2.79486 116.431 3.5209V85.6751C116.432 86.4012 116.717 87.0973 117.224 87.6106C117.731 88.124 118.419 88.4128 119.136 88.4136H183.288C184.005 88.4128 184.693 88.124 185.2 87.6106C185.707 87.0973 185.993 86.4012 185.993 85.6751V3.5209C185.993 2.79486 185.707 2.09879 185.2 1.5854C184.693 1.07202 184.005 0.783237 183.288 0.782423H119.136Z" fill="#E6E6E6"/>
<path d="M154.81 37.729V20.8602C154.81 20.3934 154.993 19.946 155.319 19.6159C155.645 19.2859 156.088 19.1002 156.549 19.0997H170.67C171.131 19.1002 171.573 19.2859 171.899 19.6159C172.225 19.946 172.408 20.3934 172.409 20.8602V37.729C172.408 38.1958 172.225 38.6433 171.899 38.9733C171.573 39.3033 171.131 39.489 170.67 39.4895H156.549C156.088 39.489 155.645 39.3033 155.319 38.9733C154.993 38.6433 154.81 38.1958 154.81 37.729V37.729Z" fill="#6C63FF"/>
<path d="M127.371 45.5532V28.6844C127.372 28.2177 127.555 27.7702 127.881 27.4401C128.207 27.1101 128.649 26.9245 129.11 26.924H143.231C143.692 26.9245 144.134 27.1101 144.46 27.4401C144.786 27.7702 144.97 28.2177 144.97 28.6844V45.5532C144.97 46.02 144.786 46.4675 144.46 46.7975C144.134 47.1275 143.692 47.3132 143.231 47.3137H129.11C128.649 47.3132 128.207 47.1275 127.881 46.7975C127.555 46.4675 127.372 46.02 127.371 45.5532V45.5532Z" fill="#CCCCCC"/>
<path d="M149.399 69.4171V52.5482C149.4 52.0815 149.583 51.634 149.909 51.304C150.235 50.9739 150.677 50.7883 151.138 50.7878H165.26C165.721 50.7883 166.163 50.9739 166.489 51.304C166.815 51.634 166.998 52.0815 166.999 52.5482V69.4171C166.998 69.8838 166.815 70.3313 166.489 70.6614C166.163 70.9914 165.721 71.177 165.26 71.1775H151.138C150.677 71.177 150.235 70.9914 149.909 70.6614C149.583 70.3313 149.4 69.8838 149.399 69.4171V69.4171Z" fill="#FF6584"/>
<path d="M233.786 146.54H219.257C219.119 146.54 218.983 146.572 218.859 146.634L215.192 148.492C215.071 148.544 214.968 148.631 214.896 148.742C214.824 148.852 214.785 148.982 214.785 149.115C214.785 149.248 214.824 149.377 214.896 149.488C214.968 149.599 215.071 149.686 215.192 149.738L218.859 151.596C218.983 151.658 219.119 151.69 219.257 151.69H233.786C233.986 151.701 234.183 151.633 234.334 151.499C234.484 151.365 234.577 151.176 234.591 150.973V147.257C234.577 147.054 234.484 146.865 234.334 146.731C234.183 146.597 233.986 146.529 233.786 146.54Z" fill="#3F3D56"/>
<path d="M234.591 147.257V150.973C234.577 151.176 234.484 151.365 234.334 151.499C234.183 151.633 233.986 151.701 233.786 151.69H230.892V146.54H233.786C233.987 146.529 234.183 146.597 234.334 146.731C234.484 146.865 234.577 147.054 234.591 147.257V147.257Z" fill="#6C63FF"/>
<path d="M233.677 118.734C234.335 118.447 235.046 118.303 235.762 118.313C236.479 118.323 237.186 118.486 237.836 118.792C238.486 119.097 239.065 119.539 239.535 120.086C240.005 120.634 240.355 121.277 240.563 121.971C240.627 122.191 240.677 122.416 240.711 122.643L261.029 132.842L265.731 129.688L271.582 136.506L264.402 142.409C263.539 143.113 262.474 143.517 261.366 143.56C260.258 143.603 259.166 143.284 258.251 142.649L237.636 128.218C237.483 128.284 237.326 128.341 237.167 128.391C236.481 128.601 235.759 128.662 235.048 128.57C234.337 128.478 233.653 128.234 233.041 127.856C232.43 127.478 231.904 126.973 231.498 126.374C231.093 125.776 230.817 125.098 230.688 124.384C230.65 124.176 230.625 123.967 230.613 123.757C230.556 122.703 230.819 121.657 231.367 120.759C231.914 119.861 232.721 119.154 233.677 118.734V118.734Z" fill="#FFB8B8"/>
<path d="M275.995 181.531H253.794C253.794 182.177 230.914 182.702 230.914 182.702C230.554 182.975 230.227 183.289 229.938 183.638C229.069 184.687 228.594 186.013 228.597 187.383V188.319C228.597 189.871 229.206 191.359 230.29 192.456C231.374 193.553 232.844 194.17 234.377 194.17H275.995C277.528 194.169 278.998 193.552 280.081 192.455C281.165 191.358 281.774 189.87 281.776 188.319V187.383C281.774 185.831 281.164 184.344 280.08 183.247C278.997 182.151 277.528 181.533 275.995 181.531V181.531Z" fill="#3F3D56"/>
<path d="M251.846 233.26H257.857V193.938H251.846V233.26Z" fill="#3F3D56"/>
<path d="M234.736 233.046C234.736 233.703 243.846 233.3 255.083 233.3C266.32 233.3 275.43 233.703 275.43 233.046C275.43 232.388 266.32 227.174 255.083 227.174C243.846 227.174 234.736 232.388 234.736 233.046Z" fill="#3F3D56"/>
<path d="M240.163 228.437L234.494 228.437L231.797 213.552L240.164 213.552L240.163 228.437Z" fill="#FFB8B8"/>
<path d="M241.609 234L223.329 233.999V233.765C223.329 232.819 223.513 231.883 223.871 231.009C224.228 230.135 224.752 229.341 225.413 228.672C226.074 228.003 226.858 227.473 227.721 227.111C228.585 226.749 229.51 226.563 230.444 226.563H230.445L241.609 226.563L241.609 234Z" fill="#2F2E41"/>
<path d="M231.684 219.207L220.382 193.55C219.438 191.388 219.334 188.945 220.09 186.708C220.845 184.472 222.406 182.605 224.46 181.48L248.975 168.173L260.161 167.21L270.48 166.26L270.555 166.388C270.65 166.551 272.869 170.43 271.369 174.684C270.231 177.91 267.272 180.43 262.574 182.174C251.608 186.245 238.94 189.724 234.002 191.03C233.784 191.087 233.58 191.189 233.404 191.331C233.228 191.473 233.083 191.651 232.98 191.854C232.876 192.054 232.815 192.274 232.799 192.499C232.783 192.725 232.814 192.951 232.889 193.164L243.389 217.045C243.499 217.348 243.538 217.672 243.505 217.993C243.471 218.314 243.365 218.622 243.195 218.895C243.024 219.168 242.795 219.397 242.523 219.566C242.251 219.734 241.945 219.838 241.628 219.867L233.782 220.446C233.715 220.452 233.649 220.455 233.583 220.455C233.181 220.455 232.788 220.337 232.451 220.116C232.114 219.894 231.848 219.578 231.684 219.207V219.207Z" fill="#2F2E41"/>
<path d="M242.938 228.437L237.269 228.437L234.571 213.552L242.938 213.552L242.938 228.437Z" fill="#FFB8B8"/>
<path d="M244.384 234L226.104 233.999V233.765C226.104 232.819 226.288 231.883 226.645 231.009C227.003 230.135 227.527 229.341 228.187 228.672C228.848 228.003 229.633 227.473 230.496 227.111C231.359 226.749 232.284 226.563 233.219 226.563H233.219L244.384 226.563L244.384 234Z" fill="#2F2E41"/>
<path d="M234.921 220.611L223.619 194.955C222.676 192.792 222.571 190.349 223.327 188.113C224.083 185.876 225.643 184.009 227.697 182.885L252.212 169.577L263.399 168.614L273.718 167.665L273.792 167.792C273.887 167.955 276.106 171.834 274.606 176.088C273.469 179.315 270.51 181.835 265.811 183.579C254.845 187.649 242.177 191.128 237.24 192.435C237.021 192.491 236.817 192.594 236.641 192.736C236.465 192.878 236.32 193.056 236.217 193.258C236.113 193.459 236.052 193.678 236.036 193.904C236.021 194.129 236.051 194.356 236.126 194.569L246.626 218.449C246.736 218.752 246.776 219.076 246.742 219.397C246.708 219.718 246.602 220.027 246.432 220.299C246.262 220.572 246.032 220.802 245.76 220.97C245.489 221.139 245.182 221.242 244.865 221.272L237.019 221.85C236.952 221.856 236.886 221.86 236.82 221.86C236.418 221.859 236.025 221.741 235.688 221.52C235.351 221.298 235.085 220.983 234.921 220.611V220.611Z" fill="#2F2E41"/>
<path d="M229.288 142.234C224.539 135.839 220.784 128.746 218.155 121.201C218.002 120.75 218.013 120.258 218.185 119.814C218.357 119.37 218.679 119.002 219.094 118.776L235.346 109.961C235.609 109.817 235.901 109.736 236.2 109.724C236.498 109.712 236.796 109.769 237.069 109.89C237.348 110.013 237.595 110.198 237.792 110.432C237.99 110.666 238.132 110.942 238.207 111.24C240.099 118.511 243.655 125.229 248.587 130.85C248.79 131.079 248.939 131.351 249.022 131.647C249.105 131.943 249.12 132.254 249.067 132.557C249.015 132.855 248.898 133.137 248.722 133.382C248.547 133.627 248.318 133.828 248.055 133.97L231.802 142.785C231.387 143.01 230.906 143.077 230.445 142.976C229.985 142.876 229.575 142.613 229.288 142.234V142.234Z" fill="#CCCCCC"/>
<path d="M230.397 141.391C230.484 141.501 230.607 141.577 230.744 141.606C230.881 141.634 231.024 141.614 231.147 141.547L247.399 132.732C247.478 132.69 247.547 132.631 247.599 132.558C247.651 132.485 247.686 132.401 247.701 132.312C247.718 132.218 247.713 132.122 247.687 132.03C247.661 131.938 247.614 131.854 247.551 131.784C242.473 125.997 238.813 119.081 236.865 111.596C236.843 111.504 236.8 111.418 236.739 111.345C236.678 111.273 236.601 111.215 236.515 111.178C236.434 111.141 236.345 111.123 236.256 111.127C236.167 111.131 236.08 111.155 236.001 111.199L219.75 120.014C219.626 120.082 219.53 120.19 219.478 120.322C219.426 120.453 219.42 120.599 219.463 120.734C222.045 128.144 225.733 135.11 230.397 141.391V141.391Z" fill="white"/>
<path d="M283.28 139.883L270.551 144.779L267.444 136.041C267.031 134.88 267.037 133.61 267.46 132.453C267.884 131.297 268.697 130.329 269.757 129.721V129.721C270.829 129.106 272.083 128.9 273.293 129.139C274.502 129.378 275.587 130.047 276.352 131.025L283.28 139.883Z" fill="#6C63FF"/>
<path d="M250.905 174.504C250.637 174.313 250.413 174.065 250.247 173.779C250.081 173.492 249.977 173.173 249.942 172.843C248.311 157.438 249.447 145.382 253.413 135.986C254.111 134.366 255.163 132.927 256.49 131.777C257.817 130.627 259.384 129.797 261.074 129.348L271.362 128.823L271.416 128.849C273.737 130 275.631 131.878 276.815 134.204C278 136.53 278.412 139.181 277.991 141.763C274.682 150.594 271.911 159.787 274.024 167.204C274.113 167.514 274.139 167.839 274.1 168.159C274.062 168.48 273.96 168.789 273.8 169.068C273.646 169.339 273.438 169.574 273.191 169.76C272.943 169.946 272.66 170.078 272.36 170.149L252.763 174.868C252.445 174.945 252.115 174.952 251.795 174.889C251.475 174.826 251.171 174.695 250.905 174.504Z" fill="#6C63FF"/>
<path d="M267.929 124.933C274.202 124.933 279.287 119.785 279.287 113.435C279.287 107.085 274.202 101.938 267.929 101.938C261.656 101.938 256.571 107.085 256.571 113.435C256.571 119.785 261.656 124.933 267.929 124.933Z" fill="#FFB8B8"/>
<path d="M236.413 122.541L227.561 126.497C227.225 126.647 226.843 126.656 226.5 126.521C226.157 126.386 225.881 126.12 225.732 125.779L225.513 125.277C225.365 124.936 225.356 124.55 225.489 124.203C225.622 123.856 225.886 123.576 226.222 123.425L235.074 119.47C235.41 119.32 235.792 119.311 236.135 119.446C236.478 119.58 236.754 119.847 236.903 120.188L237.122 120.69C237.27 121.03 237.279 121.417 237.146 121.764C237.013 122.111 236.749 122.391 236.413 122.541V122.541Z" fill="#CCCCCC"/>
<path d="M239.65 128.627L230.799 132.582C230.462 132.732 230.08 132.741 229.738 132.606C229.395 132.472 229.118 132.205 228.969 131.865L228.75 131.363C228.602 131.022 228.594 130.636 228.727 130.288C228.86 129.941 229.123 129.662 229.459 129.511L238.311 125.555C238.648 125.405 239.029 125.397 239.372 125.531C239.715 125.666 239.991 125.933 240.14 126.273L240.359 126.775C240.507 127.116 240.516 127.502 240.383 127.849C240.25 128.197 239.987 128.476 239.65 128.627V128.627Z" fill="#CCCCCC"/>
<path d="M246.477 152.397L226.743 136.637C226.586 136.693 226.426 136.741 226.264 136.78C225.567 136.945 224.844 136.96 224.142 136.823C223.439 136.687 222.773 136.402 222.186 135.988C221.595 135.574 221.099 135.037 220.73 134.412C220.361 133.788 220.128 133.091 220.047 132.368C219.914 131.213 220.172 130.046 220.777 129.057C221.382 128.068 222.299 127.315 223.38 126.92C224.055 126.675 224.773 126.577 225.488 126.633C226.202 126.688 226.897 126.896 227.527 127.242C228.157 127.589 228.708 128.066 229.143 128.643C229.578 129.219 229.887 129.883 230.051 130.589C230.102 130.813 230.138 131.04 230.157 131.269L249.802 142.741L254.691 139.892L260.106 147.069L252.516 152.546C251.627 153.181 250.56 153.51 249.472 153.484C248.384 153.457 247.334 153.076 246.477 152.397V152.397Z" fill="#FFB8B8"/>
<path d="M262.513 149.304L251.254 141.553L256.545 133.967C257.248 132.959 258.28 132.236 259.459 131.924C260.637 131.612 261.887 131.732 262.986 132.263V132.263C264.099 132.799 264.985 133.721 265.485 134.861C265.985 136.002 266.065 137.285 265.712 138.48L262.513 149.304Z" fill="#6C63FF"/>
<path d="M263.765 111.723C260.846 113.745 257.013 115.824 254.031 113.67C252.074 112.256 251.457 109.637 252.251 107.339C253.678 103.206 257.601 101.387 261.352 99.9924C266.228 98.1794 271.537 96.737 276.571 98.0354C281.604 99.3338 286.053 104.267 285.144 109.445C284.413 113.608 280.534 117.073 281.085 121.264C281.639 125.483 286.326 127.704 290.463 128.458C294.601 129.212 299.231 129.454 302.205 132.463C305.998 136.301 305.051 143.161 301.481 147.213C297.912 151.265 292.526 153.102 287.306 154.35C280.391 156.005 272.911 156.874 266.343 154.129C259.776 151.383 254.664 143.992 256.567 137.061C257.371 134.134 259.264 131.66 261.094 129.251C262.923 126.842 264.776 124.324 265.474 121.368C266.055 118.906 265.625 116.047 264.012 114.199C263.718 113.876 263.534 113.467 263.484 113.031C263.435 112.594 263.523 112.154 263.737 111.771L263.765 111.723Z" fill="#2F2E41"/>
<path d="M50.4379 167.585C47.5112 168.626 44.3689 168.887 41.3138 168.342C38.2586 167.797 35.3935 166.465 32.9946 164.474C26.885 159.283 24.9694 150.731 23.4108 142.812C21.8741 135.005 20.3375 127.197 18.8008 119.39L28.4524 126.117C35.3933 130.955 42.4905 135.948 47.2964 142.956C52.1022 149.963 54.2 159.529 50.3386 167.112" fill="#E6E6E6"/>
<path d="M49.6126 195.942C50.5894 188.739 51.5939 181.444 50.9087 174.163C50.3001 167.698 48.3515 161.382 44.3844 156.204C42.2786 153.461 39.7163 151.111 36.8127 149.259C36.0555 148.775 35.3586 149.99 36.1125 150.471C41.1366 153.686 45.0226 158.432 47.2102 164.026C49.6263 170.247 50.0143 177.029 49.598 183.637C49.3462 187.634 48.8125 191.604 48.2748 195.569C48.2324 195.748 48.2589 195.937 48.3488 196.098C48.4387 196.258 48.5854 196.378 48.7593 196.433C48.9366 196.481 49.1257 196.457 49.2854 196.365C49.4452 196.273 49.5627 196.121 49.6125 195.942H49.6126Z" fill="#F2F2F2"/>
<path d="M40.2044 183.196C38.9492 185.127 37.2238 186.699 35.1946 187.759C33.1653 188.819 30.9005 189.333 28.6184 189.25C22.7533 188.968 17.8638 184.824 13.4622 180.89L0.443359 169.254L9.05969 168.837C15.256 168.536 21.6123 168.256 27.5141 170.191C33.4159 172.125 38.8588 176.78 39.938 182.964" fill="#E6E6E6"/>
<path d="M52.374 200.083C47.6721 191.661 42.2184 182.301 32.4735 179.31C29.764 178.481 26.9228 178.184 24.1031 178.435C23.2144 178.512 23.4363 179.899 24.3234 179.821C29.0499 179.424 33.7672 180.688 37.6813 183.399C41.4477 185.994 44.3803 189.602 46.8624 193.428C48.3828 195.772 49.7446 198.215 51.1067 200.655C51.542 201.435 52.8144 200.872 52.374 200.083V200.083Z" fill="#F2F2F2"/>
<path d="M59.9075 208.948C59.7491 207.09 59.09 205.311 58.002 203.806C56.9141 202.3 55.439 201.126 53.7374 200.411V195.542H45.6704V200.564C44.0526 201.315 42.6602 202.486 41.6353 203.959C40.6105 205.432 39.9897 207.153 39.8363 208.948L37.9395 231.269H61.8044L59.9075 208.948Z" fill="#F2F2F2"/>
</g>
<defs>
<clipPath id="clip0_854_10333">
<rect width="320" height="234" fill="white"/>
</clipPath>
</defs>
</svg>
