<svg width="18" height="20" viewBox="0 0 18 20" fill="none" xmlns="http://www.w3.org/2000/svg">
<path d="M16 11H2V18H16V11ZM16 9.00001C16 7.1435 15.2625 5.36302 13.9497 4.05026C12.637 2.73751 10.8565 2.00001 9 2.00001C7.14348 2.00001 5.36301 2.73751 4.05025 4.05026C2.7375 5.36302 2 7.1435 2 9.00001H16ZM3.382 1.96801C4.97574 0.691077 6.9578 -0.00324487 9 1.14016e-05C11.125 1.14016e-05 13.078 0.736011 14.618 1.96801L16.071 0.515011L17.485 1.92901L16.032 3.38201C17.3089 4.97575 18.0033 6.95782 18 9.00001V19C18 19.2652 17.8946 19.5196 17.7071 19.7071C17.5196 19.8947 17.2652 20 17 20H1C0.734784 20 0.48043 19.8947 0.292893 19.7071C0.105357 19.5196 0 19.2652 0 19V9.00001C0 6.87501 0.736 4.92201 1.968 3.38201L0.515 1.93001L1.929 0.516011L3.382 1.96901V1.96801ZM6 7.00001C5.73478 7.00001 5.48043 6.89465 5.29289 6.70712C5.10536 6.51958 5 6.26523 5 6.00001C5 5.73479 5.10536 5.48044 5.29289 5.2929C5.48043 5.10537 5.73478 5.00001 6 5.00001C6.26522 5.00001 6.51957 5.10537 6.70711 5.2929C6.89464 5.48044 7 5.73479 7 6.00001C7 6.26523 6.89464 6.51958 6.70711 6.70712C6.51957 6.89465 6.26522 7.00001 6 7.00001ZM12 7.00001C11.7348 7.00001 11.4804 6.89465 11.2929 6.70712C11.1054 6.51958 11 6.26523 11 6.00001C11 5.73479 11.1054 5.48044 11.2929 5.2929C11.4804 5.10537 11.7348 5.00001 12 5.00001C12.2652 5.00001 12.5196 5.10537 12.7071 5.2929C12.8946 5.48044 13 5.73479 13 6.00001C13 6.26523 12.8946 6.51958 12.7071 6.70712C12.5196 6.89465 12.2652 7.00001 12 7.00001Z" fill="#4CC942"/>
</svg>
