<svg width="19" height="24" viewBox="0 0 19 24" fill="none" xmlns="http://www.w3.org/2000/svg">
<path d="M13.7286 8.208C13.2556 8.171 12.7476 8.284 11.9696 8.581C12.0356 8.556 11.2276 8.871 11.0016 8.951C10.4996 9.126 10.0866 9.222 9.62357 9.222C9.16557 9.222 8.74357 9.13 8.25757 8.967C8.10257 8.914 7.94657 8.857 7.75257 8.781C7.67057 8.749 7.37057 8.629 7.30457 8.604C6.65657 8.35 6.29157 8.254 5.98857 8.262C4.83657 8.277 3.74557 8.942 3.11257 10.044C1.82057 12.288 2.53557 16.343 4.42457 19.075C5.43057 20.519 5.98057 21.035 6.20257 21.028C6.42457 21.018 6.58757 20.971 6.98557 20.803L7.15257 20.732C8.15757 20.303 8.86257 20.114 9.92357 20.114C10.9446 20.114 11.6266 20.3 12.5916 20.716L12.7596 20.788C13.1576 20.958 13.3016 20.996 13.5516 20.99C13.9096 20.985 14.3506 20.573 15.3296 19.136C15.5976 18.745 15.8346 18.333 16.0396 17.916C15.9048 17.805 15.7741 17.6893 15.6476 17.569C14.3586 16.341 13.5616 14.685 13.5396 12.639C13.518 11.1252 14.0156 9.64962 14.9496 8.458C14.5576 8.31329 14.1459 8.229 13.7286 8.208ZM13.8836 6.214C14.5916 6.262 16.6196 6.478 17.9396 8.41C17.8316 8.47 15.5156 9.814 15.5396 12.622C15.5756 15.982 18.4796 17.098 18.5156 17.11C18.4916 17.194 18.0476 18.706 16.9796 20.266C16.0556 21.622 15.0956 22.966 13.5836 22.99C12.0956 23.026 11.6156 22.114 9.92357 22.114C8.21957 22.114 7.69157 22.966 6.28757 23.026C4.82357 23.074 3.71957 21.562 2.78357 20.218C0.875573 17.458 -0.576427 12.442 1.37957 9.046C2.35157 7.354 4.07957 6.286 5.96357 6.262C7.39157 6.226 8.74757 7.222 9.62357 7.222C10.4876 7.222 12.0356 6.07 13.8836 6.214ZM12.7436 4.39C11.9636 5.326 10.6916 6.058 9.45557 5.962C9.28757 4.69 9.91157 3.358 10.6316 2.53C11.4356 1.594 12.7796 0.898 13.8956 0.85C14.0396 2.146 13.5236 3.454 12.7436 4.39Z" fill="black"/>
</svg>
