<svg width="48" height="48" viewBox="0 0 48 48" fill="none" xmlns="http://www.w3.org/2000/svg">
<path d="M18.5348 15H32.9998C33.265 15 33.5194 15.1054 33.7069 15.2929C33.8945 15.4804 33.9998 15.7348 33.9998 16V32C33.9998 32.2652 33.8945 32.5196 33.7069 32.7071C33.5194 32.8946 33.265 33 32.9998 33H18.5348C18.3702 33 18.2082 32.9594 18.063 32.8818C17.9179 32.8042 17.7942 32.6919 17.7028 32.555L12.3698 24.555C12.2602 24.3907 12.2017 24.1975 12.2017 24C12.2017 23.8025 12.2602 23.6093 12.3698 23.445L17.7028 15.445C17.7942 15.3081 17.9179 15.1958 18.063 15.1182C18.2082 15.0406 18.3702 15 18.5348 15ZM24.9998 22.586L22.1718 19.757L20.7568 21.172L23.5858 24L20.7568 26.828L22.1718 28.243L24.9998 25.414L27.8278 28.243L29.2428 26.828L26.4138 24L29.2428 21.172L27.8278 19.757L24.9998 22.586Z" fill="#282A2D"/>
</svg>
