<svg width="20" height="20" viewBox="0 0 20 20" fill="none" xmlns="http://www.w3.org/2000/svg">
<g clip-path="url(#clip0_5037_104438)">
<path d="M9.99935 1.66666C14.5993 1.66666 18.3327 5.39999 18.3327 9.99999C18.3327 14.6 14.5993 18.3333 9.99935 18.3333C5.39935 18.3333 1.66602 14.6 1.66602 9.99999C1.66602 5.39999 5.39935 1.66666 9.99935 1.66666ZM9.99935 16.6667C13.6827 16.6667 16.666 13.6833 16.666 9.99999C16.666 6.31666 13.6827 3.33332 9.99935 3.33332C6.31602 3.33332 3.33268 6.31666 3.33268 9.99999C3.33268 13.6833 6.31602 16.6667 9.99935 16.6667ZM12.946 5.87499L14.1244 7.05332L9.99935 11.1783L8.82102 9.99999L12.946 5.87499Z" fill="#DF292F"/>
</g>
<defs>
<clipPath id="clip0_5037_104438">
<rect width="20" height="20" fill="white"/>
</clipPath>
</defs>
</svg>
