<svg width="32" height="32" viewBox="0 0 32 32" fill="none" xmlns="http://www.w3.org/2000/svg">
<path d="M26.6667 2.66675C27.0203 2.66675 27.3594 2.80722 27.6095 3.05727C27.8595 3.30732 28 3.64646 28 4.00008V28.0001C28 28.3537 27.8595 28.6928 27.6095 28.9429C27.3594 29.1929 27.0203 29.3334 26.6667 29.3334H5.33333C4.97971 29.3334 4.64057 29.1929 4.39052 28.9429C4.14048 28.6928 4 28.3537 4 28.0001V4.00008C4 3.64646 4.14048 3.30732 4.39052 3.05727C4.64057 2.80722 4.97971 2.66675 5.33333 2.66675H26.6667ZM25.3333 5.33341H6.66667V26.6667H25.3333V5.33341ZM21.3333 21.3334V24.0001H10.6667V21.3334H21.3333ZM16 8.00008C17.4145 8.00008 18.771 8.56198 19.7712 9.56218C20.7714 10.5624 21.3333 11.9189 21.3333 13.3334C21.3333 14.7479 20.7714 16.1045 19.7712 17.1047C18.771 18.1048 17.4145 18.6667 16 18.6667C14.5855 18.6667 13.229 18.1048 12.2288 17.1047C11.2286 16.1045 10.6667 14.7479 10.6667 13.3334C10.6667 11.9189 11.2286 10.5624 12.2288 9.56218C13.229 8.56198 14.5855 8.00008 16 8.00008ZM16 10.6667C15.2928 10.6667 14.6145 10.9477 14.1144 11.4478C13.6143 11.9479 13.3333 12.6262 13.3333 13.3334C13.3333 14.0407 13.6143 14.7189 14.1144 15.219C14.6145 15.7191 15.2928 16.0001 16 16.0001C16.7072 16.0001 17.3855 15.7191 17.8856 15.219C18.3857 14.7189 18.6667 14.0407 18.6667 13.3334C18.6667 12.6262 18.3857 11.9479 17.8856 11.4478C17.3855 10.9477 16.7072 10.6667 16 10.6667Z" fill="#DF292F"/>
</svg>
