<svg width="38" height="40" viewBox="0 0 38 40" fill="none" xmlns="http://www.w3.org/2000/svg">
<path d="M6 32H10V36H34V4H10V8H6V2C6 1.46957 6.21071 0.960859 6.58579 0.585786C6.96086 0.210714 7.46957 0 8 0H36C36.5304 0 37.0391 0.210714 37.4142 0.585786C37.7893 0.960859 38 1.46957 38 2V38C38 38.5304 37.7893 39.0391 37.4142 39.4142C37.0391 39.7893 36.5304 40 36 40H8C7.46957 40 6.96086 39.7893 6.58579 39.4142C6.21071 39.0391 6 38.5304 6 38V32ZM10 18H24V22H10V28L0 20L10 12V18Z" fill="#DF292F"/>
</svg>
