<svg width="48" height="48" viewBox="0 0 48 48" fill="none" xmlns="http://www.w3.org/2000/svg">
<path d="M0.957412 14.9822C1.57844 14.9822 1.91482 14.6199 1.91482 13.9989V7.03827C1.91482 3.67439 3.67439 1.91482 7.03827 1.91482H14.0248C14.6458 1.91482 15.0081 1.57844 15.0081 0.957412C15.0081 0.336388 14.6458 0 14.0248 0H6.98652C2.40647 0 0 2.38059 0 6.93477V13.9989C0 14.6199 0.336388 14.9822 0.957412 14.9822ZM47.0426 14.9822C47.6636 14.9822 48 14.6199 48 13.9989V6.93477C48 2.43234 45.6194 0 41.0394 0H33.9752C33.3542 0 32.9919 0.336388 32.9919 0.957412C32.9919 1.57844 33.3542 1.91482 33.9752 1.91482H40.9617C44.2221 1.91482 46.0852 3.67439 46.0852 7.03827V13.9989C46.0852 14.6199 46.4216 14.9822 47.0426 14.9822ZM21.8911 27.4803H22.124C24.2199 27.4803 25.2809 26.4453 25.2809 24.3235V16.3795C25.2809 15.7844 24.9962 15.4997 24.4011 15.4997C23.8318 15.4997 23.5213 15.7844 23.5213 16.3795V24.5563C23.5213 25.255 22.952 25.6949 22.3827 25.6949H21.503C21.0113 25.6949 20.6491 26.0571 20.6491 26.5488C20.6491 27.1698 21.0372 27.4803 21.8911 27.4803ZM14.6976 21.5288C15.4739 21.5288 15.9655 21.0372 15.9655 20.2609V16.8194C15.9655 16.0172 15.4739 15.5256 14.6976 15.5256C13.9472 15.5256 13.4555 16.0431 13.4555 16.8194V20.2609C13.4555 21.0372 13.9472 21.5288 14.6976 21.5288ZM33.0695 21.5288C33.8199 21.5288 34.3116 21.0372 34.3116 20.2609V16.8194C34.3116 16.0431 33.8199 15.5256 33.0695 15.5256C32.2933 15.5256 31.7757 16.0172 31.7757 16.8194V20.2609C31.7757 21.0372 32.2933 21.5288 33.0695 21.5288ZM23.7801 35.3984C26.6264 35.3984 29.4728 34.2081 31.5687 32.1121C31.724 31.9827 31.8792 31.7499 31.8792 31.4135C31.8792 30.896 31.4911 30.5596 31.0253 30.5596C30.7407 30.5596 30.5078 30.6372 30.1714 30.9995C28.6189 32.552 26.2124 33.6647 23.7801 33.6647C21.3477 33.6647 18.9671 32.552 17.3887 30.9995C17.0782 30.6631 16.8453 30.5596 16.5348 30.5596C16.069 30.5596 15.6809 30.896 15.6809 31.4135C15.6809 31.724 15.8361 31.9569 15.9914 32.1121C18.0356 34.234 20.9337 35.3984 23.7801 35.3984ZM6.98652 48H14.0248C14.6458 48 15.0081 47.6636 15.0081 47.0426C15.0081 46.4216 14.6458 46.0852 14.0248 46.0852H7.03827C3.67439 46.0852 1.91482 44.3256 1.91482 40.9358V34.0011C1.91482 33.3801 1.57844 32.9919 0.957412 32.9919C0.336388 32.9919 0 33.3801 0 34.0011V41.0394C0 45.6194 2.40647 48 6.98652 48ZM33.9752 48H41.0394C45.6194 48 48 45.5418 48 41.0394V34.0011C48 33.3801 47.6636 32.9919 47.0426 32.9919C46.4216 32.9919 46.0852 33.3801 46.0852 34.0011V40.9358C46.0852 44.3256 44.2221 46.0852 40.9617 46.0852H33.9752C33.3542 46.0852 32.9919 46.4216 32.9919 47.0426C32.9919 47.6636 33.3542 48 33.9752 48Z" fill="#559935"/>
</svg>
