<svg width="38" height="41" viewBox="0 0 38 41" fill="none" xmlns="http://www.w3.org/2000/svg">
<path d="M29.302 22V24C29.302 29.54 27.974 34.89 25.472 39.692L25.018 40.532L21.524 38.584C23.844 34.424 25.144 29.764 25.288 24.912L25.302 24V22H29.302ZM17.302 16H21.302V24L21.292 24.758C21.1408 30.2334 19.2564 35.5196 15.91 39.856L15.448 40.436L12.348 37.908C15.4008 34.1797 17.1379 29.5483 17.29 24.732L17.302 24V16ZM19.302 8.00002C21.9542 8.00002 24.4977 9.05359 26.3731 10.929C28.2484 12.8043 29.302 15.3479 29.302 18H25.302C25.302 16.4087 24.6699 14.8826 23.5446 13.7574C22.4194 12.6322 20.8933 12 19.302 12C17.7107 12 16.1846 12.6322 15.0594 13.7574C13.9341 14.8826 13.302 16.4087 13.302 18V24C13.302 28.47 11.662 32.688 8.76 35.954L8.336 36.414L5.44 33.654C7.77992 31.2059 9.14848 27.9896 9.29 24.606L9.302 24V18C9.302 15.3479 10.3556 12.8043 12.2309 10.929C14.1063 9.05359 16.6498 8.00002 19.302 8.00002ZM19.302 1.97291e-05C24.0759 1.97291e-05 28.6543 1.89644 32.0299 5.2721C35.4056 8.64775 37.302 13.2261 37.302 18V24C37.302 27.396 36.898 30.74 36.108 33.98L35.83 35.058L31.97 34.006C32.754 31.132 33.196 28.162 33.286 25.136L33.302 24V18C33.302 15.4017 32.579 12.8547 31.2138 10.644C29.8485 8.43332 27.8951 6.64614 25.5719 5.4825C23.2488 4.31885 20.6477 3.82466 18.0597 4.05523C15.4716 4.2858 12.9988 5.23203 10.918 6.78802L8.068 3.93602C11.255 1.38258 15.2183 -0.00603693 19.302 1.97291e-05ZM5.238 6.76602L8.09 9.61602C6.37467 11.9025 5.40412 14.6612 5.31 17.518L5.302 18L5.31 22C5.31 24.24 4.782 26.406 3.786 28.354L3.474 28.934L0 26.95C0.76 25.62 1.204 24.136 1.292 22.584L1.31 22V18C1.29814 13.9167 2.68429 9.9523 5.238 6.76602Z" fill="#559935"/>
</svg>
