<svg width="21" height="17" viewBox="0 0 21 17" fill="none" xmlns="http://www.w3.org/2000/svg">
<path d="M9.4788 7.63199L4.9688 0.559992L6.8998 0.0419922L13.8508 6.46199L19.1128 5.05199C19.4971 4.94909 19.9065 5.00306 20.251 5.20204C20.5955 5.40101 20.8469 5.72869 20.9498 6.11299C21.0527 6.49729 20.9987 6.90673 20.7998 7.25123C20.6008 7.59574 20.2731 7.84709 19.8888 7.94999L4.9168 11.96L4.1408 9.06199L4.3818 8.99699L6.8488 11.442L4.2228 12.146C4.00746 12.2037 3.77901 12.1879 3.57373 12.1009C3.36845 12.0139 3.19812 11.8608 3.0898 11.666L0.466797 6.93999L1.9158 6.55199L4.3818 8.99699L9.4788 7.63099V7.63199ZM3.0008 15H19.0008V17H3.0008V15Z" fill="#282A2D" fill-opacity="0.68"/>
</svg>
