<svg width="24" height="24" viewBox="0 0 24 24" fill="none" xmlns="http://www.w3.org/2000/svg">
<path d="M10.4788 11.632L5.9688 4.55999L7.8998 4.04199L14.8508 10.462L20.1128 9.05199C20.4971 8.94909 20.9065 9.00306 21.251 9.20204C21.5955 9.40101 21.8469 9.72869 21.9498 10.113C22.0527 10.4973 21.9987 10.9067 21.7998 11.2512C21.6008 11.5957 21.2731 11.8471 20.8888 11.95L5.9168 15.96L5.1408 13.062L5.3818 12.997L7.8488 15.442L5.2228 16.146C5.00746 16.2037 4.77901 16.1879 4.57373 16.1009C4.36845 16.0139 4.19812 15.8608 4.0898 15.666L1.4668 10.94L2.9158 10.552L5.3818 12.997L10.4788 11.631V11.632ZM4.0008 19H20.0008V21H4.0008V19Z" fill="white"/>
</svg>
