<svg width="111" height="96" viewBox="0 0 111 96" fill="none" xmlns="http://www.w3.org/2000/svg">
<g opacity="0.1">
<rect width="99.2683" height="72.4528" rx="8" fill="#282A2D"/>
<rect x="5.41504" y="5.43396" width="88.439" height="61.5849" rx="4" fill="#F0F0F0"/>
<rect x="46.0244" y="72.4528" width="7.21951" height="14.4906" fill="#282A2D"/>
<rect x="26.1709" y="86.9434" width="46.9268" height="9.0566" rx="1" fill="#282A2D"/>
<g clip-path="url(#clip0_3454_37096)">
<rect x="82.1221" y="21.7358" width="28.878" height="28.9811" rx="14.439" fill="#F0F0F0"/>
<path d="M95.3576 35.0189V30.1887H97.7641V35.0189H102.577V37.434H97.7641V42.2641H95.3576V37.434H90.5446V35.0189H95.3576ZM96.5608 48.3019C89.9153 48.3019 84.5283 42.8957 84.5283 36.2264C84.5283 29.5571 89.9153 24.1509 96.5608 24.1509C103.206 24.1509 108.593 29.5571 108.593 36.2264C108.593 42.8957 103.206 48.3019 96.5608 48.3019ZM96.5608 45.8868C99.1138 45.8868 101.562 44.869 103.367 43.0573C105.173 41.2457 106.187 38.7885 106.187 36.2264C106.187 33.6643 105.173 31.2072 103.367 29.3955C101.562 27.5838 99.1138 26.566 96.5608 26.566C94.0079 26.566 91.5594 27.5838 89.7542 29.3955C87.949 31.2072 86.9348 33.6643 86.9348 36.2264C86.9348 38.7885 87.949 41.2457 89.7542 43.0573C91.5594 44.869 94.0079 45.8868 96.5608 45.8868Z" fill="#5284DA"/>
</g>
</g>
<defs>
<clipPath id="clip0_3454_37096">
<rect x="82.1221" y="21.7358" width="28.878" height="28.9811" rx="14.439" fill="white"/>
</clipPath>
</defs>
</svg>
