<svg width="111" height="96" viewBox="0 0 111 96" fill="none" xmlns="http://www.w3.org/2000/svg">
<g opacity="0.1">
<rect width="99.2683" height="72.4528" rx="8" fill="#FCFCFC"/>
<rect x="5.41504" y="5.43359" width="88.439" height="61.5849" rx="4" fill="#111315"/>
<rect x="46.0244" y="72.4531" width="7.21951" height="14.4906" fill="#FCFCFC"/>
<rect x="26.1709" y="86.9434" width="46.9268" height="9.0566" rx="1" fill="#FCFCFC"/>
<g clip-path="url(#clip0_3454_38042)">
<rect x="82.1221" y="21.7363" width="28.878" height="28.9811" rx="14.439" fill="#111315"/>
<path d="M95.3576 35.0193V30.1891H97.7641V35.0193H102.577V37.4344H97.7641V42.2646H95.3576V37.4344H90.5446V35.0193H95.3576ZM96.5608 48.3023C89.9153 48.3023 84.5283 42.8961 84.5283 36.2268C84.5283 29.5576 89.9153 24.1514 96.5608 24.1514C103.206 24.1514 108.593 29.5576 108.593 36.2268C108.593 42.8961 103.206 48.3023 96.5608 48.3023ZM96.5608 45.8872C99.1138 45.8872 101.562 44.8694 103.367 43.0578C105.173 41.2461 106.187 38.7889 106.187 36.2268C106.187 33.6647 105.173 31.2076 103.367 29.3959C101.562 27.5842 99.1138 26.5665 96.5608 26.5665C94.0079 26.5665 91.5594 27.5842 89.7542 29.3959C87.949 31.2076 86.9348 33.6647 86.9348 36.2268C86.9348 38.7889 87.949 41.2461 89.7542 43.0578C91.5594 44.8694 94.0079 45.8872 96.5608 45.8872Z" fill="#2A85FF"/>
</g>
</g>
<defs>
<clipPath id="clip0_3454_38042">
<rect x="82.1221" y="21.7363" width="28.878" height="28.9811" rx="14.439" fill="white"/>
</clipPath>
</defs>
</svg>
