<svg width="24" height="24" viewBox="0 0 24 24" fill="none" xmlns="http://www.w3.org/2000/svg">
<path d="M17.3333 18.6667V17.3333H13.3333V13.3333H17.3333V16H20V18.6667H18.6667V21.3333H16V24H13.3333V20H16V18.6667H17.3333ZM24 24H18.6667V21.3333H21.3333V18.6667H24V24ZM0 0H10.6667V10.6667H0V0ZM2.66667 2.66667V8H8V2.66667H2.66667ZM13.3333 0H24V10.6667H13.3333V0ZM16 2.66667V8H21.3333V2.66667H16ZM0 13.3333H10.6667V24H0V13.3333ZM2.66667 16V21.3333H8V16H2.66667ZM20 13.3333H24V16H20V13.3333ZM4 4H6.66667V6.66667H4V4ZM4 17.3333H6.66667V20H4V17.3333ZM17.3333 4H20V6.66667H17.3333V4Z" fill="#355A99"/>
</svg>
