<svg width="24" height="28" viewBox="0 0 24 28" fill="none" xmlns="http://www.w3.org/2000/svg">
<path d="M22.6667 0.666504C23.0203 0.666504 23.3594 0.80698 23.6095 1.05703C23.8595 1.30708 24 1.64622 24 1.99984V25.9998C24 26.3535 23.8595 26.6926 23.6095 26.9426C23.3594 27.1927 23.0203 27.3332 22.6667 27.3332H1.33333C0.979711 27.3332 0.640573 27.1927 0.390524 26.9426C0.140476 26.6926 0 26.3535 0 25.9998V1.99984C0 1.64622 0.140476 1.30708 0.390524 1.05703C0.640573 0.80698 0.979711 0.666504 1.33333 0.666504H22.6667ZM21.3333 3.33317H2.66667V24.6665H21.3333V3.33317ZM17.3333 19.3332V21.9998H6.66667V19.3332H17.3333ZM12 5.99984C13.4145 5.99984 14.771 6.56174 15.7712 7.56193C16.7714 8.56213 17.3333 9.91868 17.3333 11.3332C17.3333 12.7477 16.7714 14.1042 15.7712 15.1044C14.771 16.1046 13.4145 16.6665 12 16.6665C10.5855 16.6665 9.22896 16.1046 8.22876 15.1044C7.22857 14.1042 6.66667 12.7477 6.66667 11.3332C6.66667 9.91868 7.22857 8.56213 8.22876 7.56193C9.22896 6.56174 10.5855 5.99984 12 5.99984ZM12 8.6665C11.2928 8.6665 10.6145 8.94746 10.1144 9.44755C9.61429 9.94765 9.33333 10.6259 9.33333 11.3332C9.33333 12.0404 9.61429 12.7187 10.1144 13.2188C10.6145 13.7189 11.2928 13.9998 12 13.9998C12.7072 13.9998 13.3855 13.7189 13.8856 13.2188C14.3857 12.7187 14.6667 12.0404 14.6667 11.3332C14.6667 10.6259 14.3857 9.94765 13.8856 9.44755C13.3855 8.94746 12.7072 8.6665 12 8.6665Z" fill="#DF292F"/>
</svg>
