<svg width="24" height="24" viewBox="0 0 24 24" fill="none" xmlns="http://www.w3.org/2000/svg">
<path d="M17.0006 13V14C17.0006 16.77 16.3366 19.445 15.0856 21.846L14.8586 22.266L13.1116 21.292C14.2716 19.212 14.9216 16.882 14.9936 14.456L15.0006 14V13H17.0006ZM11.0006 10H13.0006V14L12.9956 14.379C12.92 17.1167 11.9778 19.7598 10.3046 21.928L10.0736 22.218L8.52361 20.954C10.05 19.0899 10.9186 16.7741 10.9946 14.366L11.0006 14V10ZM12.0006 6.00001C13.3267 6.00001 14.5985 6.52679 15.5361 7.46448C16.4738 8.40216 17.0006 9.67393 17.0006 11H15.0006C15.0006 10.2044 14.6845 9.4413 14.1219 8.87869C13.5593 8.31608 12.7963 8.00001 12.0006 8.00001C11.205 8.00001 10.4419 8.31608 9.87929 8.87869C9.31668 9.4413 9.00061 10.2044 9.00061 11V14C9.00061 16.235 8.18061 18.344 6.72961 19.977L6.51761 20.207L5.06961 18.827C6.23957 17.6029 6.92385 15.9948 6.99461 14.303L7.00061 14V11C7.00061 9.67393 7.52739 8.40216 8.46508 7.46448C9.40276 6.52679 10.6745 6.00001 12.0006 6.00001ZM12.0006 2.00001C14.3876 2.00001 16.6767 2.94822 18.3646 4.63605C20.0524 6.32388 21.0006 8.61306 21.0006 11V14C21.0006 15.698 20.7986 17.37 20.4036 18.99L20.2646 19.529L18.3346 19.003C18.7266 17.566 18.9476 16.081 18.9926 14.568L19.0006 14V11C19.0006 9.70087 18.6391 8.42737 17.9565 7.32201C17.2739 6.21666 16.2971 5.32307 15.1356 4.74125C13.974 4.15943 12.6734 3.91233 11.3794 4.02762C10.0854 4.1429 8.84903 4.61601 7.80861 5.39401L6.38361 3.96801C7.97708 2.69129 9.95876 1.99698 12.0006 2.00001ZM4.96861 5.38301L6.39461 6.80801C5.53694 7.95124 5.05167 9.3306 5.00461 10.759L5.00061 11L5.00461 13C5.00461 14.12 4.74061 15.203 4.24261 16.177L4.08661 16.467L2.34961 15.475C2.72961 14.81 2.95161 14.068 2.99561 13.292L3.00461 13V11C2.99868 8.95834 3.69176 6.97615 4.96861 5.38301Z" fill="#282A2D"/>
</svg>
